<svg width="20" height="20" viewBox="0 0 20 20" fill="none" xmlns="http://www.w3.org/2000/svg">
<g clip-path="url(#clip0)">
<path d="M9.71758 0.0643555L0.761758 4.38787C0.649453 4.44209 0.578125 4.55576 0.578125 4.68045V15.319C0.578125 15.4437 0.649492 15.5574 0.761758 15.6116L9.71758 19.9351C9.89605 20.0213 10.1041 20.0213 10.2826 19.9351L19.2384 15.6116C19.3507 15.5574 19.422 15.4437 19.422 15.319V4.68045C19.422 4.55576 19.3507 4.44209 19.2384 4.38787L10.2826 0.0643555C10.1041 -0.0217773 9.89605 -0.0217773 9.71758 0.0643555Z" fill="#FFE17D"/>
<path d="M0.632148 4.50293C0.598008 4.55492 0.578125 4.61613 0.578125 4.68078V15.3194C0.578125 15.4441 0.649492 15.5577 0.761758 15.612L9.71758 19.9354C9.8068 19.9785 9.90344 20 10.0001 20V9.02539L0.632148 4.50293Z" fill="#FFC350"/>
<path d="M19.3679 4.50293C19.4021 4.55492 19.422 4.61613 19.422 4.68078V15.3194C19.422 15.4441 19.3506 15.5577 19.2383 15.612L10.2825 19.9354C10.1933 19.9785 10.0966 20.0001 10 20.0001V9.02539L19.3679 4.50293Z" fill="#FFD164"/>
<path d="M3.2581 14.7523C3.21083 14.7523 3.16259 14.7419 3.11724 14.72L1.73455 14.0525C1.57275 13.9744 1.50517 13.7802 1.58322 13.6187C1.66095 13.4573 1.85576 13.39 2.01693 13.4674L3.39962 14.135C3.56142 14.213 3.629 14.4072 3.55095 14.5687C3.49513 14.6848 3.379 14.7523 3.2581 14.7523Z" fill="#FFE17D"/>
<path d="M4.53074 13.924C4.48348 13.924 4.43524 13.9135 4.38988 13.8916L1.73645 12.6108C1.57496 12.5327 1.50707 12.3385 1.58512 12.177C1.66285 12.0159 1.85797 11.9483 2.01883 12.0257L4.67223 13.3066C4.83371 13.3846 4.9016 13.5788 4.82356 13.7403C4.76778 13.8563 4.65164 13.924 4.53074 13.924Z" fill="#FFF6D8"/>
<path d="M16.1933 6.03029L6.79246 1.48877L4.31433 2.68994L13.7363 7.2385L16.1933 6.03029Z" fill="#FF8087"/>
<path d="M13.7363 7.23844V10.7622C13.7363 10.8819 13.8615 10.9605 13.9694 10.9085L16.0097 9.92349C16.122 9.86927 16.1934 9.7556 16.1934 9.63091V6.03027L13.7363 7.23844Z" fill="#E6646E"/>
</g>
<defs>
<clipPath id="clip0">
<rect width="20" height="20" fill="white"/>
</clipPath>
</defs>
</svg>
