<svg width="375" height="3" viewBox="0 0 375 3" fill="none" xmlns="http://www.w3.org/2000/svg">
<path d="M364 0H373L375 3H366L364 0Z" fill="#E04F4F"/>
<path d="M364 0H373L375 3H366L364 0Z" fill="#E04F4F"/>
<path d="M350 0H359L361 3H352L350 0Z" fill="#3A69AE"/>
<path d="M350 0H359L361 3H352L350 0Z" fill="#3A69AE"/>
<path d="M336 0H345L347 3H338L336 0Z" fill="#E04F4F"/>
<path d="M336 0H345L347 3H338L336 0Z" fill="#E04F4F"/>
<path d="M322 0H331L333 3H324L322 0Z" fill="#3A69AE"/>
<path d="M322 0H331L333 3H324L322 0Z" fill="#3A69AE"/>
<path d="M308 0H317L319 3H310L308 0Z" fill="#E04F4F"/>
<path d="M308 0H317L319 3H310L308 0Z" fill="#E04F4F"/>
<path d="M294 0H303L305 3H296L294 0Z" fill="#3A69AE"/>
<path d="M294 0H303L305 3H296L294 0Z" fill="#3A69AE"/>
<path d="M280 0H289L291 3H282L280 0Z" fill="#E04F4F"/>
<path d="M280 0H289L291 3H282L280 0Z" fill="#E04F4F"/>
<path d="M266 0H275L277 3H268L266 0Z" fill="#3A69AE"/>
<path d="M266 0H275L277 3H268L266 0Z" fill="#3A69AE"/>
<path d="M252 0H261L263 3H254L252 0Z" fill="#E04F4F"/>
<path d="M252 0H261L263 3H254L252 0Z" fill="#E04F4F"/>
<path d="M238 0H247L249 3H240L238 0Z" fill="#3A69AE"/>
<path d="M238 0H247L249 3H240L238 0Z" fill="#3A69AE"/>
<path d="M224 0H233L235 3H226L224 0Z" fill="#E04F4F"/>
<path d="M224 0H233L235 3H226L224 0Z" fill="#E04F4F"/>
<path d="M210 0H219L221 3H212L210 0Z" fill="#3A69AE"/>
<path d="M210 0H219L221 3H212L210 0Z" fill="#3A69AE"/>
<path d="M196 0H205L207 3H198L196 0Z" fill="#E04F4F"/>
<path d="M196 0H205L207 3H198L196 0Z" fill="#E04F4F"/>
<path d="M182 0H191L193 3H184L182 0Z" fill="#3A69AE"/>
<path d="M182 0H191L193 3H184L182 0Z" fill="#3A69AE"/>
<path d="M168 0H177L179 3H170L168 0Z" fill="#E04F4F"/>
<path d="M168 0H177L179 3H170L168 0Z" fill="#E04F4F"/>
<path d="M154 0H163L165 3H156L154 0Z" fill="#3A69AE"/>
<path d="M154 0H163L165 3H156L154 0Z" fill="#3A69AE"/>
<path d="M140 0H149L151 3H142L140 0Z" fill="#E04F4F"/>
<path d="M140 0H149L151 3H142L140 0Z" fill="#E04F4F"/>
<path d="M126 0H135L137 3H128L126 0Z" fill="#3A69AE"/>
<path d="M126 0H135L137 3H128L126 0Z" fill="#3A69AE"/>
<path d="M112 0H121L123 3H114L112 0Z" fill="#E04F4F"/>
<path d="M112 0H121L123 3H114L112 0Z" fill="#E04F4F"/>
<path d="M98 0H107L109 3H100L98 0Z" fill="#3A69AE"/>
<path d="M98 0H107L109 3H100L98 0Z" fill="#3A69AE"/>
<path d="M84 0H93L95 3H86L84 0Z" fill="#E04F4F"/>
<path d="M84 0H93L95 3H86L84 0Z" fill="#E04F4F"/>
<path d="M70 0H79L81 3H72L70 0Z" fill="#3A69AE"/>
<path d="M70 0H79L81 3H72L70 0Z" fill="#3A69AE"/>
<path d="M56 0H65L67 3H58L56 0Z" fill="#E04F4F"/>
<path d="M56 0H65L67 3H58L56 0Z" fill="#E04F4F"/>
<path d="M42 0H51L53 3H44L42 0Z" fill="#3A69AE"/>
<path d="M42 0H51L53 3H44L42 0Z" fill="#3A69AE"/>
<path d="M28 0H37L39 3H30L28 0Z" fill="#E04F4F"/>
<path d="M28 0H37L39 3H30L28 0Z" fill="#E04F4F"/>
<path d="M14 0H23L25 3H16L14 0Z" fill="#3A69AE"/>
<path d="M14 0H23L25 3H16L14 0Z" fill="#3A69AE"/>
<path d="M0 0H9L11 3H2L0 0Z" fill="#E04F4F"/>
<path d="M0 0H9L11 3H2L0 0Z" fill="#E04F4F"/>
</svg>
