<svg width="20" height="20" viewBox="0 0 20 20" fill="none" xmlns="http://www.w3.org/2000/svg">
<g clip-path="url(#clip0)">
<path d="M9.12679 4.09845C9.01067 3.95141 6.25829 0.501352 4.08546 0.801172C3.31503 0.907543 2.7217 1.44903 2.322 2.41056C1.77058 3.73707 1.72475 4.81534 2.18581 5.61536C2.75981 6.61136 3.89757 6.77205 3.94571 6.77843C3.95843 6.78012 3.97126 6.78094 3.9841 6.78094H8.8964C9.0585 6.78094 9.18992 6.64952 9.18992 6.48742V4.28035C9.18996 4.21437 9.16769 4.15026 9.12679 4.09845Z" fill="#FF8087"/>
<path d="M17.6779 2.41032C17.2782 1.44879 16.6849 0.907308 15.9145 0.800937C13.7421 0.501038 10.9892 3.95122 10.8732 4.09821C10.8323 4.15003 10.81 4.21413 10.81 4.28012V6.48719C10.81 6.64929 10.9414 6.7807 11.1035 6.7807H16.0158C16.0286 6.7807 16.0415 6.77988 16.0542 6.7782C16.1023 6.77182 17.2401 6.61113 17.8141 5.61512C18.2752 4.81506 18.2294 3.73683 17.6779 2.41032Z" fill="#FF8087"/>
<path d="M8.8965 5.43088H3.9842C3.97137 5.43088 3.95853 5.43006 3.94581 5.42838C3.89767 5.422 2.75991 5.26135 2.18591 4.2653C2.07523 4.07326 1.9941 3.86502 1.94182 3.64136C1.79596 4.41824 1.87697 5.07944 2.18591 5.61549C2.75991 6.6115 3.89767 6.77219 3.94581 6.77857C3.95853 6.78025 3.97137 6.78107 3.9842 6.78107H8.8965C9.0586 6.78107 9.19002 6.64965 9.19002 6.48755V5.13737C9.19002 5.29947 9.0586 5.43088 8.8965 5.43088Z" fill="#E6646E"/>
<path d="M17.8141 4.2653C17.2401 5.26131 16.1023 5.422 16.0542 5.42838C16.0415 5.43006 16.0286 5.43088 16.0158 5.43088H11.1035C10.9414 5.43088 10.81 5.29947 10.81 5.13737V6.48755C10.81 6.64965 10.9414 6.78107 11.1035 6.78107H16.0158C16.0286 6.78107 16.0415 6.78025 16.0542 6.77857C16.1023 6.77219 17.2401 6.6115 17.8141 5.61549C18.123 5.07941 18.204 4.41824 18.0582 3.64136C18.0059 3.86502 17.9248 4.07326 17.8141 4.2653Z" fill="#E6646E"/>
<path d="M11.1036 3.98682H8.89649C8.73438 3.98682 8.60297 4.11823 8.60297 4.28034V6.48741C8.60297 6.64951 8.73438 6.78093 8.89649 6.78093H11.1036C11.2657 6.78093 11.3971 6.64951 11.3971 6.48741V4.28034C11.3971 4.11823 11.2657 3.98682 11.1036 3.98682Z" fill="#E45F67"/>
<path d="M8.60303 5.43018V6.48685C8.60303 6.64895 8.73445 6.78037 8.89655 6.78037H11.1036C11.2657 6.78037 11.3971 6.64895 11.3971 6.48685V5.43018H8.60303Z" fill="#C94F59"/>
<path d="M18.2238 9.09375H1.77655C1.61445 9.09375 1.48303 9.22517 1.48303 9.38727V17.9411C1.48303 18.6445 2.05524 19.2167 2.75859 19.2167H17.2418C17.9451 19.2167 18.5173 18.6445 18.5173 17.9411V9.38727C18.5173 9.22513 18.3859 9.09375 18.2238 9.09375Z" fill="#FFD164"/>
<path d="M18.2238 9.09375H1.77655C1.61445 9.09375 1.48303 9.22517 1.48303 9.38727V10.6484H18.5173V9.38727C18.5173 9.22513 18.3859 9.09375 18.2238 9.09375Z" fill="#EFB64A"/>
<path d="M19.7065 6.19312H0.293519C0.131418 6.19312 0 6.32453 0 6.48663V9.38598C0 9.54808 0.131418 9.6795 0.293519 9.6795H19.7065C19.8686 9.6795 20 9.54808 20 9.38598V6.48663C20 6.32453 19.8686 6.19312 19.7065 6.19312Z" fill="#FFE17D"/>
<path d="M0 8.33008V9.38675C0 9.54885 0.131418 9.68027 0.293519 9.68027H19.7065C19.8686 9.68027 20 9.54885 20 9.38675V8.33008H0Z" fill="#FFC350"/>
<path d="M11.4515 6.19312H8.54889C8.38679 6.19312 8.25537 6.32453 8.25537 6.48663V18.9219C8.25537 19.084 8.38679 19.2154 8.54889 19.2154H11.4515C11.6136 19.2154 11.745 19.084 11.745 18.9219V6.48663C11.745 6.32453 11.6136 6.19312 11.4515 6.19312Z" fill="#FF8087"/>
<path d="M11.4511 6.19312H10.3945V19.2154H11.4511C11.6132 19.2154 11.7446 19.084 11.7446 18.9219V6.48663C11.7446 6.32453 11.6133 6.19312 11.4511 6.19312Z" fill="#E6646E"/>
</g>
<defs>
<clipPath id="clip0">
<rect width="20" height="20" fill="white"/>
</clipPath>
</defs>
</svg>
