<svg width="250" height="163" viewBox="0 0 250 163" fill="none" xmlns="http://www.w3.org/2000/svg">
<g clip-path="url(#clip0)">
<path d="M250 76.2174C250 82.676 247.563 88.8969 243.175 93.6363C238.787 98.3757 232.772 101.284 226.333 101.781C226.116 101.797 225.896 101.814 225.676 101.824V77.4894C225.676 77.2462 225.622 77.0061 225.517 76.7865C225.412 76.567 225.26 76.3736 225.071 76.2206C225.049 76.1982 225.025 76.1784 224.998 76.1615C224.975 76.1421 224.949 76.1245 224.923 76.1089C224.692 75.9602 224.427 75.8718 224.153 75.8517C223.88 75.8316 223.605 75.8805 223.355 75.9938L223.082 75.3956C223.38 75.2597 223.704 75.1891 224.032 75.1885L205.309 59.0588C205.453 58.8944 205.605 58.7334 205.756 58.5723C209.286 54.8514 213.85 52.2746 218.859 51.1747C223.869 50.0748 229.093 50.5025 233.857 52.4023C238.621 54.3022 242.706 57.5871 245.583 61.8324C248.461 66.0778 249.999 71.0886 250 76.2174Z" fill="#F2F2F2"/>
<path d="M6.50114 93.7C6.40803 93.2243 6.42035 92.734 6.53725 92.2635C6.65414 91.7931 6.87276 91.354 7.1777 90.9772C7.48265 90.6004 7.8665 90.2951 8.30222 90.0827C8.73795 89.8703 9.21495 89.756 9.69962 89.7479L24.479 72.1543L28.1688 76.8719L13.1065 93.2456C13.0661 94.0608 12.7282 94.8328 12.1567 95.4154C11.5852 95.998 10.8198 96.3507 10.0056 96.4067C9.19146 96.4627 8.385 96.2181 7.7391 95.7193C7.0932 95.2204 6.65273 94.502 6.50115 93.7H6.50114Z" fill="#FFB8B8"/>
<path d="M76.6833 72.0458C76.5798 72.1954 76.4883 72.3529 76.4096 72.5169L60.272 74.8237L57.8215 71.7126L52.6429 74.7972L57.5108 82.3867L77.1923 76.585C77.7116 77.0551 78.3618 77.356 79.0564 77.4476C79.7509 77.5392 80.4569 77.4172 81.0805 77.0979C81.704 76.7785 82.2155 76.2768 82.547 75.6596C82.8785 75.0424 83.0142 74.339 82.9361 73.6427C82.8581 72.9465 82.5699 72.2906 82.11 71.7621C81.65 71.2337 81.0401 70.8578 80.3613 70.6844C79.6825 70.5111 78.9671 70.5485 78.31 70.7917C77.653 71.0348 77.0856 71.4723 76.6833 72.0458Z" fill="#FFB8B8"/>
<path d="M49.1176 130.829L51.9735 133.672L64.3 124.011L60.0853 119.814L49.1176 130.829Z" fill="#FFB8B8"/>
<path d="M54.8405 141.808L45.8655 132.871L49.3182 129.403L54.8256 134.887C55.2809 135.341 55.6426 135.879 55.8898 136.473C56.137 137.066 56.2649 137.702 56.2663 138.344C56.2676 138.987 56.1424 139.624 55.8978 140.218C55.6532 140.812 55.2939 141.352 54.8404 141.808L54.8405 141.808Z" fill="#2F2E41"/>
<path d="M33.9377 158.102H37.9677L39.8847 142.558H33.9371L33.9377 158.102Z" fill="#FFB8B8"/>
<path d="M45.7396 161.844L33.0743 161.844L33.0741 156.951L40.846 156.951C41.4886 156.951 42.1249 157.077 42.7186 157.323C43.3123 157.569 43.8518 157.929 44.3062 158.384C44.7606 158.838 45.1211 159.377 45.3671 159.971C45.613 160.565 45.7396 161.201 45.7396 161.844Z" fill="#2F2E41"/>
<path d="M33.0616 146.096L28.4714 112.244C27.753 107.128 27.9759 101.924 29.1292 96.8878C30.0711 92.8408 31.3437 90.0375 32.9115 88.5562C33.159 88.324 33.4757 88.1793 33.8132 88.1444L48.9688 86.5656C49.2607 86.5358 49.5551 86.5896 49.8176 86.7208C50.0801 86.852 50.2999 87.0551 50.4513 87.3065L50.9495 88.1367C51.01 88.2375 51.0588 88.3449 51.0949 88.4567L54.2992 98.3903C54.347 98.5403 54.4242 98.6794 54.5262 98.7994C54.6283 98.9194 54.7532 99.0179 54.8936 99.0892C59.9387 101.665 76.3265 110.36 75.3886 114.111C74.5075 117.636 66.2574 123.351 63.7498 125.019C63.4945 125.189 63.1937 125.279 62.8866 125.277C62.5794 125.275 62.2801 125.18 62.0273 125.006L57.8649 122.158C57.6616 122.019 57.4947 121.833 57.3779 121.616C57.2611 121.399 57.198 121.158 57.1937 120.911C57.1894 120.665 57.2441 120.422 57.3532 120.201C57.4623 119.98 57.6227 119.789 57.8209 119.643L60.6914 117.528C60.867 117.398 61.0041 117.223 61.0877 117.022C61.1714 116.82 61.1985 116.599 61.1662 116.384C61.1338 116.168 61.0432 115.965 60.9042 115.797C60.7651 115.629 60.5828 115.501 60.3769 115.429L44.961 110.02C44.7879 109.959 44.6031 109.939 44.421 109.961C44.2389 109.983 44.0641 110.046 43.9103 110.146C43.7564 110.246 43.6275 110.38 43.5335 110.537C43.4395 110.695 43.3828 110.872 43.3679 111.054L40.5255 145.795C40.4941 146.167 40.3289 146.516 40.0604 146.776C39.7919 147.036 39.4383 147.19 39.0651 147.21L34.6671 147.43C34.6404 147.431 34.6138 147.432 34.5873 147.432C34.214 147.433 33.8531 147.298 33.5722 147.052C33.2913 146.807 33.1097 146.467 33.0616 146.096Z" fill="#2F2E41"/>
<path d="M40.0123 58.5379C44.4711 58.5379 48.0857 54.9233 48.0857 50.4645C48.0857 46.0057 44.4711 42.3911 40.0123 42.3911C35.5535 42.3911 31.9389 46.0057 31.9389 50.4645C31.9389 54.9233 35.5535 58.5379 40.0123 58.5379Z" fill="#FFB8B8"/>
<path d="M32.461 87.1732L26.5182 65.4901L26.62 65.4214C26.7476 65.3354 39.5568 56.8772 54.5538 63.6934L54.8257 63.8494L51.3043 86.355C51.2274 86.8687 50.9738 87.3394 50.5871 87.686C50.2004 88.0326 49.7049 88.2334 49.1859 88.2538L34.6956 88.8112C34.6664 88.8122 34.6372 88.8129 34.6083 88.8129C34.1198 88.814 33.6446 88.6539 33.2564 88.3575C32.8682 88.061 32.5886 87.6447 32.461 87.1732Z" fill="#CCCCCC"/>
<path d="M26.2923 79.6062L21.3429 73.9146C21.1045 73.6411 20.9703 73.2922 20.9639 72.9295C20.9575 72.5668 21.0793 72.2134 21.3079 71.9317L26.482 65.54L30.4539 66.6233L32.5597 73.9936L28.7201 79.4787C28.5862 79.6712 28.4099 79.8304 28.2049 79.9441C27.9998 80.0578 27.7714 80.1229 27.5372 80.1345C27.5095 80.1359 27.4819 80.1365 27.4544 80.1365C27.234 80.137 27.016 80.0898 26.8155 79.9983C26.6149 79.9068 26.4365 79.773 26.2923 79.6062Z" fill="#CCCCCC"/>
<path d="M53.662 78.4206C53.4278 78.409 53.1994 78.3439 52.9943 78.2302C52.7892 78.1165 52.6129 77.9573 52.479 77.7648L48.6395 72.2796L50.4863 64.5213L54.1433 63.5239L54.8257 63.8496L59.8912 70.2178C60.1198 70.4995 60.2417 70.8529 60.2353 71.2156C60.2289 71.5783 60.0946 71.9272 59.8563 72.2006L54.9068 77.8923C54.7627 78.0591 54.5843 78.1929 54.3837 78.2844C54.1832 78.3759 53.9652 78.423 53.7448 78.4226C53.7173 78.4226 53.6896 78.4219 53.662 78.4206Z" fill="#CCCCCC"/>
<path d="M225.676 75.8792C225.679 75.961 225.65 76.0409 225.597 76.1027C225.54 76.1689 225.459 76.21 225.372 76.2167C225.286 76.2235 225.2 76.1955 225.133 76.1389L224.032 75.1889L205.309 59.0592L152.795 13.8125C152.495 13.5561 152.113 13.4154 151.719 13.416C151.325 13.4166 150.944 13.5585 150.645 13.8158L79.9266 75.2546L79.2889 75.8069C79.2644 75.8285 79.2367 75.8463 79.2067 75.8594C79.1541 75.8827 79.0962 75.8918 79.039 75.8857C78.9569 75.877 78.8809 75.8384 78.8254 75.7773C78.7968 75.7449 78.7749 75.7073 78.7609 75.6665C78.747 75.6256 78.7412 75.5825 78.7439 75.5394C78.7467 75.4963 78.7579 75.4543 78.7769 75.4155C78.796 75.3768 78.8225 75.3422 78.8549 75.3138L78.9436 75.2349L150.214 13.3195C150.633 12.9598 151.166 12.7615 151.718 12.7603C152.27 12.7591 152.805 12.955 153.225 13.3129L205.756 58.5727L225.561 75.6392C225.595 75.6692 225.623 75.706 225.643 75.7472C225.663 75.7885 225.674 75.8334 225.676 75.8792Z" fill="#3F3D56"/>
<path d="M185.748 85.5862L184.883 83.2063L181.905 74.9886L175.488 57.2943L168.316 37.5159L155.381 1.84125C155.127 1.14556 154.608 0.578877 153.937 0.265286C153.266 -0.0483047 152.498 -0.0832408 151.802 0.168127L77.0175 27.2832C76.3216 27.537 75.7547 28.0562 75.4411 28.7273C75.1274 29.3983 75.0927 30.1663 75.3444 30.8629L93.683 81.4379L93.9952 82.3024L113.244 91.0263L118.655 93.4785L119.532 93.8762L142.44 104.26L143.328 103.938L158.353 98.4913L181.017 90.2736L184.071 89.1658C184.767 88.9124 185.335 88.3933 185.649 87.7223C185.963 87.0514 185.999 86.2832 185.748 85.5862Z" fill="#E6E6E6"/>
<path d="M154.389 43.4584C154.016 42.4346 153.252 41.6004 152.265 41.1389C151.277 40.6773 150.148 40.6261 149.123 40.9964L119.532 51.7287L105.244 56.9091C104.736 57.0926 104.269 57.3744 103.87 57.7383C103.472 58.1023 103.149 58.5412 102.92 59.0301C102.691 59.519 102.56 60.0482 102.536 60.5875C102.512 61.1268 102.594 61.6656 102.778 62.1731C102.962 62.6807 103.244 63.1469 103.608 63.5453C103.973 63.9437 104.412 64.2664 104.901 64.4949C105.39 64.7234 105.919 64.8533 106.459 64.8772C106.998 64.901 107.537 64.8183 108.044 64.6338L119.532 60.469L151.927 48.7243C152.951 48.3512 153.785 47.5874 154.246 46.6003C154.708 45.6131 154.759 44.4833 154.389 43.4584Z" fill="white"/>
<path d="M159.599 57.83C159.226 56.8061 158.462 55.972 157.475 55.5105C156.488 55.0489 155.358 54.9977 154.333 55.3679L149.32 57.1857L119.532 67.987L110.454 71.2774C109.43 71.6495 108.596 72.4129 108.134 73.3997C107.673 74.3866 107.622 75.5162 107.994 76.5404C108.365 77.5645 109.127 78.3995 110.114 78.8617C111.1 79.3239 112.23 79.3755 113.254 79.0053L119.532 76.7274L157.137 63.0926C157.222 63.063 157.304 63.0268 157.387 62.9907C158.341 62.5718 159.101 61.8055 159.512 60.8472C159.923 59.8889 159.954 58.8103 159.599 57.83Z" fill="white"/>
<path d="M164.865 72.3519C164.492 71.3282 163.729 70.4941 162.743 70.0325C161.756 69.5709 160.627 69.5196 159.602 69.8899L145.543 74.9881L134.66 78.9359L119.533 84.4188L115.72 85.8026C114.838 86.1237 114.093 86.7359 113.607 87.538C113.121 88.3402 112.924 89.2842 113.047 90.2139C113.085 90.4906 113.151 90.7627 113.244 91.0258L118.655 93.478L119.533 93.1591H119.539L146.99 83.2058L162.403 77.6178C163.427 77.2455 164.262 76.4818 164.724 75.4944C165.185 74.507 165.236 73.3767 164.865 72.3519H164.865Z" fill="white"/>
<path d="M134.055 29.3304C133.682 28.3066 132.918 27.4725 131.931 27.0109C130.944 26.5494 129.814 26.4982 128.789 26.8684L111.795 33.0284C110.771 33.4005 109.937 34.1639 109.475 35.1507C109.014 36.1376 108.963 37.2672 109.335 38.2914C109.706 39.3155 110.468 40.1505 111.455 40.6127C112.441 41.0749 113.571 41.1265 114.595 40.7563L119.973 38.8071L123.533 37.5153L131.593 34.5931C132.617 34.2207 133.451 33.4575 133.912 32.4709C134.374 31.4843 134.425 30.3548 134.055 29.3304Z" fill="white"/>
<path d="M201.874 37.5156H122.326C121.857 37.5161 121.396 37.6347 120.984 37.8604C120.573 38.0862 120.225 38.4119 119.973 38.8075C119.684 39.2553 119.531 39.7769 119.532 40.3096V93.8759L142.44 104.26L145.668 105.723L150.766 108.033C151.065 108.168 151.389 108.238 151.716 108.238C152.044 108.238 152.368 108.168 152.666 108.033L157.764 105.723L173.72 98.491L188.591 91.7492L204.668 84.465V40.3096C204.667 39.5688 204.373 38.8584 203.849 38.3345C203.325 37.8106 202.615 37.5161 201.874 37.5156Z" fill="#80D8FF"/>
<path d="M185.438 74.9883H138.762C137.7 74.9889 136.681 75.4003 135.916 76.1362C135.151 76.8722 134.701 77.8755 134.66 78.9361C134.654 78.9896 134.652 79.0434 134.653 79.0971C134.655 80.1864 135.088 81.2306 135.858 82.0008C136.628 82.7711 137.673 83.2044 138.762 83.206H185.438C186.528 83.206 187.573 82.7731 188.344 82.0025C189.114 81.232 189.547 80.1869 189.547 79.0971C189.547 78.0074 189.114 76.9623 188.344 76.1917C187.573 75.4212 186.528 74.9883 185.438 74.9883Z" fill="white"/>
<path d="M188.098 91.253C187.357 90.6192 186.413 90.2717 185.438 90.2734H138.762C137.672 90.2734 136.627 90.7063 135.856 91.4769C135.086 92.2475 134.653 93.2926 134.653 94.3823C134.653 95.472 135.086 96.5171 135.856 97.2877C136.627 98.0583 137.672 98.4911 138.762 98.4911H173.72L188.591 91.7493C188.441 91.5703 188.276 91.4042 188.098 91.253Z" fill="white"/>
<path d="M145.668 105.723L150.766 108.033C151.065 108.168 151.389 108.238 151.716 108.238C152.044 108.238 152.368 108.168 152.666 108.033L157.764 105.723H145.668Z" fill="white"/>
<path d="M174.999 57.4716C174.709 56.6807 174.184 55.9976 173.494 55.515C172.804 55.0323 171.982 54.7733 171.14 54.7729H153.061C152.271 54.7737 151.499 55.0016 150.836 55.4294C150.172 55.8572 149.646 56.4669 149.32 57.1857C149.076 57.7179 148.951 58.2965 148.952 58.8818C148.953 59.9711 149.387 61.0153 150.157 61.7855C150.927 62.5557 151.971 62.9891 153.061 62.9907H171.14C171.801 62.9907 172.452 62.8313 173.038 62.5259C173.624 62.2205 174.128 61.7782 174.507 61.2365C174.886 60.6948 175.128 60.0697 175.214 59.4143C175.299 58.7589 175.226 58.0925 174.999 57.4716Z" fill="white"/>
<path d="M172.126 98.4906L156.17 105.722L152.393 107.435C152.181 107.531 151.95 107.58 151.716 107.58C151.483 107.58 151.252 107.531 151.039 107.435L147.262 105.722H145.668L150.766 108.033C151.065 108.168 151.389 108.238 151.716 108.238C152.044 108.238 152.368 108.168 152.666 108.033L157.764 105.722L173.72 98.4906H172.126ZM172.126 98.4906L156.17 105.722L152.393 107.435C152.181 107.531 151.95 107.58 151.716 107.58C151.483 107.58 151.252 107.531 151.039 107.435L147.262 105.722H145.668L150.766 108.033C151.065 108.168 151.389 108.238 151.716 108.238C152.044 108.238 152.368 108.168 152.666 108.033L157.764 105.722L173.72 98.4906H172.126ZM172.126 98.4906L156.17 105.722L152.393 107.435C152.181 107.531 151.95 107.58 151.716 107.58C151.483 107.58 151.252 107.531 151.039 107.435L147.262 105.722H145.668L150.766 108.033C151.065 108.168 151.389 108.238 151.716 108.238C152.044 108.238 152.368 108.168 152.666 108.033L157.764 105.722L173.72 98.4906H172.126ZM225.676 75.8788C225.554 75.7581 225.421 75.6502 225.278 75.5567C224.955 75.3473 224.584 75.2228 224.201 75.1946C223.817 75.1665 223.432 75.2356 223.082 75.3956L188.098 91.2525L172.126 98.4906L156.17 105.722L152.393 107.435C152.181 107.531 151.95 107.58 151.716 107.58C151.483 107.58 151.252 107.531 151.039 107.435L147.262 105.722L143.328 103.937L119.539 93.159L119.532 93.1557L113.047 90.2138L93.6829 81.4373L80.3505 75.3956C80.2149 75.3328 80.0726 75.2854 79.9265 75.2543C79.6045 75.1738 79.2685 75.1671 78.9436 75.2345C78.4237 75.3409 77.9565 75.6233 77.6206 76.0341C77.2847 76.4448 77.1006 76.9588 77.0995 77.4895V160.038C77.1002 160.648 77.3429 161.233 77.7742 161.664C78.2056 162.096 78.7905 162.338 79.4005 162.339H224.032C224.642 162.338 225.227 162.096 225.658 161.664C226.09 161.233 226.332 160.648 226.333 160.038V77.4895C226.334 76.887 226.098 76.3084 225.676 75.8788V75.8788ZM225.676 160.038C225.675 160.474 225.502 160.892 225.194 161.2C224.886 161.508 224.468 161.681 224.032 161.681H79.4005C78.9647 161.681 78.5467 161.508 78.2385 161.2C77.9303 160.892 77.7571 160.474 77.757 160.038V77.4895C77.7571 77.2148 77.826 76.9445 77.9575 76.7033C78.089 76.4622 78.2789 76.2578 78.5097 76.1089C78.6721 76.0049 78.8511 75.9293 79.0389 75.8854C79.0942 75.8734 79.1502 75.8646 79.2066 75.8591C79.2708 75.8498 79.3356 75.8454 79.4005 75.8459C79.6342 75.8462 79.8651 75.8967 80.0776 75.9938L93.9951 82.3017L113.244 91.0256L118.655 93.4778L119.532 93.8756L142.44 104.259L145.668 105.722L150.766 108.033C151.065 108.168 151.389 108.238 151.716 108.238C152.044 108.238 152.368 108.168 152.666 108.033L157.764 105.722L173.72 98.4906L188.591 91.7488L223.355 75.9938C223.605 75.8805 223.88 75.8316 224.153 75.8517C224.427 75.8718 224.692 75.9602 224.923 76.1089C224.949 76.1245 224.975 76.1421 224.998 76.1615C225.025 76.1784 225.049 76.1982 225.071 76.2206C225.26 76.3736 225.412 76.567 225.517 76.7865C225.622 77.0061 225.676 77.2462 225.676 77.4895L225.676 160.038ZM172.126 98.4906L156.17 105.722L152.393 107.435C152.181 107.531 151.95 107.58 151.716 107.58C151.483 107.58 151.252 107.531 151.039 107.435L147.262 105.722H145.668L150.766 108.033C151.065 108.168 151.389 108.238 151.716 108.238C152.044 108.238 152.368 108.168 152.666 108.033L157.764 105.722L173.72 98.4906H172.126ZM172.126 98.4906L156.17 105.722L152.393 107.435C152.181 107.531 151.95 107.58 151.716 107.58C151.483 107.58 151.252 107.531 151.039 107.435L147.262 105.722H145.668L150.766 108.033C151.065 108.168 151.389 108.238 151.716 108.238C152.044 108.238 152.368 108.168 152.666 108.033L157.764 105.722L173.72 98.4906H172.126ZM118.655 93.4778L119.532 93.8756V93.159L118.655 93.4778ZM172.126 98.4906L156.17 105.722L152.393 107.435C152.181 107.531 151.95 107.58 151.716 107.58C151.483 107.58 151.252 107.531 151.039 107.435L147.262 105.722H145.668L150.766 108.033C151.065 108.168 151.389 108.238 151.716 108.238C152.044 108.238 152.368 108.168 152.666 108.033L157.764 105.722L173.72 98.4906H172.126Z" fill="#3F3D56"/>
<path d="M57.6968 162.339H20.5528C20.4656 162.339 20.382 162.304 20.3204 162.243C20.2587 162.181 20.2241 162.098 20.2241 162.01C20.2241 161.923 20.2587 161.84 20.3204 161.778C20.382 161.716 20.4656 161.682 20.5528 161.682H57.6968C57.784 161.682 57.8676 161.716 57.9292 161.778C57.9909 161.84 58.0255 161.923 58.0255 162.01C58.0255 162.098 57.9909 162.181 57.9292 162.243C57.8676 162.304 57.784 162.339 57.6968 162.339Z" fill="#3F3D56"/>
<path d="M36.9426 56.3685C36.3362 56.0608 35.832 55.5839 35.491 54.9955C35.15 54.4072 34.9868 53.7326 35.0212 53.0534C35.0556 52.3743 35.2862 51.7197 35.6849 51.1688C36.0837 50.6179 36.6336 50.1945 37.268 49.9496C39.7042 49.0095 42.4354 50.9282 44.9891 50.3827C47.5344 49.839 49.0068 46.796 48.3992 44.2652C47.7917 41.7344 45.5805 39.8281 43.1421 38.9178C41.5497 38.3247 39.8442 38.0973 38.152 38.2524C36.4598 38.4075 34.8241 38.9412 33.366 39.8139C31.9229 40.7121 30.7211 41.9493 29.8649 43.4177C29.0088 44.8862 28.5243 46.5415 28.4536 48.2399C28.4204 49.9397 28.8357 51.6183 29.6577 53.1066C30.4796 54.5949 31.6792 55.8403 33.1356 56.7175C33.7846 57.0916 34.5401 57.392 35.2701 57.2236C35.8694 57.0289 36.4339 56.7403 36.9426 56.3685Z" fill="#2F2E41"/>
<path d="M34.3264 39.6173C32.1782 36.7679 29.2782 34.4271 25.9038 33.2666C22.5293 32.106 18.6731 32.1992 15.5039 33.8393C12.3346 35.4793 9.97113 38.7366 9.72443 42.2965C9.31383 48.2214 14.3765 53.2578 14.896 59.1741C15.0607 61.0493 14.7563 62.9361 14.0103 64.6645C13.2643 66.3928 12.1 67.9085 10.6225 69.0749C9.14488 70.2413 7.40036 71.0218 5.54602 71.3462C3.69169 71.6706 1.7858 71.5286 0 70.933C1.27195 71.98 2.74667 72.7527 4.33153 73.2025C5.91638 73.6523 7.57713 73.7694 9.20944 73.5466C10.8391 73.302 12.3939 72.6979 13.761 71.7779C15.1282 70.8579 16.2735 69.6452 17.114 68.2277C18.2533 66.2481 18.7212 63.9485 18.9029 61.6717C19.1884 58.0715 18.8018 54.4497 17.7631 50.9908C17.1952 49.1037 16.4251 47.1617 16.7852 45.2241C16.9905 44.2163 17.4873 43.291 18.2141 42.5632C18.9408 41.8354 19.8653 41.3372 20.8728 41.1305C22.501 40.8254 24.1657 41.3223 25.7204 41.8942C27.2751 42.4661 28.8426 43.1279 30.4987 43.1658C32.1548 43.2036 33.9586 42.4456 34.5986 40.9177L34.3264 39.6173Z" fill="#2F2E41"/>
</g>
<defs>
<clipPath id="clip0">
<rect width="250" height="162.339" fill="white"/>
</clipPath>
</defs>
</svg>
