<svg width="20" height="20" viewBox="0 0 20 20" fill="none" xmlns="http://www.w3.org/2000/svg">
<path fill-rule="evenodd" clip-rule="evenodd" d="M18.4059 5.36782C18.3912 5.35158 18.3784 5.33091 18.3607 5.31369L13.9668 0.918386C13.7021 0.653181 13.2746 0.653181 13.0108 0.918386C12.7441 1.18261 12.7441 1.61215 13.0108 1.8744L14.8825 3.7515V4.94664H13.5284V6.30169H16.8359C17.8327 6.30169 18.6451 7.11059 18.6451 8.11088V16.6653C18.6451 16.962 18.5718 17.238 18.4433 17.487L6.92146 5.96366C6.65626 5.69895 6.22868 5.69895 5.96348 5.96366C5.69877 6.22788 5.69877 6.65595 5.96348 6.92066L17.4209 18.3776C17.2359 18.4401 17.0406 18.476 16.8364 18.476H8.28242C7.28458 18.476 6.47126 17.6622 6.47126 16.6653V13.5301H5.11719V16.8828C5.11719 16.9443 5.12801 17.0058 5.14573 17.0673C5.16541 17.2154 5.19444 17.363 5.23675 17.5062L5.28841 18.1508L5.8139 18.6453C5.81587 18.6472 5.8203 18.6502 5.82276 18.6541C6.40434 19.371 7.2895 19.8296 8.28242 19.8296H16.8359C17.6418 19.8296 18.3764 19.5245 18.9368 19.0231C18.9516 19.0094 18.9703 18.9985 18.9846 18.9838L18.9974 18.9665C19.6134 18.3894 20.0001 17.5726 20.0001 16.6658V8.11088C20.0001 6.93936 19.3546 5.91545 18.4059 5.36782Z" fill="#FFB003"/>
<mask id="mask0" mask-type="alpha" maskUnits="userSpaceOnUse" x="0" y="0" width="15" height="19">
<path d="M0 0H14.8829V18.3739H0V0Z" fill="white"/>
</mask>
<g mask="url(#mask0)">
<path fill-rule="evenodd" clip-rule="evenodd" d="M13.5289 4.94638H8.28235C7.60925 4.94638 6.98781 5.15894 6.47512 5.51714L2.45671 1.49872C2.67615 1.40721 2.9143 1.35456 3.16523 1.35456H11.7192C12.717 1.35456 13.5289 2.16739 13.5289 3.16376V4.94638ZM13.5289 11.7177C13.5289 12.7165 12.717 13.5289 11.7192 13.5289H6.47118V8.11112C6.47118 7.65648 6.64241 7.24121 6.91795 6.92139L6.9209 6.91991C6.9209 6.91893 6.92336 6.91893 6.92336 6.91598C7.25646 6.53908 7.73914 6.30094 8.28235 6.30094H13.5289V11.7182V11.7177ZM5.11712 8.11112V13.5289H3.16523C2.16739 13.5289 1.35702 12.717 1.35702 11.7182V3.16326C1.35702 2.9138 1.4077 2.67271 1.49971 2.45572L5.55502 6.51153C5.2785 6.97896 5.11712 7.5256 5.11712 8.11063V8.11112ZM11.7192 0H3.16523C2.3524 0 1.61386 0.311947 1.05196 0.818738C1.0062 0.845308 0.959459 0.87729 0.918129 0.919113C0.878274 0.960443 0.845308 1.00374 0.817754 1.05245C0.313423 1.61337 0 2.35289 0 3.16376V11.7177C0 12.532 0.313423 13.271 0.817754 13.8324C0.85072 13.8866 0.883686 13.9333 0.930921 13.9771L5.34542 18.2086V18.2012C5.46547 18.307 5.62095 18.3734 5.79415 18.3734C6.1676 18.3734 6.47118 18.0718 6.47118 17.6973V14.8829H11.7192C13.4634 14.8829 14.8829 13.462 14.8829 11.7172V3.16376C14.8829 1.41951 13.4634 0 11.7192 0Z" fill="#FF434F"/>
</g>
</svg>
