<svg width="275" height="200" viewBox="0 0 275 200" fill="none" xmlns="http://www.w3.org/2000/svg">
<g clip-path="url(#clip0)">
<path d="M201.571 0.114563H0.0861816V129.255H201.571V0.114563Z" fill="#E6E6E6"/>
<path d="M195.81 16.3115H5.84741V121.615H195.81V16.3115Z" fill="white"/>
<path d="M201.485 0H0V8.5665H201.485V0Z" fill="#80D8FF"/>
<path d="M6.36091 5.96734C7.23711 5.96734 7.9474 5.25648 7.9474 4.3796C7.9474 3.50272 7.23711 2.79187 6.36091 2.79187C5.48471 2.79187 4.77441 3.50272 4.77441 4.3796C4.77441 5.25648 5.48471 5.96734 6.36091 5.96734Z" fill="white"/>
<path d="M12.3829 5.96734C13.2591 5.96734 13.9694 5.25648 13.9694 4.3796C13.9694 3.50272 13.2591 2.79187 12.3829 2.79187C11.5067 2.79187 10.7964 3.50272 10.7964 4.3796C10.7964 5.25648 11.5067 5.96734 12.3829 5.96734Z" fill="white"/>
<path d="M18.4049 5.96734C19.2811 5.96734 19.9914 5.25648 19.9914 4.3796C19.9914 3.50272 19.2811 2.79187 18.4049 2.79187C17.5287 2.79187 16.8184 3.50272 16.8184 4.3796C16.8184 5.25648 17.5287 5.96734 18.4049 5.96734Z" fill="white"/>
<path d="M119.154 25H82V65.3399H119.154V25Z" fill="#E6E6E6"/>
<g clip-path="url(#clip1)">
<path d="M86.4465 38.8157H110.705V39.7085H86.4465C86.1999 39.7085 86.0001 39.5087 86.0001 39.2621C86.0001 39.0155 86.1999 38.8157 86.4465 38.8157Z" fill="#2F2D2B"/>
<path d="M86.4465 48.9055H110.705V49.7983H86.4465C86.1999 49.7983 86.0001 49.5985 86.0001 49.3519C86.0001 49.1053 86.1999 48.9055 86.4465 48.9055Z" fill="#2F2D2B"/>
<path d="M112.696 52.6252C114.518 52.6252 116 51.1433 116 49.3216C116 47.5 114.518 46.0181 112.696 46.0181C110.875 46.0181 109.393 47.5 109.393 49.3216C109.393 51.1433 110.875 52.6252 112.696 52.6252Z" fill="#B77B41"/>
<path d="M112.937 49.3216C112.937 48.0526 112.217 46.9491 111.165 46.396C111.623 46.1552 112.144 46.0181 112.696 46.0181C114.518 46.0181 116 47.5001 116 49.3216C116 51.1432 114.518 52.6252 112.696 52.6252C112.144 52.6252 111.623 52.4882 111.165 52.2473C112.217 51.6942 112.937 50.5907 112.937 49.3216Z" fill="#B75A15"/>
<path d="M112.696 46.0172C114.311 46.0172 115.658 47.1822 115.943 48.7155H114.947C114.522 48.7155 114.176 49.0612 114.176 49.4863C114.176 49.9377 113.809 50.305 113.357 50.305C112.906 50.305 112.538 49.9377 112.538 49.4863V49.3603C112.538 49.013 112.256 48.7305 111.908 48.7305C111.561 48.7305 111.279 49.013 111.279 49.3603C111.279 49.8812 110.855 50.305 110.334 50.305H109.542C109.445 49.994 109.393 49.6634 109.393 49.3208C109.393 47.4992 110.875 46.0172 112.696 46.0172Z" fill="#96401E"/>
<path d="M112.911 49.3692C112.911 48.0948 112.214 46.981 111.182 46.3862C111.636 46.151 112.151 46.0172 112.696 46.0172C114.311 46.0172 115.658 47.1822 115.943 48.7155H114.947C114.522 48.7155 114.176 49.0612 114.176 49.4863C114.176 49.9377 113.809 50.305 113.357 50.305C113.156 50.305 112.971 50.2316 112.829 50.1106C112.881 49.8716 112.911 49.6238 112.911 49.3692Z" fill="#6D3113"/>
<path d="M104.056 52.6252C105.878 52.6252 107.36 51.1433 107.36 49.3216C107.36 47.5 105.878 46.0181 104.056 46.0181C102.234 46.0181 100.752 47.5 100.752 49.3216C100.752 51.1433 102.234 52.6252 104.056 52.6252Z" fill="#B77B41"/>
<path d="M96.0253 52.6252C97.8469 52.6252 99.3289 51.1433 99.3289 49.3216C99.3289 47.5 97.8469 46.0181 96.0253 46.0181C94.2037 46.0181 92.7217 47.5 92.7217 49.3216C92.7217 51.1433 94.2037 52.6252 96.0253 52.6252Z" fill="#B77B41"/>
<path d="M96.3967 49.3216C96.3967 48.0264 95.6471 46.9035 94.5592 46.3624C95.0013 46.1424 95.4989 46.0181 96.0253 46.0181C97.8469 46.0181 99.3289 47.5 99.3289 49.3216C99.3289 51.1433 97.8469 52.6252 96.0253 52.6252C95.4989 52.6252 95.0013 52.5009 94.5592 52.2809C95.6471 51.7398 96.3967 50.6169 96.3967 49.3216Z" fill="#B75A15"/>
<path d="M96.0251 46.0172C97.5889 46.0172 98.9015 47.1097 99.2419 48.5713H98.3586C98.1106 48.5713 97.9088 48.7731 97.9088 49.0211C97.9088 49.4285 97.5774 49.76 97.1698 49.76C96.7623 49.76 96.4309 49.4286 96.4309 49.0211V48.5592C96.4309 48.2367 96.1685 47.9742 95.8459 47.9742C95.5234 47.9742 95.2609 48.2367 95.2609 48.5592V51.6555V52.5341V53.3314C95.2609 53.7389 94.9295 54.0703 94.522 54.0703C94.1145 54.0703 93.7831 53.7389 93.7831 53.3314V51.7443V51.6555V49.3641C93.7831 49.0063 93.5293 48.6891 93.1797 48.61L92.8182 48.5282C93.1744 47.0882 94.4767 46.0172 96.0251 46.0172Z" fill="#96401E"/>
<path d="M96.0254 46.0172C97.583 46.0172 98.891 47.1013 99.2378 48.5542H98.3943C98.3108 48.5542 98.2327 48.5768 98.1652 48.6158C98.014 48.6883 97.9091 48.8425 97.9091 49.0211C97.9091 49.4285 97.5777 49.76 97.1701 49.76C96.7626 49.76 96.4312 49.4286 96.4312 49.0211V48.5592C96.4312 48.4497 96.4004 48.3473 96.3477 48.2596C96.2962 48.1641 96.2202 48.0836 96.1272 48.028C95.8271 47.3059 95.2834 46.7101 94.5998 46.3418C95.0316 46.1342 95.515 46.0172 96.0254 46.0172Z" fill="#6D3113"/>
<path d="M112.696 42.5354C114.518 42.5354 116 41.0535 116 39.2319C116 37.4102 114.518 35.9283 112.696 35.9283C110.875 35.9283 109.393 37.4102 109.393 39.2319C109.393 41.0535 110.875 42.5354 112.696 42.5354Z" fill="#B77B41"/>
<path d="M112.937 39.2319C112.937 37.9628 112.217 36.8593 111.165 36.3062C111.623 36.0654 112.144 35.9283 112.696 35.9283C114.518 35.9283 116 37.4102 116 39.2319C116 41.0535 114.518 42.5354 112.696 42.5354C112.144 42.5354 111.623 42.3984 111.165 42.1575C112.217 41.6044 112.937 40.5009 112.937 39.2319Z" fill="#B75A15"/>
<path d="M112.696 35.9283C114.274 35.9283 115.595 37.0394 115.922 38.5197H115.134C114.887 38.5197 114.686 38.7205 114.686 38.9671C114.686 39.3723 114.357 39.702 113.951 39.702C113.546 39.702 113.216 39.3724 113.216 38.9671V38.5078C113.216 38.1869 112.955 37.926 112.635 37.926C112.314 37.926 112.053 38.187 112.053 38.5078V41.3939V42.472V43.2541C112.053 43.6594 111.723 43.9891 111.318 43.9891C110.913 43.9891 110.583 43.6594 110.583 43.2541V41.7685V41.3939V39.3082C110.583 38.9354 110.316 38.6172 109.949 38.5514L109.483 38.4683C109.829 37.0138 111.138 35.9283 112.696 35.9283Z" fill="#96401E"/>
<path d="M112.696 35.9283C114.274 35.9283 115.595 37.0394 115.922 38.5197H115.134C114.887 38.5197 114.686 38.7205 114.686 38.9671C114.686 39.3723 114.357 39.702 113.951 39.702C113.546 39.702 113.216 39.3724 113.216 38.9671V38.5078C113.216 38.1891 112.959 37.9297 112.641 37.9263C112.342 37.2374 111.822 36.6666 111.17 36.3035C111.627 36.0642 112.146 35.9283 112.696 35.9283Z" fill="#6D3113"/>
<path d="M104.056 42.5354C105.878 42.5354 107.36 41.0535 107.36 39.2319C107.36 37.4102 105.878 35.9283 104.056 35.9283C102.234 35.9283 100.752 37.4102 100.752 39.2319C100.752 41.0535 102.234 42.5354 104.056 42.5354Z" fill="#B77B41"/>
<path d="M104.296 39.2319C104.296 37.9628 103.577 36.8593 102.524 36.3062C102.983 36.0654 103.504 35.9283 104.056 35.9283C105.878 35.9283 107.36 37.4102 107.36 39.2319C107.36 41.0535 105.878 42.5354 104.056 42.5354C103.504 42.5354 102.983 42.3984 102.524 42.1575C103.577 41.6044 104.296 40.5009 104.296 39.2319Z" fill="#B75A15"/>
<path d="M104.056 35.9283C105.878 35.9283 107.36 37.4102 107.36 39.2319C107.36 39.3905 107.348 39.5463 107.326 39.699H106.685C106.681 39.6991 106.656 39.7 106.656 39.7C106.656 39.7 106.63 39.6991 106.625 39.6988C106.221 39.6904 105.895 39.3593 105.895 38.9535V38.4877C105.895 38.1622 105.631 37.8976 105.305 37.8976C104.98 37.8976 104.715 38.1623 104.715 38.4877V41.0209V42.4692V43.3018C104.715 43.7129 104.381 44.0473 103.97 44.0473C103.559 44.0473 103.224 43.7129 103.224 43.3018V42.4292V41.0208V39.2995C103.224 38.8689 102.874 38.5187 102.444 38.5187H100.831C101.158 37.0389 102.479 35.9283 104.056 35.9283Z" fill="#96401E"/>
<path d="M104.056 35.9283C105.878 35.9283 107.36 37.4102 107.36 39.2319C107.36 39.3905 107.348 39.5463 107.326 39.699H106.685C106.681 39.6991 106.656 39.7 106.656 39.7C106.656 39.7 106.63 39.6991 106.625 39.6988C106.564 39.6976 106.504 39.6878 106.447 39.6724C106.144 39.5691 105.925 39.2821 105.925 38.9448V38.4643C105.925 38.1287 105.652 37.8556 105.317 37.8556C104.981 37.8556 104.708 38.1287 104.708 38.4643V41.0771V42.5709C104.488 42.6156 104.261 42.6392 104.028 42.6392C103.751 42.6392 103.482 42.6047 103.224 42.5418V42.4293V41.6887C103.872 41.0684 104.276 40.197 104.276 39.2319C104.276 37.9728 103.589 36.8719 102.571 36.2821C103.017 36.056 103.522 35.9283 104.056 35.9283Z" fill="#6D3113"/>
<path d="M96.0253 42.5354C97.8469 42.5354 99.3289 41.0535 99.3289 39.2319C99.3289 37.4102 97.8469 35.9283 96.0253 35.9283C94.2037 35.9283 92.7217 37.4102 92.7217 39.2319C92.7217 41.0535 94.2037 42.5354 96.0253 42.5354Z" fill="#B77B41"/>
<path d="M104.296 49.3216C104.296 48.0526 103.577 46.9491 102.524 46.396C102.983 46.1552 103.504 46.0181 104.056 46.0181C105.878 46.0181 107.36 47.5 107.36 49.3216C107.36 51.1433 105.878 52.6252 104.056 52.6252C103.504 52.6252 102.983 52.4882 102.524 52.2473C103.577 51.6942 104.296 50.5907 104.296 49.3216Z" fill="#B75A15"/>
<path d="M96.2657 39.2319C96.2657 37.9628 95.546 36.8593 94.4937 36.3062C94.9518 36.0654 95.4727 35.9283 96.0253 35.9283C97.8469 35.9283 99.3289 37.4102 99.3289 39.2319C99.3289 41.0535 97.8469 42.5354 96.0253 42.5354C95.4727 42.5354 94.9518 42.3984 94.4937 42.1575C95.5461 41.6044 96.2657 40.5009 96.2657 39.2319Z" fill="#B75A15"/>
<path d="M96.0253 35.9283C97.6528 35.9283 99.0082 37.1116 99.2788 38.6628H98.1251C97.6957 38.6628 97.3463 39.0122 97.3463 39.4416C97.3463 39.8979 96.9751 40.2691 96.5188 40.2691C96.0625 40.2691 95.6913 39.8979 95.6913 39.4416V39.3144C95.6913 38.9634 95.4058 38.6779 95.0548 38.6779C94.7039 38.6779 94.4183 38.9634 94.4183 39.3144C94.4183 39.8408 93.9901 40.2691 93.4636 40.2691H92.8893C92.781 39.9427 92.7215 39.5942 92.7215 39.2319C92.7217 37.4102 94.2037 35.9283 96.0253 35.9283Z" fill="#96401E"/>
<path d="M96.2369 39.2843C96.2369 38.0098 95.5429 36.8952 94.5136 36.296C94.9669 36.0615 95.4807 35.9283 96.0253 35.9283C97.6528 35.9283 99.0082 37.1116 99.2788 38.6628H98.1251C97.6957 38.6628 97.3463 39.0122 97.3463 39.4416C97.3463 39.8979 96.9751 40.2691 96.5188 40.2691C96.375 40.2691 96.2398 40.2321 96.1218 40.1673C96.1966 39.8853 96.2369 39.5895 96.2369 39.2843Z" fill="#6D3113"/>
<path d="M104.056 46.0172C105.878 46.0172 107.36 47.4992 107.36 49.3208C107.36 49.4698 107.349 49.6163 107.33 49.7601H106.661C106.658 49.7603 106.633 49.7612 106.633 49.7612C106.633 49.7612 106.607 49.7602 106.603 49.7599C106.202 49.7517 105.879 49.4236 105.879 49.0215V48.5598C105.879 48.2374 105.617 47.9751 105.295 47.9751C104.972 47.9751 104.71 48.2374 104.71 48.5598V51.0712V52.5591V53.3302C104.71 53.7376 104.378 54.0689 103.971 54.0689C103.564 54.0689 103.233 53.7376 103.233 53.3302V52.5205V51.0712V49.3643C103.233 48.9376 102.885 48.5906 102.459 48.5906H100.835C101.168 47.1193 102.485 46.0172 104.056 46.0172Z" fill="#96401E"/>
<path d="M107.353 49.5263C107.352 49.5461 107.35 49.5658 107.348 49.5855C107.343 49.6447 107.337 49.7035 107.33 49.7619H106.661C106.658 49.7621 106.633 49.763 106.633 49.763C106.633 49.763 106.607 49.7621 106.603 49.7618C106.202 49.7535 105.879 49.4254 105.879 49.0233V48.5617C105.879 48.2392 105.617 47.9769 105.295 47.9769C104.972 47.9769 104.71 48.2392 104.71 48.5617V51.073V52.561C104.498 52.6036 104.28 52.6262 104.056 52.6262C103.772 52.6262 103.496 52.5893 103.233 52.5212V51.7477C103.886 51.1439 104.296 50.2806 104.296 49.3226C104.296 48.0536 103.577 46.95 102.524 46.397C102.637 46.3377 102.754 46.2849 102.874 46.2387C102.877 46.2374 102.881 46.236 102.884 46.2346C103.002 46.1899 103.122 46.1518 103.245 46.1205C103.253 46.1184 103.262 46.1165 103.27 46.1144C103.324 46.1011 103.378 46.0892 103.433 46.0786C103.441 46.0772 103.449 46.0754 103.457 46.0739C103.517 46.0627 103.578 46.0533 103.64 46.0455C103.65 46.0442 103.66 46.0433 103.67 46.0421C103.721 46.0361 103.772 46.0315 103.823 46.0279C103.839 46.0268 103.856 46.0255 103.872 46.0247C103.933 46.0213 103.994 46.0189 104.056 46.0189C105.878 46.0189 107.36 47.5009 107.36 49.3225C107.36 49.3698 107.358 49.4167 107.356 49.4635C107.355 49.4846 107.354 49.5054 107.353 49.5263Z" fill="#6D3113"/>
</g>
<path d="M119.154 73H82V113.34H119.154V73Z" fill="#E6E6E6"/>
<path d="M110.433 91.4433L101.369 92.0066L90.7726 91.4433C89.6685 91.4433 88.7734 90.7233 88.7734 89.8351C88.7734 84.4033 94.2475 80 101 80H101C107.753 80 112.432 84.4033 112.432 89.8351C112.432 90.7233 111.537 91.4433 110.433 91.4433Z" fill="#F6D190"/>
<path d="M101 80C100.598 80 100.2 80.0161 99.8079 80.0466C106.001 80.5287 110.842 84.7269 110.842 89.8351C110.842 90.7233 109.947 91.4433 108.843 91.4433L110.433 92.0066L111.227 91.4433C112.332 91.4433 113.227 90.7233 113.227 89.8351C113.227 84.4033 107.753 80 101 80Z" fill="#ECBD83"/>
<path d="M107.726 105.148H94.2737C91.236 105.148 88.7734 102.686 88.7734 99.648C88.7734 99.0001 89.2987 98.4748 89.9466 98.4748L100.921 97.9114L111.259 98.4748C111.907 98.4748 112.432 99.0001 112.432 99.648C112.432 102.686 110.764 105.148 107.726 105.148Z" fill="#F6D190"/>
<path d="M112.053 98.4748L111.259 97.9114L109.669 98.4748C110.317 98.4748 110.842 99.0001 110.842 99.648C110.842 102.686 108.38 105.148 105.342 105.148H107.726C110.764 105.148 113.227 102.686 113.227 99.648C113.227 99.0001 112.701 98.4748 112.053 98.4748Z" fill="#ECBD83"/>
<path d="M111.62 98.4749H89.6182C88.1904 98.4749 87.033 97.3174 87.033 95.8896C87.033 94.4618 88.1904 93.3044 89.6182 93.3044H111.62C113.048 93.3044 114.205 94.4618 114.205 95.8896C114.205 97.3174 113.048 98.4749 111.62 98.4749Z" fill="#B57F5F"/>
<path d="M111.777 93.3044L101.927 101.502C101.39 101.915 100.642 101.915 100.106 101.502L89.4607 93.3044H111.777Z" fill="#FFE187"/>
<path d="M112.415 93.3044H110.031C111.458 93.3044 112.616 94.4618 112.616 95.8896C112.616 97.3174 111.458 98.4749 110.031 98.4749H112.415C113.843 98.4749 115 97.3174 115 95.8896C115 94.4618 113.843 93.3044 112.415 93.3044Z" fill="#9F6E50"/>
<path d="M110.188 93.3044L99.8242 101.285L100.106 101.502C100.643 101.915 101.39 101.915 101.927 101.502L112.572 93.3044H110.188Z" fill="#FFD271"/>
<path d="M112.227 92.1091C112.227 94.7454 110.653 96.8261 108.017 96.8261C107.687 96.8261 107.365 96.8491 107.055 96.7855C104.88 96.3404 103.243 94.4159 103.243 92.1091H112.227Z" fill="#FF8086"/>
<path d="M110.818 92.1091C110.818 94.4073 109.194 96.3256 107.031 96.78C107.349 96.8468 107.679 96.8825 108.017 96.8825C110.653 96.8825 112.79 94.7454 112.79 92.1091H110.818Z" fill="#E5646E"/>
<path d="M98.1932 92.1091C98.1932 94.7454 96.6195 96.8261 93.9833 96.8261C93.6537 96.8261 93.332 96.8491 93.0213 96.7855C90.8461 96.3404 89.21 94.4159 89.21 92.1091H98.1932Z" fill="#FF8086"/>
<path d="M96.7848 92.1091C96.7848 94.4073 95.1604 96.3256 92.9973 96.78C93.3155 96.8468 93.6451 96.8825 93.9832 96.8825C96.6195 96.8825 98.7566 94.7454 98.7566 92.1091H96.7848Z" fill="#E5646E"/>
<path d="M114.841 92.9877C114.841 93.6649 114.399 94.2617 113.752 94.4628C112.968 94.7068 112.786 95.1666 111.5 95.1666C109.749 95.1666 109.749 94.3147 107.999 94.3147C106.249 94.3147 106.249 95.1666 104.499 95.1666C102.749 95.1666 102.749 94.3147 100.999 94.3147C99.2495 94.3147 99.2495 95.1666 97.4995 95.1666C95.7497 95.1666 95.7497 94.3147 93.9998 94.3147C92.2498 94.3147 92.2498 95.1666 90.4998 95.1666C89.2141 95.1666 88.8731 94.7068 88.0886 94.4628C87.442 94.2617 87 93.6649 87 92.9878V92.9877C87 92.1349 87.6913 91.4435 88.5442 91.4435H113.297C114.15 91.4435 114.841 92.1349 114.841 92.9877Z" fill="#B3E59F"/>
<path d="M113.456 91.4435H111.072C111.924 91.4435 112.616 92.1349 112.616 92.9877C112.616 93.6649 112.174 94.2617 111.527 94.4628C111.061 94.6076 110.752 94.8285 110.308 94.9842C110.612 95.0906 110.978 95.1666 111.5 95.1666C112.786 95.1666 113.127 94.7067 113.911 94.4628C114.558 94.2617 115 93.6649 115 92.9877C115 92.1349 114.309 91.4435 113.456 91.4435Z" fill="#95D6A4"/>
<path d="M66.1538 25H29V65.3399H66.1538V25Z" fill="#E6E6E6"/>
<path d="M46.6922 32.7204C40.6373 32.7204 35.728 37.6186 35.728 43.6608C35.728 49.7024 40.6373 54.6005 46.6922 54.6005V43.6608H57.6565C57.6565 37.6185 52.7478 32.7204 46.6922 32.7204Z" fill="#F2D59C"/>
<path d="M46.6923 32.7204C46.3878 32.7204 46.0865 32.7333 45.7883 32.7577C51.4209 33.2164 55.8485 37.9224 55.8485 43.6608H57.6565C57.6565 37.6185 52.7479 32.7204 46.6923 32.7204Z" fill="#ECC372"/>
<path d="M59.7283 43.6621H57.6572C57.6572 37.62 52.7486 32.7218 46.693 32.7218C40.638 32.7218 35.7288 37.6199 35.7288 43.6621C35.7288 49.7037 40.638 54.6019 46.693 54.6019V56.6656C46.693 57.031 46.3891 57.3251 46.0249 57.3076C38.7735 56.96 33.0007 50.9833 33.0007 43.6621C33.0007 36.1167 39.1313 30 46.693 30C54.0302 30 60.0192 35.7581 60.3691 42.9925C60.3868 43.3575 60.0931 43.6621 59.7283 43.6621Z" fill="#C6855B"/>
<path d="M59.7283 43.6621H57.6572C57.6572 37.62 52.7486 32.7218 46.693 32.7218C40.638 32.7218 35.7288 37.6199 35.7288 43.6621C35.7288 49.7037 40.638 54.6019 46.693 54.6019V56.6656C46.693 57.031 46.3891 57.3251 46.0249 57.3076C38.7735 56.96 33.0007 50.9833 33.0007 43.6621C33.0007 36.1167 39.1313 30 46.693 30C54.0302 30 60.0192 35.7581 60.3691 42.9925C60.3868 43.3575 60.0931 43.6621 59.7283 43.6621Z" fill="#C6855B"/>
<path d="M59.7283 43.6621H57.6572C57.6572 37.62 52.7486 32.7218 46.693 32.7218C40.638 32.7218 35.7288 37.6199 35.7288 43.6621C35.7288 49.7037 40.638 54.6019 46.693 54.6019V56.6656C46.693 57.031 46.3891 57.3251 46.0249 57.3076C38.7735 56.96 33.0007 50.9833 33.0007 43.6621C33.0007 36.1167 39.1313 30 46.693 30C54.0302 30 60.0192 35.7581 60.3691 42.9925C60.3868 43.3575 60.0931 43.6621 59.7283 43.6621Z" fill="#C6855B"/>
<path d="M46.6922 30C46.3888 30 46.0879 30.0109 45.7893 30.0304C52.7081 30.481 58.2249 36.0581 58.5603 42.9925C58.5779 43.3575 58.2843 43.6621 57.9195 43.6621H59.7275C60.0922 43.6621 60.3859 43.3575 60.3683 42.9925C60.0184 35.7581 54.0295 30 46.6922 30Z" fill="#C17E4E"/>
<path d="M47.1443 32.7304C46.9943 32.7243 46.8437 32.7204 46.6923 32.7204C46.5408 32.7204 46.3902 32.7243 46.2402 32.7304V43.6608H46.6923H47.1443V32.7304Z" fill="#ECC372"/>
<path d="M47.1443 30.0082C46.9941 30.0033 46.8436 30 46.6923 30C46.5409 30 46.3904 30.0033 46.2402 30.0082V32.7317C46.3902 32.7256 46.5408 32.7217 46.6923 32.7217C46.8437 32.7217 46.9943 32.7256 47.1443 32.7317V30.0082H47.1443Z" fill="#C17E4E"/>
<path d="M53.7946 41.8625C54.3612 41.8625 54.8205 41.4024 54.8205 40.8347C54.8205 40.2671 54.3612 39.8069 53.7946 39.8069C53.2281 39.8069 52.7688 40.2671 52.7688 40.8347C52.7688 41.4024 53.2281 41.8625 53.7946 41.8625Z" fill="#E17F85"/>
<path d="M43.5776 41.7307C44.1441 41.7307 44.6034 41.2705 44.6034 40.7029C44.6034 40.1352 44.1441 39.675 43.5776 39.675C43.011 39.675 42.5518 40.1352 42.5518 40.7029C42.5518 41.2705 43.011 41.7307 43.5776 41.7307Z" fill="#E17F85"/>
<path d="M43.0766 47.5816C43.6432 47.5816 44.1024 47.1214 44.1024 46.5538C44.1024 45.9861 43.6432 45.5259 43.0766 45.5259C42.5101 45.5259 42.0508 45.9861 42.0508 46.5538C42.0508 47.1214 42.5101 47.5816 43.0766 47.5816Z" fill="#E17F85"/>
<path d="M44.0053 51.8421C44.5719 51.8421 45.0312 51.3819 45.0312 50.8143C45.0312 50.2466 44.5719 49.7864 44.0053 49.7864C43.4388 49.7864 42.9795 50.2466 42.9795 50.8143C42.9795 51.3819 43.4388 51.8421 44.0053 51.8421Z" fill="#E17F85"/>
<path d="M37.9686 37.1357C37.9425 37.1357 37.9166 37.1366 37.8908 37.1377C37.2856 37.9491 36.791 38.8472 36.428 39.8096C36.7356 40.3424 37.3101 40.7011 37.9687 40.7011C38.9513 40.7011 39.7479 39.9029 39.7479 38.9184C39.7478 37.9339 38.9512 37.1357 37.9686 37.1357Z" fill="#E17F85"/>
<path d="M37.9687 37.1357C37.9427 37.1357 37.9168 37.1366 37.8909 37.1377C37.7886 37.2749 37.6907 37.4154 37.5949 37.5574C37.9804 37.8844 38.2255 38.3726 38.2255 38.9184C38.2255 39.6296 37.8098 40.2433 37.2085 40.5295C37.4391 40.639 37.6965 40.7011 37.9687 40.7011C38.9514 40.7011 39.7479 39.903 39.7479 38.9185C39.7479 37.9339 38.9514 37.1357 37.9687 37.1357Z" fill="#DE646E"/>
<path d="M43.5776 37.3248C44.1441 37.3248 44.6034 36.8646 44.6034 36.297C44.6034 35.7293 44.1441 35.2692 43.5776 35.2692C43.011 35.2692 42.5518 35.7293 42.5518 36.297C42.5518 36.8646 43.011 37.3248 43.5776 37.3248Z" fill="#E17F85"/>
<path d="M49.4448 41.7297C50.0113 41.7297 50.4706 41.2695 50.4706 40.7019C50.4706 40.1342 50.0113 39.6741 49.4448 39.6741C48.8782 39.6741 48.4189 40.1342 48.4189 40.7019C48.4189 41.2695 48.8782 41.7297 49.4448 41.7297Z" fill="#E17F85"/>
<path d="M51.6054 36.5481C52.5153 36.5481 53.2544 35.8177 53.2718 34.9102C52.489 34.3234 51.625 33.8386 50.6994 33.4758C50.2414 33.7735 49.9382 34.29 49.9382 34.8777C49.9382 35.8002 50.6846 36.5481 51.6054 36.5481Z" fill="#E17F85"/>
<path d="M52.7753 36.0673C53.0748 35.7714 53.2631 35.3628 53.2718 34.9102C53.2717 34.9101 53.2717 34.91 53.2716 34.91C52.8694 34.6088 52.4472 34.3355 52.0075 34.092C51.5855 33.8583 51.1487 33.6521 50.6994 33.4758C50.4716 33.6239 50.2822 33.8262 50.1492 34.0644C51.1243 34.5979 52.0092 35.275 52.7753 36.0673Z" fill="#DE646E"/>
<path d="M38.088 47.1028C37.4743 47.1028 36.9212 47.3611 36.5298 47.7745C37.0646 49.0889 37.8478 50.2759 38.8217 51.2778C39.6466 50.9774 40.2359 50.185 40.2359 49.2547C40.2359 48.0663 39.2742 47.1028 38.088 47.1028Z" fill="#E17F85"/>
<path d="M38.0881 47.1028C37.7748 47.1028 37.4775 47.1704 37.2092 47.2913C37.957 47.6279 38.4782 48.3801 38.4782 49.2548C38.4782 49.7035 38.3408 50.1199 38.1062 50.4647C38.3314 50.7474 38.5701 51.0189 38.8217 51.2778C39.6467 50.9774 40.2359 50.1851 40.2359 49.2548C40.2359 48.0663 39.2742 47.1028 38.0881 47.1028Z" fill="#DE646E"/>
<path d="M62.9527 46.8065C62.714 53.9859 56.9239 59.7625 49.7282 59.9996C49.476 60.0079 49.2681 59.8027 49.2681 59.5499V57.2903L50.1721 47.8917C50.1721 47.5369 50.4591 47.2493 50.8133 47.2493L60.2375 46.3453H62.504C62.7563 46.3453 62.961 46.5537 62.9527 46.8065Z" fill="#C6855B"/>
<path d="M62.5038 46.3448H60.6958C60.9482 46.3448 61.1529 46.5532 61.1445 46.8059C60.9225 53.4855 55.8948 58.9498 49.4009 59.8694C49.4846 59.9529 49.6006 60.0032 49.7281 59.9991C56.9238 59.762 62.7139 53.9854 62.9525 46.806C62.961 46.5532 62.7562 46.3448 62.5038 46.3448Z" fill="#C17E4E"/>
<path d="M60.2375 46.3453C60.2375 52.3903 55.3265 57.2904 49.2681 57.2904V46.9877C49.2681 46.6329 49.5551 46.3453 49.9092 46.3453H60.2375V46.3453Z" fill="#F2D59C"/>
<path d="M59.0206 46.3453C58.5481 51.5347 54.4464 55.6773 49.2681 56.2255V57.2903C55.3265 57.2903 60.2375 52.3902 60.2375 46.3453H59.0206V46.3453Z" fill="#ECC372"/>
<path d="M56.7548 50.5528C57.3214 50.5528 57.7807 50.0926 57.7807 49.525C57.7807 48.9573 57.3214 48.4971 56.7548 48.4971C56.1883 48.4971 55.729 48.9573 55.729 49.525C55.729 50.0926 56.1883 50.5528 56.7548 50.5528Z" fill="#E17F85"/>
<path d="M52.3242 50.3863C52.8907 50.3863 53.35 49.9261 53.35 49.3584C53.35 48.7908 52.8907 48.3306 52.3242 48.3306C51.7576 48.3306 51.2983 48.7908 51.2983 49.3584C51.2983 49.9261 51.7576 50.3863 52.3242 50.3863Z" fill="#E17F85"/>
<path d="M53.7487 53.1761C52.6446 53.1761 51.7495 54.0729 51.7495 55.1791C51.7495 55.8388 52.0679 56.4238 52.559 56.7888C53.7165 56.426 54.791 55.8767 55.7477 55.1766C55.7464 54.0716 54.8519 53.1761 53.7487 53.1761Z" fill="#E17F85"/>
<path d="M53.7488 53.1771C53.4334 53.1771 53.1352 53.2505 52.8699 53.3809C52.8765 53.3842 52.8832 53.3875 52.8897 53.3908C53.8813 53.8918 53.9063 55.3073 52.941 55.8572C52.664 56.015 52.3793 56.1612 52.0879 56.2949C52.2157 56.4856 52.3753 56.6532 52.5592 56.7898C53.7167 56.4271 54.7912 55.8777 55.7479 55.1776C55.7465 54.0725 54.852 53.1771 53.7488 53.1771Z" fill="#DE646E"/>
<path d="M35.738 43.2105C35.732 43.3605 35.728 43.511 35.728 43.6625C35.728 43.8139 35.732 43.9645 35.7381 44.1145H46.6922V43.6625V43.2105H35.738Z" fill="#ECC372"/>
<path d="M33.0083 44.1145H35.7381C35.732 43.9645 35.728 43.8139 35.728 43.6625C35.728 43.511 35.732 43.3604 35.7381 43.2105H33.0083C33.0033 43.3606 33 43.5112 33 43.6625C33 43.8138 33.0033 43.9644 33.0083 44.1145Z" fill="#C17E4E"/>
<path d="M172.154 25H135V65.3399H172.154V25Z" fill="#E6E6E6"/>
<path d="M167.757 42.7491H140.232V55.9533H167.757V42.7491Z" fill="#FDCA74"/>
<path d="M167.756 43.9808H140.261V45.761H167.756V43.9808Z" fill="#E6B25B"/>
<path d="M167.756 50.5731H140.261V52.3533H167.756V50.5731Z" fill="#E6B25B"/>
<path d="M159.624 33.6555C158.511 33.3403 157.321 33.4427 156.275 33.937C156.275 33.937 140.791 41.1741 139.752 41.6136C139.301 41.8046 138.987 42.2572 139 42.7814C139.018 43.4536 139.589 43.9798 140.262 43.9798H165.882C166.406 43.9798 166.831 44.4049 166.831 44.9293V47.1694C166.831 47.6937 166.406 48.1188 165.881 48.1188H140.232C139.551 48.1189 139 48.6703 139 49.3505C139 50.0306 139.551 50.582 140.232 50.582H165.881C166.406 50.582 166.831 51.0071 166.831 51.5314V53.7715C166.831 54.2959 166.406 54.721 165.881 54.721H140.232C139.551 54.721 139 55.2724 139 55.9525C139 56.6327 139.551 57.184 140.232 57.184H167.185C168.188 57.184 169 56.3716 169 55.3693V43.98C169 37.1875 162.818 34.5598 159.624 33.6555Z" fill="#A8503C"/>
<path d="M159.624 33.6561C159 33.4796 158.353 33.4342 157.72 33.5152C157.954 33.5449 158.187 33.5911 158.417 33.6561C161.611 34.5605 167.793 37.1881 167.793 43.9806V55.3699C167.793 56.3722 166.98 57.1846 165.978 57.1846H167.185C168.187 57.1846 169 56.3722 169 55.3699V43.9806C169 37.1881 162.818 34.5605 159.624 33.6561Z" fill="#993E29"/>
<path d="M155.672 38.9623C155.644 38.9623 155.616 38.9597 155.587 38.9543C155.342 38.9078 155.18 38.6711 155.227 38.4256C155.23 38.4063 155.415 37.3873 155.239 36.2876C155.018 34.9031 154.345 34.0329 153.239 33.7011C153 33.6293 152.864 33.3769 152.936 33.1374C153.008 32.8979 153.26 32.762 153.499 32.8339C154.953 33.27 155.865 34.4236 156.137 36.1697C156.332 37.426 156.125 38.5466 156.116 38.5937C156.075 38.8108 155.885 38.9623 155.672 38.9623Z" fill="#DE4B51"/>
<path d="M155.671 40.782C156.926 40.782 157.944 39.7646 157.944 38.5096C157.944 37.2546 156.926 36.2372 155.671 36.2372C154.416 36.2372 153.399 37.2546 153.399 38.5096C153.399 39.7646 154.416 40.782 155.671 40.782Z" fill="#F9545B"/>
<path d="M172.154 73H135V113.34H172.154V73Z" fill="#E6E6E6"/>
<g clip-path="url(#clip2)">
<path d="M167.659 89.4511C166.523 87.1806 165.259 84.6929 163.649 82.7561C162.374 81.2226 160.579 80.4739 158.794 80.522H158.794C157.01 80.4739 155.215 81.2226 153.94 82.7561C152.329 84.6929 151.065 87.1806 149.93 89.4511C148.794 91.7243 148.03 94.3753 149.106 96.8408C150.198 99.3431 152.897 100.043 155.305 100.043H162.284C164.692 100.043 167.391 99.3431 168.483 96.8408C169.559 94.3753 168.795 91.7243 167.659 89.4511Z" fill="#FEF1DA"/>
<path d="M168.483 96.8411C167.713 98.6046 166.145 99.4732 164.444 99.8319C165.546 99.3432 166.485 98.5454 167.027 97.3025C168.103 94.837 167.339 92.1863 166.203 89.9128C165.067 87.6426 163.804 85.1546 162.193 83.2178C160.918 81.6845 159.123 80.9356 157.339 80.9837H157.338C156.926 80.9727 156.513 81.0043 156.106 81.0785C156.907 80.7065 157.769 80.5202 158.633 80.5202C158.687 80.5202 158.741 80.5205 158.794 80.5221C160.579 80.4742 162.374 81.2227 163.649 82.7564C165.259 84.693 166.523 87.1807 167.659 89.4514C168.795 91.7249 169.559 94.3756 168.483 96.8411Z" fill="#FDE6BF"/>
<path d="M163.836 91.8192V99.9381C163.317 100.011 162.794 100.043 162.283 100.043H155.305C154.795 100.043 154.271 100.011 153.753 99.9381V91.8192C153.753 90.8753 154.518 90.1104 155.462 90.1104H162.127C163.07 90.1104 163.836 90.8753 163.836 91.8192Z" fill="#554E56"/>
<path d="M163.836 91.8192V99.9379C163.408 99.999 162.977 100.031 162.553 100.04V93.0252C162.553 92.0815 161.788 91.3168 160.844 91.3168H154.179C154.054 91.3168 153.933 91.3301 153.817 91.3559C154.019 90.6373 154.678 90.1106 155.462 90.1106H162.127C163.07 90.1106 163.836 90.8753 163.836 91.8192Z" fill="#433F43"/>
<path d="M158.07 94.8785C156.935 92.608 155.671 90.1203 154.06 88.1835C152.785 86.65 150.99 85.9013 149.206 85.9494H149.206C147.421 85.9013 145.626 86.65 144.351 88.1835C142.741 90.1203 141.477 92.608 140.342 94.8785C139.205 97.1518 138.441 99.8027 139.517 102.268C140.61 104.771 143.308 105.47 145.717 105.47H152.695C155.103 105.47 157.802 104.771 158.894 102.268C159.97 99.8027 159.207 97.1518 158.07 94.8785Z" fill="#FEF1DA"/>
<path d="M158.894 102.268C158.124 104.032 156.556 104.901 154.855 105.259C155.957 104.771 156.896 103.973 157.438 102.73C158.514 100.264 157.751 97.6137 156.614 95.3402C155.479 93.0699 154.215 90.582 152.604 88.6452C151.329 87.1119 149.534 86.363 147.75 86.4111H147.75C147.338 86.3999 146.924 86.4314 146.517 86.5056C147.318 86.1339 148.181 85.9474 149.045 85.9474C149.098 85.9474 149.152 85.9478 149.206 85.9494C150.99 85.9016 152.785 86.65 154.06 88.1838C155.671 90.1203 156.935 92.6078 158.07 94.8786C159.207 97.1523 159.97 99.803 158.894 102.268Z" fill="#FDE6BF"/>
<path d="M154.247 97.2467V105.365C153.729 105.439 153.205 105.47 152.695 105.47H145.717C145.206 105.47 144.683 105.439 144.164 105.365V97.2467C144.164 96.3025 144.929 95.5378 145.873 95.5378H152.539C153.482 95.5378 154.247 96.3025 154.247 97.2467Z" fill="#554E56"/>
<path d="M154.247 97.2466V105.365C153.82 105.426 153.389 105.458 152.965 105.467V98.4526C152.965 97.5089 152.199 96.7442 151.256 96.7442H144.59C144.466 96.7442 144.345 96.7575 144.228 96.7834C144.43 96.0647 145.09 95.538 145.873 95.538H152.538C153.482 95.538 154.247 96.3027 154.247 97.2466Z" fill="#433F43"/>
</g>
<path d="M66.1538 73H29V113.34H66.1538V73Z" fill="#E6E6E6"/>
<g clip-path="url(#clip3)">
<path d="M47.9998 78.6464C56.1056 78.6464 62.6765 85.2174 62.6765 93.3231C62.6765 101.429 56.1056 108 47.9998 108C39.8941 108 33.3232 101.429 33.3232 93.3232C33.3232 85.2174 39.8941 78.6464 47.9998 78.6464ZM47.9998 98.4386C50.825 98.4386 53.1152 96.1483 53.1152 93.3232C53.1152 90.498 50.825 88.2078 47.9998 88.2078C45.1747 88.2078 42.8844 90.498 42.8844 93.3232C42.8844 96.1483 45.1747 98.4386 47.9998 98.4386Z" fill="#FDCA74"/>
<path d="M60.8657 93.3241C60.8657 85.5226 54.7783 79.1439 47.0944 78.6761C47.394 78.6578 47.6957 78.6475 47.9998 78.6475C56.1056 78.6474 62.6765 85.2183 62.6765 93.3241C62.6765 101.43 56.1056 108.001 47.9998 108.001C47.6957 108.001 47.394 107.99 47.0944 107.972C54.7783 107.504 60.8657 101.126 60.8657 93.3241Z" fill="#E6B25B"/>
<path d="M59.2174 90.7044C59.3502 90.7044 59.4818 90.6462 59.5712 90.5344L60.3471 89.5646C60.5033 89.3693 60.4716 89.0845 60.2764 88.9283C60.0812 88.7721 59.7963 88.8038 59.6401 88.9989L58.8642 89.9688C58.708 90.1641 58.7397 90.4489 58.9348 90.6051C59.0184 90.6719 59.1182 90.7044 59.2174 90.7044Z" fill="#FA9EB0"/>
<path d="M41.7565 102.178C41.8893 102.178 42.0209 102.12 42.1103 102.008L42.8861 101.039C43.0423 100.843 43.0106 100.558 42.8155 100.402C42.6202 100.246 42.3354 100.278 42.1791 100.473L41.4033 101.443C41.2471 101.638 41.2788 101.923 41.474 102.079C41.5575 102.146 41.6574 102.178 41.7565 102.178Z" fill="#A8503C"/>
<path d="M35.7152 93.8084C35.848 93.8084 35.9796 93.7503 36.069 93.6385L36.8449 92.6686C37.0011 92.4734 36.9694 92.1885 36.7742 92.0323C36.579 91.8761 36.2941 91.9078 36.1379 92.103L35.362 93.0729C35.2058 93.2681 35.2375 93.553 35.4327 93.7092C35.5162 93.7759 35.6161 93.8084 35.7152 93.8084Z" fill="#FA9EB0"/>
<path d="M37.6269 101.119C37.6723 101.119 37.7185 101.112 37.764 101.097C38.0023 101.022 38.1341 100.767 38.0585 100.529L37.6826 99.3452C37.607 99.1069 37.3524 98.9751 37.1141 99.0507C36.8758 99.1264 36.744 99.3809 36.8196 99.6192L37.1955 100.803C37.2567 100.996 37.4349 101.119 37.6269 101.119Z" fill="#A8503C"/>
<path d="M57.4501 94.5328C57.5656 94.5328 57.681 94.4889 57.7694 94.4011C57.9467 94.2248 57.9474 93.9381 57.7711 93.7608L56.8952 92.8803C56.7189 92.703 56.4322 92.7023 56.255 92.8785C56.0778 93.0548 56.0769 93.3415 56.2533 93.5188L57.1292 94.3993C57.2175 94.4883 57.3338 94.5328 57.4501 94.5328Z" fill="#FB8D4B"/>
<path d="M46.1837 105.443C46.2992 105.443 46.4146 105.399 46.503 105.311C46.6803 105.135 46.6811 104.848 46.5047 104.671L45.6289 103.791C45.4526 103.613 45.1659 103.613 44.9887 103.789C44.8114 103.965 44.8106 104.252 44.9869 104.429L45.8627 105.31C45.9512 105.399 46.0675 105.443 46.1837 105.443Z" fill="#FA9EB0"/>
<path d="M39.7075 96.7323C39.8734 96.7323 40.0332 96.6408 40.1126 96.4823C40.2246 96.2588 40.1342 95.9867 39.9106 95.8748L38.8002 95.3184C38.5766 95.2065 38.3047 95.2969 38.1927 95.5204C38.0807 95.7439 38.1711 96.016 38.3946 96.128L39.505 96.6843C39.5701 96.7169 39.6394 96.7323 39.7075 96.7323Z" fill="#FB8D4B"/>
<path d="M40.1393 91.0319C40.2182 91.0319 40.2981 91.0113 40.3708 90.9679C40.5855 90.8397 40.6556 90.5618 40.5275 90.3471L39.891 89.2807C39.7629 89.0661 39.485 88.9958 39.2703 89.124C39.0556 89.2521 38.9854 89.5301 39.1136 89.7447L39.7501 90.8112C39.8347 90.9531 39.985 91.0319 40.1393 91.0319Z" fill="#A8503C"/>
<path d="M58.0989 98.2476C58.1543 98.2476 58.2105 98.2374 58.2651 98.2158L59.4203 97.7596C59.6528 97.6678 59.7668 97.4048 59.675 97.1722C59.5832 96.9397 59.3202 96.8257 59.0877 96.9175L57.9325 97.3737C57.6999 97.4655 57.5859 97.7285 57.6777 97.9611C57.748 98.139 57.9186 98.2476 58.0989 98.2476Z" fill="#A8503C"/>
<path d="M50.0863 103.575C50.1974 103.575 50.3087 103.534 50.3961 103.452L51.3015 102.602C51.4838 102.431 51.4928 102.144 51.3216 101.962C51.1504 101.78 50.8639 101.771 50.6817 101.942L49.7763 102.792C49.594 102.963 49.585 103.25 49.7562 103.432C49.8452 103.527 49.9656 103.575 50.0863 103.575Z" fill="#FB8D4B"/>
<path d="M55.2806 100.536C55.5274 100.536 55.7294 100.338 55.7331 100.09C55.7369 99.8403 55.5372 99.6346 55.2873 99.6308L54.0454 99.6122C53.798 99.6095 53.5897 99.8081 53.5859 100.058C53.5821 100.308 53.7818 100.514 54.0318 100.518L55.2735 100.536C55.2759 100.536 55.2783 100.536 55.2806 100.536Z" fill="#FA9EB0"/>
<path d="M48.0266 77.9997C43.9236 77.9926 40.0651 79.5873 37.1646 82.4877C36.5339 83.1185 35.7579 84.1907 35.1462 85.0944C34.6617 85.8103 35.476 86.7025 36.2261 86.2729C36.2325 86.2692 36.2388 86.2655 36.2452 86.2618C37.283 85.6571 38.5658 85.6571 39.6037 86.2618C40.6415 86.8665 41.9243 86.8665 42.9622 86.2618C44 85.6571 45.2828 85.6571 46.3207 86.2618C46.8396 86.5641 47.4198 86.7154 48 86.7154C48.5801 86.7154 49.1603 86.5642 49.6793 86.2618C50.7171 85.6571 51.9999 85.6571 53.0377 86.2618C54.0755 86.8665 55.3583 86.8665 56.3962 86.2618C57.434 85.6571 58.7168 85.6571 59.7547 86.2618C59.761 86.2655 59.7674 86.2692 59.7738 86.2729C60.5239 86.7025 61.3382 85.8103 60.8537 85.0944C60.2419 84.1906 59.466 83.1184 58.8353 82.4877C55.9345 79.5873 52.0761 77.9927 47.9731 77.9997H48.0266Z" fill="#FA9EB0"/>
<path d="M48.0266 78.0009C48.0177 78.0009 48.0088 78.0011 47.9998 78.0011C47.9908 78.0011 47.982 78.0008 47.9731 78.0009C47.973 78.0009 48.0266 78.0009 48.0266 78.0009Z" fill="#ED6883"/>
<path d="M59.7545 86.2634C59.6288 86.1901 59.4993 86.1259 59.3673 86.0703C58.6848 85.0799 57.8766 83.9893 57.2062 83.319C54.2273 80.3401 50.3952 78.5247 46.2611 78.099C46.8344 78.0347 47.4145 78.0013 47.9998 78.0013C52.0927 78.0013 55.9407 79.5949 58.835 82.489C59.4658 83.1198 60.2418 84.192 60.8535 85.0958C61.338 85.8117 60.5237 86.7039 59.7735 86.2743C59.7672 86.2707 59.7609 86.267 59.7545 86.2634Z" fill="#ED6883"/>
<path d="M52.986 83.6211C53.236 83.6211 53.4387 83.4184 53.4387 83.1684V82.2659C53.4387 82.0159 53.236 81.8132 52.986 81.8132C52.736 81.8132 52.5333 82.0159 52.5333 82.2659V83.1683C52.5333 83.4183 52.736 83.6211 52.986 83.6211Z" fill="#3B484A"/>
<path d="M43.0139 83.6211C43.2639 83.6211 43.4666 83.4184 43.4666 83.1684V82.2659C43.4666 82.0159 43.2639 81.8132 43.0139 81.8132C42.7638 81.8132 42.5612 82.0159 42.5612 82.2659V83.1683C42.5611 83.4183 42.7638 83.6211 43.0139 83.6211Z" fill="#3B484A"/>
<path d="M47.9999 84.1029C48.6102 84.1029 49.1831 83.8481 49.5715 83.4036C49.736 83.2154 49.7168 82.9294 49.5286 82.7649C49.3403 82.6004 49.0543 82.6195 48.8898 82.8077C48.6734 83.0554 48.349 83.1974 48 83.1974C47.651 83.1974 47.3267 83.0554 47.1102 82.8077C46.9457 82.6195 46.6597 82.6003 46.4715 82.7649C46.2832 82.9294 46.264 83.2154 46.4286 83.4036C46.8169 83.8481 47.3897 84.1029 47.9999 84.1029Z" fill="#3B484A"/>
</g>
<path d="M191.571 191.6L166.438 196.749L165.865 196.69L143.778 194.459V166.448L170.816 161.873L190.429 164.162L190.436 164.286V164.345L191.571 191.6Z" fill="#E6E6E6"/>
<path opacity="0.1" d="M191.571 191.6L166.438 196.749L165.865 196.69V167.974L190.436 164.286L191.571 191.6Z" fill="black"/>
<path opacity="0.05" d="M190.436 164.345L190.429 164.352L165.865 167.974L143.778 166.448L170.816 161.873L190.429 164.162L190.436 164.286V164.345Z" fill="black"/>
<path d="M162.1 177.222L146.819 176.224L146.351 183.402L161.632 184.4L162.1 177.222Z" fill="white"/>
<path d="M158.361 179.328L150.253 178.799L150.09 181.295L158.198 181.825L158.361 179.328Z" fill="#80D8FF"/>
<path d="M225.635 191.6L200.502 196.749L199.929 196.69L177.842 194.459V166.448L204.88 161.873L224.493 164.162L224.5 164.286V164.345L225.635 191.6Z" fill="#80D8FF"/>
<path opacity="0.1" d="M225.634 191.6L200.502 196.749L199.929 196.69V167.974L224.5 164.286L225.634 191.6Z" fill="black"/>
<path opacity="0.05" d="M224.5 164.345L224.493 164.352L199.929 167.974L177.842 166.448L204.88 161.873L224.493 164.162L224.5 164.286V164.345Z" fill="black"/>
<path d="M196.164 177.222L180.883 176.224L180.415 183.402L195.696 184.4L196.164 177.222Z" fill="white"/>
<path d="M192.425 179.328L184.317 178.799L184.154 181.295L192.262 181.825L192.425 179.328Z" fill="#80D8FF"/>
<path d="M243.821 51.799C243.821 51.799 248.255 63.2636 240.126 63.2636C231.996 63.2636 252.69 74.7281 260.82 68.0713C268.949 61.4144 264.145 61.0446 264.145 61.0446C264.145 61.0446 253.429 62.1541 253.798 52.5387L243.821 51.799Z" fill="#FFB8B8"/>
<path d="M249.598 55.2498C256.816 55.2498 262.667 49.394 262.667 42.1705C262.667 34.947 256.816 29.0911 249.598 29.0911C242.38 29.0911 236.529 34.947 236.529 42.1705C236.529 49.394 242.38 55.2498 249.598 55.2498Z" fill="#2F2E41"/>
<path d="M241.604 99.506L227.562 135.749C227.562 135.749 220.54 146.843 223.127 157.938C225.714 169.033 232.822 189.225 232.822 189.225C232.822 189.225 238.192 190.593 237.823 185.785C237.453 180.977 238.053 157.669 232.51 151.382L254.907 125.763L255.646 154.98C255.646 154.98 254.168 168.293 254.538 174.21C254.907 180.128 255.646 190.113 255.646 190.113L260.081 189.373C260.081 189.373 266.063 162.134 265.324 153.258C265.324 153.258 279.054 110.132 265.011 99.7767L241.604 99.506Z" fill="#2F2E41"/>
<path d="M234.366 189.166C234.366 189.166 232.558 188.705 232.349 190.365C232.141 192.024 228.338 199.404 232.309 199.774C236.279 200.143 237.653 196.426 238.318 193.812C238.983 191.199 239.235 191.049 239.79 190.548C240.345 190.047 241.667 187.304 240.008 187.095C238.35 186.887 237.5 185.255 237.5 185.255C237.5 185.255 236.977 189.831 234.366 189.166Z" fill="#2F2E41"/>
<path d="M258.541 187.882C258.541 187.882 255.188 187.402 255.427 188.601C255.667 189.799 254.948 194.833 255.427 195.312C255.906 195.792 256.864 196.751 256.864 197.47C256.864 198.189 257.104 200.586 261.176 199.867C265.247 199.148 264.289 195.552 264.05 195.073C263.81 194.593 260.936 192.196 261.176 190.758C261.415 189.32 259.978 186.923 258.541 187.882Z" fill="#2F2E41"/>
<path d="M249.759 56.6846C254.758 56.6846 258.811 52.6286 258.811 47.6253C258.811 42.622 254.758 38.566 249.759 38.566C244.76 38.566 240.707 42.622 240.707 47.6253C240.707 52.6286 244.76 56.6846 249.759 56.6846Z" fill="#FFB8B8"/>
<path d="M258.418 60.1204C258.418 60.1204 261.575 66.3721 252.059 66.5494C249.133 66.6038 245.654 64.4701 244.217 61.9187C243.371 60.4156 243.157 62.4915 241.789 62.3394C239.198 62.0512 236.43 63.127 233.953 64.4453C233.633 64.6152 233.382 64.8911 233.242 65.2257C233.103 65.5603 233.084 65.9329 233.189 66.2799C235.068 72.5175 240.432 102.522 241.26 104.156C243.375 108.328 266.262 101.341 266.262 101.341C266.575 89.9901 262.458 74.1091 269.699 62.5593C268.106 61.3615 266.273 60.5233 264.326 60.1022C262.378 59.6812 260.363 59.6874 258.418 60.1204Z" fill="#D0CDE1"/>
<path d="M258.224 40.6594L251.592 37.1828L242.433 38.6049L240.538 46.9809L245.255 46.7991L246.573 43.7219V46.7485L248.75 46.6647L250.013 41.7656L250.803 46.9809L258.54 46.8226L258.224 40.6594Z" fill="#2F2E41"/>
<path d="M250.286 32.5335C253.198 32.5335 255.559 30.1706 255.559 27.2558C255.559 24.3411 253.198 21.9782 250.286 21.9782C247.373 21.9782 245.012 24.3411 245.012 27.2558C245.012 30.1706 247.373 32.5335 250.286 32.5335Z" fill="#2F2E41"/>
<path d="M243.636 25.6492C243.636 24.3886 244.087 23.1697 244.907 22.2128C245.727 21.256 246.862 20.6244 248.107 20.4323C247.356 20.3173 246.589 20.3661 245.858 20.5754C245.128 20.7847 244.451 21.1496 243.874 21.645C243.298 22.1405 242.835 22.7548 242.518 23.446C242.2 24.1371 242.036 24.8887 242.036 25.6492C242.036 26.4098 242.2 27.1614 242.518 27.8525C242.835 28.5436 243.298 29.1579 243.874 29.6534C244.451 30.1489 245.128 30.5137 245.858 30.7231C246.589 30.9324 247.356 30.9812 248.107 30.8661C246.862 30.674 245.727 30.0425 244.907 29.0856C244.087 28.1288 243.636 26.9098 243.636 25.6492Z" fill="#2F2E41"/>
<path d="M274.074 151.255L248.941 156.403L248.368 156.345L226.282 154.114V126.103L253.319 121.528L272.932 123.817L272.939 123.941V124L274.074 151.255Z" fill="#E6E6E6"/>
<path opacity="0.1" d="M274.074 151.255L248.941 156.403L248.368 156.345V127.629L272.939 123.941L274.074 151.255Z" fill="black"/>
<path opacity="0.05" d="M272.939 124L272.932 124.007L248.368 127.629L226.282 126.103L253.319 121.528L272.932 123.817L272.939 123.941V124Z" fill="black"/>
<path d="M244.603 136.877L229.323 135.879L228.854 143.057L244.135 144.055L244.603 136.877Z" fill="white"/>
<path d="M240.864 138.983L232.756 138.453L232.594 140.95L240.702 141.48L240.864 138.983Z" fill="#80D8FF"/>
<path d="M234.923 118.908C234.923 118.908 225.684 126.305 229.749 128.894C233.814 131.482 238.618 118.908 238.618 118.908H234.923Z" fill="#FFB8B8"/>
<path d="M235.323 64.1228C234.844 63.5831 228.801 66.6673 229.697 70.6907L230.119 98.5681C230.119 98.5681 227.902 121.497 233.445 121.497C238.988 121.497 238.334 122.268 239.073 120.419C239.812 118.57 240.01 102.905 240.01 102.905L235.323 64.1228Z" fill="#D0CDE1"/>
<path d="M263.903 116.406C263.903 116.406 268.707 128.981 272.772 126.392C276.837 123.803 267.599 116.406 267.599 116.406H263.903Z" fill="#FFB8B8"/>
<path d="M265.011 100.715C265.011 100.715 262.709 116.068 263.449 117.917C264.188 119.766 263.534 118.995 269.077 118.995C274.62 118.995 272.402 96.0661 272.402 96.0661L272.824 68.1887C273.72 64.1653 267.677 61.0811 267.199 61.6208L261.886 79.7607L265.011 100.715Z" fill="#D0CDE1"/>
</g>
<defs>
<clipPath id="clip0">
<rect width="274.074" height="200" fill="white"/>
</clipPath>
<clipPath id="clip1">
<rect width="30" height="30" fill="white" transform="matrix(-1 0 0 1 116 30)"/>
</clipPath>
<clipPath id="clip2">
<rect width="30" height="30" fill="white" transform="translate(139 78)"/>
</clipPath>
<clipPath id="clip3">
<rect width="30" height="30" fill="white" transform="matrix(-1 0 0 1 63 78)"/>
</clipPath>
</defs>
</svg>
