<svg width="329" height="200" viewBox="0 0 329 200" fill="none" xmlns="http://www.w3.org/2000/svg">
<g clip-path="url(#clip0)">
<path d="M205.225 35.125C210.027 35.125 213.921 31.2389 213.921 26.4451C213.921 21.6514 210.027 17.7653 205.225 17.7653C200.422 17.7653 196.529 21.6514 196.529 26.4451C196.529 31.2389 200.422 35.125 205.225 35.125Z" stroke="#3F3D56" stroke-miterlimit="10"/>
<path d="M222.949 10.1209L220.847 8.0113C220.744 7.90615 220.621 7.8224 220.485 7.76489C220.35 7.70738 220.204 7.67725 220.056 7.67624C219.909 7.67522 219.763 7.70334 219.627 7.75897C219.49 7.8146 219.366 7.89665 219.262 8.00037L206.063 21.0642L200.482 15.4497C200.38 15.3458 200.258 15.2631 200.123 15.2063C199.988 15.1495 199.844 15.1197 199.698 15.1187C199.551 15.1177 199.406 15.1454 199.271 15.2003C199.136 15.2552 199.012 15.3363 198.908 15.4387L196.784 17.5373C196.573 17.7464 196.454 18.0299 196.452 18.3262C196.45 18.6225 196.565 18.9076 196.773 19.1195L205.249 27.6456C205.458 27.8556 205.742 27.9745 206.039 27.9766C206.336 27.9787 206.622 27.8637 206.834 27.6566L222.938 11.7031C223.044 11.6002 223.127 11.4776 223.185 11.3422C223.243 11.2068 223.273 11.0614 223.274 10.9143C223.275 10.7672 223.247 10.6214 223.191 10.4852C223.135 10.349 223.053 10.2252 222.949 10.1209Z" fill="#80D8FF"/>
<path d="M148.82 22.1055H8.85519C3.9646 22.1055 0 26.0628 0 30.9443V31.2051C0 36.0866 3.9646 40.0438 8.85519 40.0438H148.82C153.711 40.0438 157.675 36.0866 157.675 31.2051V30.9443C157.675 26.0628 153.711 22.1055 148.82 22.1055Z" fill="#F2F2F2"/>
<path d="M149.018 53.2079H9.05245C4.16187 53.2079 0.197266 57.1651 0.197266 62.0466V62.3074C0.197266 67.1889 4.16187 71.1462 9.05245 71.1462H149.018C153.908 71.1462 157.873 67.1889 157.873 62.3074V62.0466C157.873 57.1651 153.908 53.2079 149.018 53.2079Z" fill="#F2F2F2"/>
<path d="M149.214 84.3109H9.24923C4.35864 84.3109 0.394043 88.2682 0.394043 93.1497V93.4105C0.394043 98.292 4.35864 102.249 9.24923 102.249H149.214C154.105 102.249 158.069 98.292 158.069 93.4105V93.1497C158.069 88.2682 154.105 84.3109 149.214 84.3109Z" fill="#F2F2F2"/>
<path d="M149.412 115.414H9.44649C4.55591 115.414 0.591309 119.371 0.591309 124.252V124.513C0.591309 129.395 4.55591 133.352 9.44649 133.352H149.412C154.302 133.352 158.267 129.395 158.267 124.513V124.252C158.267 119.371 154.302 115.414 149.412 115.414Z" fill="#F2F2F2"/>
<path d="M153.748 17.476H13.7827C8.89209 17.476 4.92749 21.4332 4.92749 26.3147V26.5755C4.92749 31.457 8.89209 35.4142 13.7827 35.4142H153.748C158.638 35.4142 162.603 31.457 162.603 26.5755V26.3147C162.603 21.4332 158.638 17.476 153.748 17.476Z" stroke="#3F3D56" stroke-miterlimit="10"/>
<path d="M153.945 48.579H13.9799C9.08936 48.579 5.12476 52.5362 5.12476 57.4177V57.6785C5.12476 62.56 9.08936 66.5173 13.9799 66.5173H153.945C158.836 66.5173 162.8 62.56 162.8 57.6785V57.4177C162.8 52.5362 158.836 48.579 153.945 48.579Z" stroke="#3F3D56" stroke-miterlimit="10"/>
<path d="M154.142 79.6816H14.1772C9.28662 79.6816 5.32202 83.6388 5.32202 88.5203V88.7811C5.32202 93.6626 9.28662 97.6199 14.1772 97.6199H154.142C159.033 97.6199 162.997 93.6626 162.997 88.7811V88.5203C162.997 83.6388 159.033 79.6816 154.142 79.6816Z" stroke="#3F3D56" stroke-miterlimit="10"/>
<path d="M154.339 110.784H14.3742C9.48364 110.784 5.51904 114.742 5.51904 119.623V119.884C5.51904 124.765 9.48364 128.723 14.3742 128.723H154.339C159.23 128.723 163.194 124.765 163.194 119.884V119.623C163.194 114.742 159.23 110.784 154.339 110.784Z" stroke="#3F3D56" stroke-miterlimit="10"/>
<path d="M205.225 66.3726C210.027 66.3726 213.921 62.4865 213.921 57.6928C213.921 52.899 210.027 49.0129 205.225 49.0129C200.422 49.0129 196.529 52.899 196.529 57.6928C196.529 62.4865 200.422 66.3726 205.225 66.3726Z" stroke="#3F3D56" stroke-miterlimit="10"/>
<path d="M205.225 97.6198C210.027 97.6198 213.921 93.7337 213.921 88.94C213.921 84.1463 210.027 80.2602 205.225 80.2602C200.422 80.2602 196.529 84.1463 196.529 88.94C196.529 93.7337 200.422 97.6198 205.225 97.6198Z" stroke="#3F3D56" stroke-miterlimit="10"/>
<path d="M205.225 128.867C210.027 128.867 213.921 124.981 213.921 120.187C213.921 115.394 210.027 111.508 205.225 111.508C200.422 111.508 196.529 115.394 196.529 120.187C196.529 124.981 200.422 128.867 205.225 128.867Z" stroke="#3F3D56" stroke-miterlimit="10"/>
<path d="M222.949 41.6578L220.847 39.5482C220.744 39.443 220.621 39.3593 220.485 39.3018C220.35 39.2443 220.204 39.2141 220.056 39.2131C219.909 39.2121 219.763 39.2402 219.627 39.2958C219.49 39.3515 219.366 39.4335 219.262 39.5372L206.063 52.6011L200.482 46.9866C200.38 46.8827 200.258 46.8 200.123 46.7432C199.988 46.6864 199.844 46.6566 199.698 46.6556C199.551 46.6546 199.406 46.6823 199.271 46.7372C199.136 46.7921 199.012 46.8731 198.908 46.9756L196.784 49.0742C196.573 49.2832 196.454 49.5667 196.452 49.863C196.45 50.1593 196.565 50.4444 196.773 50.6564L205.249 59.1825C205.458 59.3924 205.742 59.5114 206.039 59.5135C206.336 59.5155 206.622 59.4005 206.834 59.1935L222.938 43.24C223.044 43.1371 223.127 43.0144 223.185 42.8791C223.243 42.7437 223.273 42.5982 223.274 42.4512C223.275 42.3041 223.247 42.1582 223.191 42.0221C223.135 41.8859 223.053 41.7621 222.949 41.6578Z" fill="#80D8FF"/>
<path d="M222.949 104.732L220.847 102.622C220.744 102.517 220.621 102.433 220.485 102.376C220.35 102.318 220.204 102.288 220.056 102.287C219.909 102.286 219.763 102.314 219.627 102.37C219.49 102.425 219.366 102.507 219.262 102.611L206.063 115.675L200.482 110.061C200.38 109.957 200.258 109.874 200.123 109.817C199.988 109.76 199.844 109.731 199.698 109.73C199.551 109.729 199.406 109.756 199.271 109.811C199.136 109.866 199.012 109.947 198.908 110.05L196.784 112.148C196.573 112.357 196.454 112.641 196.452 112.937C196.45 113.233 196.565 113.518 196.773 113.73L205.249 122.256C205.458 122.466 205.742 122.585 206.039 122.587C206.336 122.589 206.622 122.474 206.834 122.267L222.938 106.314C223.044 106.211 223.127 106.088 223.185 105.953C223.243 105.818 223.273 105.672 223.274 105.525C223.275 105.378 223.247 105.232 223.191 105.096C223.135 104.96 223.053 104.836 222.949 104.732Z" fill="#80D8FF"/>
<path d="M279.807 200C309.215 200 333.055 196.292 333.055 191.717C333.055 187.143 309.215 183.434 279.807 183.434C250.399 183.434 226.559 187.143 226.559 191.717C226.559 196.292 250.399 200 279.807 200Z" fill="#F2F2F2"/>
<path d="M288.451 196.894C317.859 196.894 341.699 193.186 341.699 188.611C341.699 184.036 317.859 180.328 288.451 180.328C259.043 180.328 235.203 184.036 235.203 188.611C235.203 193.186 259.043 196.894 288.451 196.894Z" stroke="#3F3D56" stroke-miterlimit="10"/>
<path d="M314.596 37.9182C314.442 37.7433 314.284 37.5732 314.121 37.4078C315.369 35.9944 316.661 34.5451 316.65 32.7286C316.636 30.5212 314.674 28.8275 313.941 26.7408C312.943 23.9007 314.327 20.8583 314.897 17.9064C315.34 15.5082 315.247 13.0419 314.624 10.6836C314.002 8.32535 312.866 6.13327 311.297 4.26385C310.721 3.58389 310.051 2.92623 309.193 2.65634C307.888 2.24564 306.5 2.81624 305.14 2.98386C300.651 3.5372 296.566 -0.323703 292.056 0.0219396C291.757 0.0327786 291.463 0.0985526 291.187 0.215962C290.604 0.494575 290.287 1.10935 289.927 1.63929C288.526 3.69701 286.173 4.71971 283.832 5.77665C283.538 5.86293 283.258 5.99113 283 6.1573C282.297 6.48402 281.605 6.82464 280.952 7.21051C276.532 9.8216 277.173 13.4749 279.779 15.7315C279.27 18.2647 276.675 20.4954 277.122 23.0999C277.473 25.1416 279.603 26.5312 280.013 28.5621C280.252 29.7416 279.876 30.8657 279.355 31.9814C274.409 33.1238 268.822 35.2278 268.386 38.9406C267.628 45.3999 265.344 63.2394 265.344 63.2394C265.344 63.2394 262.699 77.5328 272.75 70.7759L272.621 71.1562C270.81 76.6294 269.574 82.2758 268.932 88.0042C268.83 88.8563 268.626 89.5278 268.254 89.7471C268.119 89.8266 268.386 89.9526 268.966 90.1102C268.901 90.3506 268.83 90.5896 268.767 90.8308C267.663 95.0082 266.957 99.2807 266.659 103.591C266.376 107.409 265.849 111.205 265.08 114.955C262.699 126.91 265.08 142.243 265.08 142.243L270.275 166.656L271.163 170.83C271.75 171.478 272.468 171.994 273.269 172.346C273.617 173.842 273.858 175.36 273.991 176.89C274.005 177.06 274.016 177.233 274.027 177.405C273.716 177.445 273.417 177.551 273.151 177.717C272.885 177.883 272.658 178.104 272.486 178.366C270.634 180.965 272.75 183.044 265.609 188.242C263.764 189.584 262.874 190.805 262.648 191.842V191.842C262.405 192.959 262.933 193.862 263.875 194.473L263.877 194.475C264.037 194.578 264.204 194.671 264.377 194.754L264.385 194.757C264.472 194.799 264.561 194.839 264.653 194.876L264.654 194.877C264.746 194.914 264.84 194.95 264.936 194.983L264.953 194.989C265.043 195.02 265.135 195.049 265.229 195.077L265.249 195.083C265.346 195.111 265.445 195.137 265.546 195.161C265.554 195.163 265.563 195.164 265.571 195.166C265.663 195.188 265.757 195.208 265.851 195.226C265.863 195.228 265.876 195.231 265.888 195.233C265.989 195.252 266.091 195.269 266.194 195.283C266.206 195.285 266.217 195.286 266.228 195.288C266.321 195.3 266.414 195.311 266.508 195.321C266.526 195.323 266.543 195.324 266.561 195.326C266.665 195.336 266.768 195.343 266.873 195.349C266.886 195.35 266.9 195.35 266.913 195.351C267.006 195.355 267.099 195.358 267.192 195.359C267.214 195.359 267.236 195.36 267.258 195.36C267.362 195.36 267.467 195.359 267.572 195.355C267.586 195.355 267.6 195.354 267.614 195.353C267.707 195.35 267.8 195.344 267.893 195.337C267.918 195.336 267.942 195.334 267.967 195.332C268.072 195.323 268.177 195.313 268.282 195.3C268.294 195.298 268.307 195.296 268.319 195.295C268.413 195.283 268.507 195.269 268.601 195.254C268.627 195.249 268.653 195.245 268.679 195.24C268.784 195.222 268.888 195.203 268.991 195.18C269.001 195.178 269.011 195.175 269.021 195.173C269.116 195.152 269.211 195.129 269.305 195.105C269.331 195.098 269.358 195.091 269.384 195.084C269.487 195.056 269.589 195.026 269.691 194.994L269.708 194.988C269.804 194.957 269.9 194.923 269.995 194.888C270.021 194.879 270.046 194.869 270.072 194.859C270.172 194.821 270.272 194.781 270.37 194.739C275.131 192.66 284.918 187.202 284.918 187.202L284.917 187.152L284.917 187.119L284.917 187.071L284.917 187.028L284.916 186.952L284.915 186.884C284.915 186.857 284.915 186.83 284.915 186.8L284.913 186.721C284.913 186.684 284.913 186.649 284.912 186.609C284.912 186.582 284.911 186.552 284.911 186.524C284.91 186.482 284.909 186.442 284.908 186.397C284.907 186.325 284.906 186.249 284.904 186.17C284.855 183.899 284.631 178.682 283.595 178.886C283.242 178.955 283.002 179.45 282.755 180.02C282.715 179.945 282.674 179.868 282.632 179.788C281.624 177.847 280.166 174.516 280.024 171.261C280.837 170.673 281.59 170.006 282.272 169.27C282.272 169.27 281.741 167.035 281.289 164.678C280.897 162.636 280.564 160.499 280.685 159.655C280.95 157.836 277.511 143.802 277.511 143.802C277.511 143.802 277.866 140.715 278.577 136.424C279.961 128.085 282.685 115.197 286.75 111.554C286.846 111.47 286.938 111.39 287.034 111.317C287.034 111.317 289.943 111.837 292.324 128.209L293.014 135.502C293.212 137.521 293.555 139.524 294.04 141.494C294.75 144.637 294.974 147.869 294.704 151.079C294.403 155.377 294.273 160.437 294.217 163.99C294.175 166.666 294.175 168.491 294.175 168.491C294.667 168.906 295.199 169.272 295.762 169.585V171.97C295.756 172.476 295.557 172.961 295.205 173.325L295.196 173.335C294.821 173.756 294.548 174.258 294.397 174.801C293.936 175.631 293.545 176.978 293.382 179.146C292.853 186.163 292.588 185.383 292.588 185.383C292.284 186.142 292.083 186.937 291.988 187.749V187.749C291.973 187.901 291.964 188.054 291.961 188.207C291.961 188.231 291.961 188.255 291.961 188.279C291.96 188.349 291.962 188.419 291.964 188.489C291.966 188.523 291.968 188.557 291.97 188.591C291.973 188.643 291.978 188.694 291.983 188.746C291.988 188.792 291.994 188.839 292 188.885C292.005 188.918 292.01 188.951 292.015 188.983C292.026 189.046 292.039 189.107 292.053 189.168C292.06 189.195 292.067 189.222 292.074 189.249C292.091 189.312 292.109 189.375 292.13 189.437C292.137 189.456 292.145 189.475 292.152 189.494C292.173 189.55 292.196 189.605 292.221 189.659C292.228 189.676 292.235 189.692 292.243 189.708C292.274 189.771 292.308 189.832 292.345 189.891C292.356 189.908 292.366 189.924 292.376 189.94C292.415 189.999 292.458 190.056 292.503 190.111C292.514 190.124 292.525 190.136 292.536 190.149C292.586 190.206 292.639 190.261 292.695 190.312C292.701 190.317 292.708 190.322 292.714 190.327C292.772 190.378 292.833 190.425 292.897 190.468C292.907 190.475 292.916 190.482 292.926 190.489C292.996 190.535 293.069 190.576 293.144 190.613C293.158 190.621 293.173 190.628 293.188 190.635C293.269 190.673 293.352 190.707 293.437 190.736C293.451 190.741 293.467 190.745 293.481 190.75C293.578 190.782 293.676 190.808 293.775 190.829L293.786 190.831C293.889 190.852 293.999 190.868 294.112 190.881C294.128 190.883 294.143 190.885 294.159 190.886C294.272 190.897 294.391 190.904 294.515 190.906C294.538 190.906 294.561 190.906 294.585 190.906C294.71 190.907 294.841 190.903 294.978 190.894C294.999 190.893 295.021 190.89 295.043 190.889C295.189 190.878 295.339 190.863 295.498 190.84C301.052 190.061 303.697 189.541 303.433 186.422C303.273 184.543 302.826 181.813 302.495 179.942C302.327 178.99 302.019 178.069 301.58 177.208C301.594 177.062 301.607 176.912 301.618 176.757C301.713 175.468 301.708 173.935 301.317 172.909L301.439 170.633C302.817 170.284 304.062 169.539 305.02 168.491C305.02 168.491 305.059 166.804 305.176 164.569C305.35 161.115 305.699 156.349 306.342 154.457C307.4 151.339 306.342 140.424 306.342 140.424C306.342 140.424 302.375 121.712 306.078 113.656C309.345 106.55 309.316 99.4407 306.174 92.5119C306.236 92.463 306.292 92.4073 306.342 92.3459C306.342 92.3459 305.549 91.8261 305.813 85.8489C306.015 81.2871 304.677 76.5773 304.032 74.6009C305.043 75.0333 306.08 75.4049 307.136 75.7136C313.219 77.5328 313.748 70.7759 313.748 70.7759L315.071 60.6406L316.639 45.5331L316.639 45.5325C317.069 44.3472 317.646 41.3869 314.596 37.9182ZM287.707 27.9044C287.699 28.0716 287.688 28.2387 287.671 28.4051C287.622 28.9427 287.508 29.4725 287.332 29.983C287.513 29.2933 287.623 28.5869 287.66 27.8749C287.675 27.8849 287.691 27.8945 287.707 27.9044L287.707 27.9044ZM303.697 64.7986C303.791 64.9702 303.88 65.1373 303.966 65.3014L303.298 64.961C303.546 63.7356 303.946 62.546 304.491 61.4202C305.148 60.1101 305.689 58.745 306.107 57.3405C306.089 58.9635 306.167 60.5862 306.342 62.1998C306.871 66.3579 303.697 64.7986 303.697 64.7986Z" fill="url(#paint0_linear)"/>
<path d="M281.268 8.29594C280.422 8.87145 279.538 9.5367 279.237 10.5131C278.752 12.0878 279.97 13.6688 280.091 15.3119C280.31 18.2998 276.924 20.7691 277.424 23.7232C277.766 25.7481 279.845 27.1261 280.246 29.1402C280.83 32.0777 277.64 34.6681 277.891 37.6523C278.025 39.2419 279.132 40.5919 280.389 41.5771C282.153 42.9551 284.265 43.8199 286.49 44.076C286.342 41.5207 284.443 39.1958 284.769 36.6569C284.993 34.916 286.22 33.4924 286.93 31.8867C288.176 29.0674 287.777 25.8042 287.03 22.8144C286.282 19.8246 285.203 16.869 285.148 13.7879C285.116 11.9334 285.987 9.20729 285.348 7.44751C284.57 5.30818 282.716 7.30994 281.268 8.29594Z" fill="#3F3D56"/>
<path opacity="0.1" d="M281.268 8.36667C280.422 8.94218 279.538 9.60743 279.237 10.5838C278.752 12.1585 279.97 13.7395 280.091 15.3827C280.31 18.3705 276.924 20.8398 277.424 23.794C277.766 25.8188 279.845 27.1968 280.246 29.211C280.83 32.1484 277.64 34.7388 277.891 37.7231C278.025 39.3127 279.132 40.6626 280.389 41.6479C282.153 43.0259 284.265 43.8906 286.49 44.1467C286.342 41.5914 284.443 39.2665 284.769 36.7276C284.993 34.9867 286.22 33.5632 286.93 31.9574C288.176 29.1382 287.777 25.875 287.03 22.8851C286.282 19.8953 285.203 16.9397 285.148 13.8586C285.116 12.0041 285.987 9.27801 285.348 7.51823C284.57 5.37893 282.716 7.38069 281.268 8.36667Z" fill="black"/>
<path d="M283.742 180.798L281.418 183.118C281.418 183.118 273.156 187.499 274.189 181.571C274.471 179.809 274.531 178.019 274.367 176.241C274.153 173.761 273.66 171.313 272.897 168.943L280.644 167.396C279.355 171.437 281.478 176.525 282.802 179.115C283.337 180.159 283.742 180.798 283.742 180.798Z" fill="#FFB9B9"/>
<path d="M301.337 176.11C301.279 176.904 301.181 177.695 301.043 178.479C301.043 178.479 294.587 182.86 294.071 177.963C293.735 174.772 294.494 173.332 295.068 172.716L295.077 172.706C295.421 172.342 295.615 171.862 295.62 171.362V165.592L301.301 167.396L301.043 172.293C301.425 173.311 301.43 174.832 301.337 176.11Z" fill="#FFB9B9"/>
<path opacity="0.05" d="M283.742 180.798L281.419 183.118C281.419 183.118 273.156 187.499 274.189 181.572C274.471 179.809 274.531 178.019 274.367 176.242C276.177 175.976 278.32 177.963 278.32 177.963C281.346 182.226 282.162 180.613 282.803 179.115C283.337 180.159 283.742 180.798 283.742 180.798Z" fill="black"/>
<path d="M278.32 178.479C278.32 178.479 274.705 175.128 272.897 177.706C271.09 180.283 273.156 182.345 266.184 187.499C259.212 192.654 266.184 196.004 270.832 193.943C275.48 191.881 285.033 186.468 285.033 186.468C285.033 186.468 285.033 177.963 283.742 178.221C282.451 178.479 282.709 184.664 278.32 178.479Z" fill="#3F3D56"/>
<path opacity="0.05" d="M301.337 176.11C301.279 176.904 301.181 177.694 301.043 178.478C301.043 178.478 294.587 182.86 294.071 177.963C293.735 174.772 294.494 173.331 295.068 172.715C295.292 172.546 295.558 172.442 295.837 172.413C296.117 172.384 296.399 172.431 296.653 172.55C297.686 172.092 298.822 172.857 299.762 173.847C300.399 174.517 300.93 175.28 301.337 176.11Z" fill="black"/>
<path d="M296.653 173.066C296.653 173.066 293.813 171.52 293.296 178.479C292.78 185.437 292.522 184.664 292.522 184.664C292.522 184.664 289.94 190.85 295.362 190.076C300.784 189.303 303.366 188.788 303.108 185.695C302.953 183.831 302.516 181.124 302.193 179.268C301.885 177.429 301.04 175.722 299.763 174.362C298.821 173.372 297.686 172.608 296.653 173.066Z" fill="#3F3D56"/>
<path d="M305.948 140.077C305.948 140.077 306.981 150.901 305.948 153.994C305.321 155.87 304.98 160.597 304.809 164.023C304.696 166.239 304.657 167.912 304.657 167.912C299.751 173.066 294.07 167.912 294.07 167.912C294.07 167.912 294.07 166.102 294.112 163.448C294.166 159.925 294.293 154.907 294.587 150.644C294.851 147.461 294.632 144.256 293.939 141.139C293.465 139.184 293.13 137.198 292.937 135.195L292.263 127.963C289.939 111.726 287.099 111.211 287.099 111.211C287.006 111.283 286.915 111.363 286.823 111.445C282.854 115.059 280.194 127.84 278.844 136.11C278.149 140.365 277.803 143.427 277.803 143.427C277.803 143.427 281.16 157.345 280.902 159.149C280.783 159.986 281.108 162.105 281.491 164.131C281.932 166.468 282.451 168.685 282.451 168.685C275.996 175.644 271.606 170.231 271.606 170.231L270.739 166.092L265.667 141.881C265.667 141.881 263.343 126.675 265.667 114.819C266.418 111.098 266.933 107.334 267.209 103.549C267.499 99.2757 268.188 95.0392 269.267 90.894C269.582 89.6672 269.931 88.4498 270.315 87.242C270.315 87.242 280.011 85.559 289.141 85.559C295.989 85.559 302.517 86.5048 304.399 89.8193C304.833 90.5821 305.227 91.3467 305.582 92.1131C308.85 99.1259 308.949 106.329 305.69 113.53C302.075 121.52 305.948 140.077 305.948 140.077Z" fill="#3F3D56"/>
<path d="M284.259 46.5204C284.259 46.5204 270.574 32.603 280.902 33.6339C283.244 33.8684 284.83 33.4509 285.881 32.6674C287.079 31.7756 287.582 30.4097 287.722 28.9844C288.006 26.1416 286.841 23.0669 286.841 23.0669C286.841 23.0669 300.785 11.9845 297.944 25.902C297.632 27.3163 297.451 28.7561 297.402 30.2035C297.356 33.1571 298.329 34.2885 299.695 34.7524C301.998 35.5385 305.422 34.438 306.982 36.9844C309.822 41.6235 284.259 46.5204 284.259 46.5204Z" fill="#FFB9B9"/>
<path opacity="0.1" d="M284.259 46.5204C284.259 46.5204 270.574 32.603 280.902 33.6339C283.244 33.8684 284.83 33.4509 285.881 32.6674C287.079 31.7756 287.582 30.4097 287.722 28.9844C288.006 26.1416 286.841 23.0669 286.841 23.0669C286.841 23.0669 300.785 11.9845 297.944 25.902C297.632 27.3163 297.451 28.7561 297.402 30.2035C297.356 33.1571 298.329 34.2885 299.695 34.7524C301.998 35.5385 305.422 34.438 306.982 36.9844C309.822 41.6235 284.259 46.5204 284.259 46.5204Z" fill="black"/>
<path d="M304.916 19.2009C304.914 22.139 303.743 24.9563 301.661 27.0333C299.579 29.1103 296.756 30.2771 293.813 30.2771C290.869 30.2771 288.046 29.1103 285.964 27.0333C283.882 24.9563 282.711 22.139 282.709 19.2009C282.709 18.9947 282.715 18.7885 282.728 18.5849C282.888 15.7035 284.168 12.9983 286.296 11.0445C288.424 9.09075 291.232 8.04252 294.122 8.12276C297.012 8.20299 299.757 9.40535 301.772 11.4742C303.788 13.543 304.916 16.315 304.916 19.2009Z" fill="#FFB9B9"/>
<path opacity="0.05" d="M284.259 46.5201C284.259 46.5201 270.574 32.6026 280.902 33.6335C283.244 33.8681 284.83 33.4505 285.881 32.6671C283.882 35.9763 281.633 41.9273 291.747 41.3655C301.004 40.8526 300.847 37.1696 299.695 34.7521C301.998 35.5382 305.422 34.4377 306.982 36.984C309.822 41.6232 284.259 46.5201 284.259 46.5201Z" fill="black"/>
<path opacity="0.1" d="M305.948 93.1694C303.599 96.2184 273.646 92.221 269.267 90.8937C269.582 89.6669 269.932 88.4495 270.315 87.2416C270.315 87.2416 280.011 85.5587 289.142 85.5587C295.989 85.5587 302.517 86.5045 304.399 89.8189C304.833 90.5818 305.227 91.3464 305.582 92.1127C305.747 93.0354 305.948 93.1694 305.948 93.1694Z" fill="black"/>
<path d="M287.099 31.3143C287.099 31.3143 269.67 32.7319 268.895 39.4328C268.155 45.8388 265.926 63.5307 265.926 63.5307C265.926 63.5307 263.344 77.7058 273.156 71.0049L273.03 71.3821C271.261 76.8142 270.054 82.413 269.429 88.0908C269.329 88.9358 269.129 89.6017 268.766 89.8192C267.475 90.5924 303.366 95.747 305.948 92.3965C305.948 92.3965 305.174 91.881 305.432 85.9532C305.69 80.0254 303.366 73.8399 303.366 73.8399C303.366 73.8399 301.301 67.6544 304.141 61.7266C306.981 55.7987 305.948 53.9946 305.948 53.9946L315.76 46.5204C315.76 46.5204 317.879 42.8946 314.006 38.4189C312.843 37.095 311.429 36.0129 309.847 35.2346C308.264 34.4564 306.544 33.9972 304.783 33.8833L298.015 33.4028C298.015 33.4028 305.432 41.3658 291.489 42.139C277.545 42.9122 287.099 31.3143 287.099 31.3143Z" fill="#D0CDE1"/>
<path opacity="0.05" d="M275.479 45.4897C275.479 45.4897 275.996 49.6134 274.963 50.9021C273.93 52.1907 273.672 58.1185 274.963 61.7268" fill="black"/>
<path opacity="0.1" d="M286.823 111.445C282.854 115.059 280.194 127.84 278.844 136.11C276.964 124.597 284.775 105.541 284.775 105.541L286.823 111.445Z" fill="black"/>
<path opacity="0.1" d="M282.451 168.685C275.996 175.643 271.607 170.231 271.607 170.231L270.739 166.092C273.179 167.357 277.303 168.339 281.491 164.13C281.932 166.468 282.451 168.685 282.451 168.685Z" fill="black"/>
<path opacity="0.1" d="M304.81 164.022C304.696 166.239 304.657 167.912 304.657 167.912C299.751 173.066 294.071 167.912 294.071 167.912C294.071 167.912 294.071 166.102 294.112 163.448C296.242 164.798 300.072 166.285 304.81 164.022Z" fill="black"/>
<path d="M293.032 54.2526H278.067C277.351 54.2526 276.771 54.832 276.771 55.5468V60.1748C276.771 60.8896 277.351 61.469 278.067 61.469H293.032C293.749 61.469 294.329 60.8896 294.329 60.1748V55.5468C294.329 54.832 293.749 54.2526 293.032 54.2526Z" fill="#CDD0DB"/>
<path opacity="0.05" d="M293.032 54.2526H278.067C277.351 54.2526 276.771 54.832 276.771 55.5468V60.1748C276.771 60.8896 277.351 61.469 278.067 61.469H293.032C293.749 61.469 294.329 60.8896 294.329 60.1748V55.5468C294.329 54.832 293.749 54.2526 293.032 54.2526Z" fill="black"/>
<path d="M293.032 54.5102H278.067C277.351 54.5102 276.771 55.0896 276.771 55.8044V60.4324C276.771 61.1472 277.351 61.7266 278.067 61.7266H293.032C293.749 61.7266 294.329 61.1472 294.329 60.4324V55.8044C294.329 55.0896 293.749 54.5102 293.032 54.5102Z" fill="#3F3D56"/>
<path d="M290.585 58.7629C291.012 58.7629 291.359 58.4168 291.359 57.9897C291.359 57.5627 291.012 57.2166 290.585 57.2166C290.157 57.2166 289.81 57.5627 289.81 57.9897C289.81 58.4168 290.157 58.7629 290.585 58.7629Z" fill="#9DA7C0"/>
<path opacity="0.05" d="M269.298 65.6797C269.531 64.9872 269.912 64.3538 270.416 63.8239C270.92 63.294 271.534 62.8805 272.215 62.6123C273.305 62.2087 274.2 61.4063 274.719 60.3678C275.738 58.118 277.545 55.7984 282.193 57.3448C286.841 58.8912 280.902 59.9221 280.902 59.9221C280.902 59.9221 291.488 58.3757 287.357 61.4685C283.226 64.5612 278.062 66.3653 278.062 66.3653L275.519 69.0528C275.154 69.4454 274.711 69.7567 274.217 69.966C273.724 70.1754 273.191 70.2781 272.655 70.2675C272.119 70.2569 271.591 70.1331 271.106 69.9044C270.622 69.6757 270.191 69.3471 269.842 68.9403C269.471 68.4935 269.224 67.9563 269.129 67.3835C269.033 66.8106 269.091 66.2227 269.298 65.6797Z" fill="black"/>
<path d="M269.04 65.1645C269.272 64.4719 269.654 63.8385 270.158 63.3087C270.662 62.7788 271.276 62.3653 271.957 62.0971C273.047 61.6935 273.942 60.8911 274.461 59.8526C275.48 57.6028 277.287 55.2832 281.935 56.8296C286.583 58.376 280.644 59.4069 280.644 59.4069C280.644 59.4069 291.23 57.8605 287.099 60.9533C282.968 64.046 277.803 65.8501 277.803 65.8501L275.261 68.5376C274.896 68.9302 274.453 69.2414 273.959 69.4508C273.466 69.6602 272.933 69.7629 272.397 69.7523C271.861 69.7417 271.333 69.6179 270.848 69.3892C270.364 69.1604 269.933 68.8319 269.584 68.4251C269.213 67.9783 268.966 67.4411 268.871 66.8683C268.775 66.2954 268.833 65.7075 269.04 65.1645Z" fill="#FFB9B9"/>
<path opacity="0.05" d="M305.432 70.4896L303.625 74.871L301.311 73.1725L294.846 68.4277L290.456 65.5927C284.259 60.9535 290.456 60.1803 290.456 60.1803C288.132 59.1494 290.456 58.1185 290.456 58.1185C298.719 56.3144 297.17 63.0154 297.17 63.0154L302.404 65.7241L304.141 66.6236L305.432 70.4896Z" fill="black"/>
<path d="M305.948 69.9739L304.141 74.3553L301.827 72.6568L295.362 67.912L290.972 65.077C284.775 60.4378 290.972 59.6646 290.972 59.6646C288.648 58.6337 290.972 57.6028 290.972 57.6028C299.235 55.7987 297.685 62.4997 297.685 62.4997L302.919 65.2084L304.657 66.1079L305.948 69.9739Z" fill="#FFB9B9"/>
<path opacity="0.05" d="M305.948 69.9736L304.141 74.355L301.827 72.6566C303.921 72.7314 306.395 71.721 302.92 65.2082L304.657 66.1077L305.948 69.9736Z" fill="black"/>
<path d="M315.502 43.9429L316.001 45.9706L314.469 60.9532L313.178 71.0047C313.178 71.0047 312.662 77.7057 306.723 75.9015C300.784 74.0974 300.268 72.2933 300.268 72.2933C300.268 72.2933 308.789 75.1283 303.366 65.0768C303.366 65.0768 306.465 66.6232 305.948 62.4995C305.432 58.3759 305.948 51.1594 305.948 51.1594L315.502 43.9429Z" fill="#D0CDE1"/>
<path opacity="0.05" d="M304.916 19.2009C304.916 21.7143 304.06 24.1531 302.488 26.1171C300.917 28.0812 298.724 29.4539 296.268 30.0101C295.896 28.9379 295.633 27.8709 295.904 26.7859C296.428 24.6802 298.863 23.1441 298.592 20.9921C298.569 20.7498 298.485 20.5174 298.347 20.3168C297.802 19.6003 296.692 19.956 295.808 20.1338C294.658 20.3242 293.477 20.0924 292.484 19.4813C291.491 18.8702 290.753 17.921 290.407 16.8091C289.415 17.7828 288.173 18.464 286.818 18.7773C285.463 19.0907 284.047 19.0241 282.728 18.5849C282.888 15.7035 284.168 12.9983 286.296 11.0445C288.424 9.09075 291.232 8.04252 294.122 8.12276C297.012 8.20299 299.756 9.40535 301.772 11.4742C303.788 13.543 304.916 16.315 304.916 19.2009Z" fill="black"/>
<path d="M290.666 16.2942C291.012 17.4058 291.749 18.3549 292.742 18.9658C293.734 19.5768 294.915 19.8083 296.066 19.6176C296.949 19.4415 298.059 19.0856 298.604 19.8022C298.743 20.0014 298.828 20.2334 298.849 20.4752C299.122 22.6286 296.687 24.1638 296.163 26.2704C295.622 28.4396 297.206 30.5348 297.543 32.7446C297.727 33.9534 297.532 35.1848 297.546 36.4075C297.56 37.6302 297.835 38.9437 298.743 39.7644C299.651 40.5852 301.33 40.5934 301.938 39.5321C304.844 41.0645 303.683 45.8144 305.89 48.2453C307.107 49.5861 309.108 49.9085 310.913 49.7368C311.335 49.7304 311.746 49.598 312.093 49.3564C312.392 49.0626 312.594 48.6845 312.671 48.2729C313.126 46.5525 313.048 44.7346 312.446 43.0597C312.156 42.259 311.741 41.4496 311.848 40.6051C311.98 39.9502 312.29 39.3441 312.744 38.8534C314.131 37.1369 316.024 35.4772 316.011 33.2719C315.997 31.0826 314.082 29.403 313.366 27.3335C312.392 24.517 313.744 21.4997 314.299 18.5723C314.733 16.1977 314.643 13.7573 314.037 11.4208C313.43 9.08425 312.32 6.90772 310.785 5.0425C310.223 4.36816 309.569 3.71594 308.732 3.44827C307.458 3.04097 306.102 3.60686 304.775 3.7731C300.392 4.32185 296.405 0.49288 292.002 0.835662C291.71 0.846483 291.422 0.91175 291.154 1.02809C290.584 1.30439 290.275 1.91408 289.923 2.43965C287.98 5.34009 284.158 6.16659 281.162 7.96476C272.412 13.2162 283.975 22.7224 290.666 16.2942Z" fill="#3F3D56"/>
<path opacity="0.3" d="M270.832 192.911C267.814 194.25 263.819 193.307 263.294 191.07C262.661 194.023 267.385 195.472 270.832 193.942C275.48 191.88 285.033 186.468 285.033 186.468C285.033 186.468 285.033 186.068 285.02 185.445C284.742 185.602 275.41 190.88 270.832 192.911Z" fill="white"/>
<path opacity="0.3" d="M303.095 185.546C302.797 187.865 300.221 188.352 295.362 189.045C292.891 189.397 292.084 188.304 291.936 187.01C291.775 188.667 292.246 190.52 295.362 190.076C300.784 189.303 303.366 188.787 303.108 185.694C303.104 185.646 303.099 185.595 303.095 185.546Z" fill="white"/>
<g opacity="0.1">
<path opacity="0.1" d="M311.945 48.602C310.141 48.7737 308.139 48.4513 306.922 47.1105C304.716 44.6796 305.876 39.9297 302.971 38.3973C302.362 39.4586 300.684 39.4504 299.776 38.6296C298.868 37.8089 298.593 36.4954 298.579 35.2727C298.565 34.05 298.76 32.8186 298.575 31.6098C298.238 29.4 296.655 27.3048 297.195 25.1356C297.72 23.029 300.155 21.4938 299.882 19.3403C299.86 19.0986 299.776 18.8666 299.637 18.6674C299.092 17.9508 297.982 18.3067 297.098 18.4828C295.948 18.6735 294.767 18.442 293.775 17.831C292.782 17.2201 292.045 16.271 291.699 15.1594C285.717 20.9054 275.846 13.9199 280.067 8.62177C273.481 13.9648 284.287 22.3185 290.666 16.1903C291.012 17.3019 291.749 18.251 292.742 18.8619C293.734 19.4729 294.915 19.7044 296.065 19.5137C296.949 19.3376 298.059 18.9817 298.604 19.6983C298.743 19.8975 298.827 20.1295 298.849 20.3713C299.122 22.5247 296.687 24.0599 296.162 26.1665C295.622 28.3357 297.206 30.4309 297.543 32.6407C297.727 33.8495 297.532 35.0809 297.546 36.3036C297.56 37.5263 297.835 38.8398 298.743 39.6605C299.651 40.4813 301.33 40.4896 301.938 39.4282C304.843 40.9607 303.683 45.7106 305.889 48.1414C307.106 49.4822 309.108 49.8046 310.912 49.6329C311.335 49.6265 311.746 49.4941 312.093 49.2525C312.317 49.0485 312.482 48.7878 312.57 48.498C312.365 48.5508 312.156 48.5856 311.945 48.602Z" fill="black"/>
<path opacity="0.1" d="M290.956 1.30441C291.044 1.17205 291.13 1.03438 291.218 0.89801C291.197 0.907132 291.175 0.913614 291.154 0.923778C290.584 1.20008 290.275 1.80977 289.923 2.33534C289.802 2.51611 289.673 2.68907 289.538 2.8542C290.082 2.40777 290.56 1.88588 290.956 1.30441Z" fill="black"/>
</g>
<path opacity="0.1" d="M276.771 73.4029C276.771 73.4029 276.102 75.7225 280.492 76.7534C284.881 77.7843 276.771 73.4029 276.771 73.4029Z" fill="black"/>
<path opacity="0.1" d="M274.849 80.2758C274.849 80.2758 272.608 81.908 278.013 84.7431C283.418 87.5781 274.849 80.2758 274.849 80.2758Z" fill="black"/>
<path opacity="0.1" d="M269.819 107.509C269.819 107.509 275.903 105.791 276.734 103.214C277.566 100.636 269.819 107.509 269.819 107.509Z" fill="black"/>
<path opacity="0.1" d="M269.819 140.155C269.819 140.155 272.44 141.444 274.099 141.272C275.758 141.1 269.819 140.155 269.819 140.155Z" fill="black"/>
<path opacity="0.1" d="M270.739 143.763C270.739 143.763 271.924 144.364 274.099 144.45C276.275 144.536 270.739 143.763 270.739 143.763Z" fill="black"/>
<path d="M315.244 153.65C316.025 153.933 316.862 154.032 317.688 153.937C318.514 153.843 319.307 153.559 320.005 153.106C320.702 152.654 321.284 152.046 321.706 151.331C322.128 150.615 322.377 149.812 322.435 148.984C322.492 148.156 322.357 147.326 322.038 146.559C321.719 145.793 321.227 145.11 320.599 144.566C319.971 144.022 319.225 143.631 318.42 143.423C317.615 143.216 316.772 143.198 315.959 143.371L316.093 146.13L314.786 143.766C313.503 144.367 312.511 145.453 312.03 146.784C311.859 147.251 311.755 147.739 311.721 148.234C311.638 149.396 311.937 150.554 312.573 151.531C313.209 152.508 314.147 153.252 315.244 153.65Z" fill="#57B894"/>
<path d="M321.714 185.643C321.252 183.297 323.252 181.217 325.228 179.866C327.203 178.514 329.511 177.185 330.186 174.891C331.154 171.594 328.269 168.575 326.023 165.971C324.357 164.038 322.926 161.916 321.76 159.647C321.253 158.756 320.908 157.783 320.74 156.772C320.563 155.31 321.034 153.856 321.508 152.462C323.086 147.818 324.774 143.213 326.571 138.647" stroke="#3F3D56" stroke-miterlimit="10"/>
<path d="M315.465 152.939C316.247 153.223 317.083 153.321 317.91 153.227C318.736 153.133 319.529 152.848 320.226 152.396C320.923 151.944 321.506 151.336 321.927 150.62C322.349 149.905 322.598 149.102 322.656 148.274C322.714 147.446 322.578 146.616 322.259 145.849C321.941 145.082 321.448 144.4 320.82 143.856C320.192 143.312 319.446 142.92 318.641 142.713C317.836 142.506 316.993 142.488 316.18 142.661L316.315 145.419L315.007 143.055C313.724 143.657 312.732 144.743 312.251 146.074C312.08 146.54 311.976 147.028 311.942 147.524C311.859 148.686 312.159 149.843 312.794 150.821C313.43 151.798 314.368 152.542 315.465 152.939V152.939Z" stroke="#3F3D56" stroke-miterlimit="10"/>
<path d="M321.057 137.694C321.364 136.849 321.879 136.095 322.554 135.501C323.229 134.908 324.044 134.493 324.922 134.296L325.364 136.918L326.183 134.164C327.321 134.181 328.425 134.558 329.334 135.242C330.243 135.925 330.911 136.879 331.241 137.966C331.572 139.053 331.547 140.217 331.172 141.29C330.797 142.362 330.089 143.288 329.153 143.933C328.216 144.578 327.098 144.909 325.96 144.879C324.822 144.848 323.724 144.458 322.823 143.764C321.922 143.069 321.265 142.107 320.948 141.016C320.631 139.925 320.669 138.762 321.057 137.694Z" fill="#57B894"/>
<path d="M321.352 136.747C321.659 135.902 322.173 135.148 322.849 134.554C323.524 133.961 324.338 133.546 325.217 133.349L325.659 135.971L326.478 133.217C327.616 133.234 328.72 133.611 329.629 134.294C330.538 134.978 331.206 135.932 331.536 137.019C331.867 138.106 331.842 139.27 331.467 140.343C331.092 141.415 330.384 142.341 329.448 142.986C328.511 143.631 327.393 143.962 326.255 143.932C325.117 143.901 324.019 143.511 323.118 142.817C322.217 142.122 321.56 141.16 321.243 140.069C320.926 138.978 320.964 137.815 321.352 136.747V136.747Z" stroke="#3F3D56" stroke-miterlimit="10"/>
<path d="M325.08 166.024C326.319 166.473 327.681 166.45 328.905 165.962C330.129 165.473 331.13 164.551 331.717 163.373C332.305 162.195 332.437 160.842 332.089 159.573C331.742 158.304 330.938 157.206 329.832 156.49L329.202 158.607L328.756 155.953C328.751 155.951 328.747 155.95 328.742 155.948C327.403 155.464 325.927 155.53 324.637 156.132C323.347 156.734 322.349 157.822 321.864 159.159C321.378 160.495 321.444 161.969 322.047 163.256C322.651 164.544 323.741 165.539 325.08 166.024H325.08Z" fill="#57B894"/>
<path d="M325.336 165.065C326.575 165.514 327.937 165.492 329.161 165.003C330.385 164.514 331.386 163.593 331.973 162.414C332.56 161.236 332.693 159.883 332.345 158.614C331.997 157.345 331.194 156.247 330.087 155.531L329.458 157.648L329.011 154.994C329.007 154.992 329.002 154.991 328.997 154.989C328.335 154.749 327.631 154.642 326.927 154.673C326.222 154.705 325.531 154.875 324.892 155.173C324.254 155.471 323.68 155.891 323.204 156.411C322.728 156.93 322.36 157.538 322.119 158.2C321.879 158.861 321.771 159.564 321.803 160.267C321.834 160.97 322.004 161.66 322.303 162.297C322.602 162.935 323.023 163.507 323.544 163.982C324.064 164.457 324.673 164.825 325.336 165.065V165.065Z" stroke="#3F3D56" stroke-miterlimit="10"/>
<path d="M319.49 174.924C319.704 176.134 320.327 177.235 321.257 178.041C322.186 178.846 323.365 179.309 324.595 179.35C325.826 179.392 327.033 179.009 328.015 178.268C328.996 177.526 329.693 176.47 329.987 175.277C330.281 174.083 330.155 172.825 329.631 171.714C329.106 170.602 328.214 169.704 327.105 169.171C325.996 168.638 324.737 168.501 323.539 168.785C322.341 169.068 321.277 169.754 320.525 170.727L322.917 174.321L319.649 172.414C319.395 173.226 319.341 174.087 319.49 174.924Z" fill="#57B894"/>
<path d="M319.711 174.214C319.924 175.425 320.548 176.525 321.477 177.331C322.407 178.137 323.586 178.599 324.816 178.641C326.047 178.682 327.254 178.3 328.236 177.558C329.217 176.816 329.914 175.76 330.208 174.567C330.502 173.374 330.376 172.116 329.851 171.004C329.327 169.892 328.435 168.995 327.326 168.461C326.217 167.928 324.957 167.792 323.76 168.075C322.562 168.358 321.498 169.044 320.746 170.017L323.138 173.611L319.87 171.704C319.616 172.516 319.562 173.377 319.711 174.214V174.214Z" stroke="#3F3D56" stroke-miterlimit="10"/>
<path d="M314.259 188.821C314.259 188.821 318.997 186.968 320.425 185.953C321.853 184.938 327.713 183.726 328.067 185.354C328.422 186.981 335.188 193.449 329.838 193.492C324.489 193.535 317.409 194.368 315.984 193.502C314.559 192.635 314.259 188.821 314.259 188.821Z" fill="#656380"/>
<path opacity="0.2" d="M329.934 192.925C324.585 192.968 317.505 193.801 316.08 192.935C314.994 192.275 314.562 189.907 314.417 188.814C314.317 188.819 314.259 188.821 314.259 188.821C314.259 188.821 314.559 192.635 315.984 193.501C317.409 194.368 324.489 193.535 329.838 193.492C331.383 193.479 331.916 192.931 331.887 192.119C331.672 192.61 331.083 192.916 329.934 192.925Z" fill="black"/>
<path d="M31.218 21.36V30H29.982V24.078C29.982 23.982 29.984 23.878 29.988 23.766C29.996 23.65 30.006 23.534 30.018 23.418L27.24 28.548C27.132 28.76 26.966 28.866 26.742 28.866H26.544C26.316 28.866 26.15 28.76 26.046 28.548L23.226 23.406C23.238 23.522 23.246 23.638 23.25 23.754C23.258 23.87 23.262 23.978 23.262 24.078V30H22.026V21.36H23.076C23.2 21.36 23.296 21.372 23.364 21.396C23.432 21.416 23.494 21.482 23.55 21.594L26.322 26.616C26.382 26.732 26.438 26.852 26.49 26.976C26.546 27.096 26.596 27.22 26.64 27.348C26.688 27.22 26.738 27.094 26.79 26.97C26.846 26.842 26.904 26.72 26.964 26.604L29.694 21.594C29.75 21.482 29.812 21.416 29.88 21.396C29.948 21.372 30.044 21.36 30.168 21.36H31.218ZM35.4828 23.784C35.9348 23.784 36.3428 23.858 36.7068 24.006C37.0748 24.154 37.3868 24.364 37.6428 24.636C37.9028 24.908 38.1028 25.238 38.2428 25.626C38.3828 26.014 38.4528 26.45 38.4528 26.934C38.4528 27.418 38.3828 27.854 38.2428 28.242C38.1028 28.63 37.9028 28.962 37.6428 29.238C37.3868 29.51 37.0748 29.72 36.7068 29.868C36.3428 30.016 35.9348 30.09 35.4828 30.09C35.0268 30.09 34.6148 30.016 34.2468 29.868C33.8828 29.72 33.5708 29.51 33.3108 29.238C33.0508 28.962 32.8508 28.63 32.7108 28.242C32.5708 27.854 32.5008 27.418 32.5008 26.934C32.5008 26.45 32.5708 26.014 32.7108 25.626C32.8508 25.238 33.0508 24.908 33.3108 24.636C33.5708 24.364 33.8828 24.154 34.2468 24.006C34.6148 23.858 35.0268 23.784 35.4828 23.784ZM35.4828 29.082C36.0348 29.082 36.4448 28.898 36.7128 28.53C36.9848 28.158 37.1208 27.628 37.1208 26.94C37.1208 26.252 36.9848 25.722 36.7128 25.35C36.4448 24.974 36.0348 24.786 35.4828 24.786C34.9228 24.786 34.5068 24.974 34.2348 25.35C33.9628 25.722 33.8268 26.252 33.8268 26.94C33.8268 27.628 33.9628 28.158 34.2348 28.53C34.5068 28.898 34.9228 29.082 35.4828 29.082ZM44.0183 25.08C43.9783 25.132 43.9403 25.172 43.9043 25.2C43.8683 25.228 43.8163 25.242 43.7483 25.242C43.6803 25.242 43.6083 25.218 43.5323 25.17C43.4603 25.122 43.3723 25.07 43.2683 25.014C43.1683 24.954 43.0463 24.9 42.9023 24.852C42.7583 24.804 42.5783 24.78 42.3623 24.78C42.0823 24.78 41.8363 24.83 41.6243 24.93C41.4163 25.03 41.2403 25.174 41.0963 25.362C40.9563 25.546 40.8503 25.772 40.7783 26.04C40.7103 26.304 40.6763 26.602 40.6763 26.934C40.6763 27.278 40.7143 27.584 40.7903 27.852C40.8663 28.12 40.9743 28.346 41.1143 28.53C41.2583 28.714 41.4303 28.854 41.6303 28.95C41.8343 29.046 42.0623 29.094 42.3143 29.094C42.5623 29.094 42.7643 29.064 42.9203 29.004C43.0763 28.944 43.2063 28.878 43.3103 28.806C43.4143 28.734 43.5023 28.668 43.5743 28.608C43.6503 28.548 43.7303 28.518 43.8143 28.518C43.9183 28.518 43.9983 28.558 44.0543 28.638L44.4203 29.112C44.2723 29.292 44.1083 29.444 43.9283 29.568C43.7483 29.692 43.5583 29.794 43.3583 29.874C43.1583 29.95 42.9503 30.004 42.7343 30.036C42.5183 30.072 42.3003 30.09 42.0803 30.09C41.7003 30.09 41.3443 30.02 41.0123 29.88C40.6843 29.736 40.3963 29.53 40.1483 29.262C39.9043 28.99 39.7103 28.66 39.5663 28.272C39.4263 27.88 39.3563 27.434 39.3563 26.934C39.3563 26.482 39.4203 26.064 39.5483 25.68C39.6763 25.292 39.8623 24.958 40.1063 24.678C40.3543 24.398 40.6603 24.18 41.0243 24.024C41.3883 23.864 41.8083 23.784 42.2843 23.784C42.7283 23.784 43.1183 23.856 43.4543 24C43.7943 24.144 44.0963 24.348 44.3603 24.612L44.0183 25.08ZM46.7479 24.606C46.9999 24.358 47.2759 24.16 47.5759 24.012C47.8759 23.86 48.2259 23.784 48.6259 23.784C48.9619 23.784 49.2559 23.84 49.5079 23.952C49.7639 24.064 49.9779 24.222 50.1499 24.426C50.3259 24.63 50.4579 24.876 50.5459 25.164C50.6339 25.448 50.6779 25.762 50.6779 26.106V30H49.3939V26.106C49.3939 25.694 49.2979 25.374 49.1059 25.146C48.9179 24.918 48.6299 24.804 48.2419 24.804C47.9539 24.804 47.6859 24.87 47.4379 25.002C47.1939 25.134 46.9639 25.314 46.7479 25.542V30H45.4579V21.12H46.7479V24.606ZM53.5284 23.88V30H52.2384V23.88H53.5284ZM53.7444 22.032C53.7444 22.148 53.7204 22.258 53.6724 22.362C53.6284 22.466 53.5664 22.558 53.4864 22.638C53.4064 22.714 53.3124 22.776 53.2044 22.824C53.1004 22.868 52.9884 22.89 52.8684 22.89C52.7524 22.89 52.6424 22.868 52.5384 22.824C52.4384 22.776 52.3504 22.714 52.2744 22.638C52.1984 22.558 52.1364 22.466 52.0884 22.362C52.0444 22.258 52.0224 22.148 52.0224 22.032C52.0224 21.912 52.0444 21.8 52.0884 21.696C52.1364 21.592 52.1984 21.502 52.2744 21.426C52.3504 21.346 52.4384 21.284 52.5384 21.24C52.6424 21.192 52.7524 21.168 52.8684 21.168C52.9884 21.168 53.1004 21.192 53.2044 21.24C53.3124 21.284 53.4064 21.346 53.4864 21.426C53.5664 21.502 53.6284 21.592 53.6724 21.696C53.7204 21.8 53.7444 21.912 53.7444 22.032ZM61.5216 28.89C61.8376 28.89 62.1036 28.854 62.3196 28.782C62.5396 28.706 62.7176 28.604 62.8536 28.476C62.9936 28.348 63.0936 28.198 63.1536 28.026C63.2176 27.85 63.2496 27.662 63.2496 27.462C63.2496 27.054 63.1096 26.734 62.8296 26.502C62.5536 26.266 62.1156 26.148 61.5156 26.148H59.7816V28.89H61.5216ZM59.7816 22.458V25.158H61.1856C61.7856 25.158 62.2336 25.042 62.5296 24.81C62.8256 24.578 62.9736 24.244 62.9736 23.808C62.9736 23.332 62.8336 22.988 62.5536 22.776C62.2776 22.564 61.8436 22.458 61.2516 22.458H59.7816ZM61.2516 21.36C61.8036 21.36 62.2756 21.414 62.6676 21.522C63.0596 21.626 63.3816 21.776 63.6336 21.972C63.8856 22.168 64.0696 22.408 64.1856 22.692C64.3056 22.972 64.3656 23.288 64.3656 23.64C64.3656 23.844 64.3336 24.042 64.2696 24.234C64.2096 24.422 64.1136 24.6 63.9816 24.768C63.8536 24.932 63.6916 25.08 63.4956 25.212C63.2996 25.344 63.0676 25.454 62.7996 25.542C64.0236 25.802 64.6356 26.452 64.6356 27.492C64.6356 27.86 64.5656 28.198 64.4256 28.506C64.2896 28.81 64.0896 29.074 63.8256 29.298C63.5656 29.518 63.2436 29.69 62.8596 29.814C62.4756 29.938 62.0376 30 61.5456 30H58.3776V21.36H61.2516ZM69.1537 27.324C68.6937 27.34 68.3057 27.378 67.9897 27.438C67.6737 27.494 67.4177 27.568 67.2217 27.66C67.0257 27.748 66.8837 27.854 66.7957 27.978C66.7117 28.102 66.6697 28.238 66.6697 28.386C66.6697 28.53 66.6917 28.654 66.7357 28.758C66.7837 28.858 66.8477 28.942 66.9277 29.01C67.0117 29.074 67.1077 29.122 67.2157 29.154C67.3277 29.182 67.4497 29.196 67.5817 29.196C67.9177 29.196 68.2057 29.134 68.4457 29.01C68.6897 28.882 68.9257 28.698 69.1537 28.458V27.324ZM65.7337 24.732C66.4257 24.088 67.2497 23.766 68.2057 23.766C68.5577 23.766 68.8697 23.824 69.1417 23.94C69.4177 24.052 69.6477 24.212 69.8317 24.42C70.0197 24.628 70.1617 24.876 70.2577 25.164C70.3577 25.448 70.4077 25.764 70.4077 26.112V30H69.8317C69.7077 30 69.6137 29.982 69.5497 29.946C69.4857 29.906 69.4317 29.828 69.3877 29.712L69.2617 29.214C69.1057 29.354 68.9517 29.48 68.7997 29.592C68.6477 29.7 68.4897 29.792 68.3257 29.868C68.1657 29.944 67.9917 30 67.8037 30.036C67.6197 30.076 67.4157 30.096 67.1917 30.096C66.9437 30.096 66.7117 30.062 66.4957 29.994C66.2837 29.926 66.0997 29.824 65.9437 29.688C65.7877 29.548 65.6637 29.376 65.5717 29.172C65.4837 28.968 65.4397 28.728 65.4397 28.452C65.4397 28.216 65.5017 27.986 65.6257 27.762C65.7537 27.538 65.9617 27.338 66.2497 27.162C66.5417 26.982 66.9237 26.834 67.3957 26.718C67.8717 26.602 68.4577 26.536 69.1537 26.52V26.112C69.1537 25.672 69.0597 25.344 68.8717 25.128C68.6837 24.912 68.4077 24.804 68.0437 24.804C67.7957 24.804 67.5877 24.836 67.4197 24.9C67.2517 24.96 67.1057 25.026 66.9817 25.098C66.8577 25.17 66.7477 25.238 66.6517 25.302C66.5557 25.362 66.4537 25.392 66.3457 25.392C66.2577 25.392 66.1817 25.37 66.1177 25.326C66.0577 25.278 66.0077 25.22 65.9677 25.152L65.7337 24.732ZM73.1248 24.69C73.2568 24.554 73.3928 24.432 73.5328 24.324C73.6768 24.212 73.8288 24.116 73.9888 24.036C74.1488 23.956 74.3188 23.894 74.4988 23.85C74.6788 23.806 74.8748 23.784 75.0868 23.784C75.4228 23.784 75.7168 23.84 75.9688 23.952C76.2248 24.064 76.4388 24.222 76.6108 24.426C76.7868 24.63 76.9188 24.876 77.0068 25.164C77.0948 25.448 77.1388 25.762 77.1388 26.106V30H75.8548V26.106C75.8548 25.694 75.7588 25.374 75.5668 25.146C75.3788 24.918 75.0908 24.804 74.7028 24.804C74.4148 24.804 74.1468 24.87 73.8988 25.002C73.6548 25.134 73.4248 25.314 73.2088 25.542V30H71.9188V23.88H72.6988C72.8748 23.88 72.9868 23.962 73.0348 24.126L73.1248 24.69ZM82.5514 25.386C82.3714 25.154 82.1734 24.992 81.9574 24.9C81.7414 24.808 81.5074 24.762 81.2554 24.762C80.7514 24.762 80.3574 24.948 80.0734 25.32C79.7894 25.688 79.6474 26.234 79.6474 26.958C79.6474 27.334 79.6794 27.656 79.7434 27.924C79.8074 28.188 79.8994 28.404 80.0194 28.572C80.1394 28.74 80.2854 28.862 80.4574 28.938C80.6294 29.014 80.8234 29.052 81.0394 29.052C81.3674 29.052 81.6494 28.982 81.8854 28.842C82.1254 28.698 82.3474 28.496 82.5514 28.236V25.386ZM83.8414 21.12V30H83.0614C82.8894 30 82.7794 29.918 82.7314 29.754L82.6174 29.088C82.3614 29.388 82.0694 29.63 81.7414 29.814C81.4174 29.998 81.0394 30.09 80.6074 30.09C80.2634 30.09 79.9514 30.022 79.6714 29.886C79.3914 29.746 79.1514 29.544 78.9514 29.28C78.7514 29.016 78.5954 28.69 78.4834 28.302C78.3754 27.91 78.3214 27.462 78.3214 26.958C78.3214 26.502 78.3814 26.08 78.5014 25.692C78.6254 25.304 78.8014 24.968 79.0294 24.684C79.2574 24.396 79.5334 24.172 79.8574 24.012C80.1854 23.848 80.5514 23.766 80.9554 23.766C81.3154 23.766 81.6214 23.824 81.8734 23.94C82.1254 24.052 82.3514 24.21 82.5514 24.414V21.12H83.8414ZM90.5788 23.88V30H89.7988C89.6268 30 89.5168 29.918 89.4688 29.754L89.3728 29.184C89.2448 29.32 89.1088 29.444 88.9648 29.556C88.8248 29.668 88.6748 29.764 88.5148 29.844C88.3548 29.924 88.1828 29.986 87.9988 30.03C87.8188 30.074 87.6248 30.096 87.4168 30.096C87.0808 30.096 86.7848 30.04 86.5288 29.928C86.2728 29.816 86.0568 29.658 85.8808 29.454C85.7088 29.25 85.5788 29.006 85.4908 28.722C85.4028 28.434 85.3588 28.118 85.3588 27.774V23.88H86.6488V27.774C86.6488 28.186 86.7428 28.506 86.9308 28.734C87.1228 28.962 87.4128 29.076 87.8008 29.076C88.0848 29.076 88.3488 29.012 88.5928 28.884C88.8408 28.752 89.0728 28.572 89.2888 28.344V23.88H90.5788ZM93.3514 24.69C93.4834 24.554 93.6194 24.432 93.7594 24.324C93.9034 24.212 94.0554 24.116 94.2154 24.036C94.3754 23.956 94.5454 23.894 94.7254 23.85C94.9054 23.806 95.1014 23.784 95.3134 23.784C95.6494 23.784 95.9434 23.84 96.1954 23.952C96.4514 24.064 96.6654 24.222 96.8374 24.426C97.0134 24.63 97.1454 24.876 97.2334 25.164C97.3214 25.448 97.3654 25.762 97.3654 26.106V30H96.0814V26.106C96.0814 25.694 95.9854 25.374 95.7934 25.146C95.6054 24.918 95.3174 24.804 94.9294 24.804C94.6414 24.804 94.3734 24.87 94.1254 25.002C93.8814 25.134 93.6514 25.314 93.4354 25.542V30H92.1454V23.88H92.9254C93.1014 23.88 93.2134 23.962 93.2614 24.126L93.3514 24.69ZM101.056 26.886C101.456 26.886 101.756 26.784 101.956 26.58C102.156 26.376 102.256 26.11 102.256 25.782C102.256 25.446 102.156 25.18 101.956 24.984C101.756 24.788 101.456 24.69 101.056 24.69C100.66 24.69 100.36 24.788 100.156 24.984C99.9559 25.18 99.8559 25.446 99.8559 25.782C99.8559 25.942 99.8819 26.09 99.9339 26.226C99.9859 26.362 100.062 26.48 100.162 26.58C100.262 26.676 100.386 26.752 100.534 26.808C100.686 26.86 100.86 26.886 101.056 26.886ZM102.85 30.3C102.85 30.164 102.81 30.056 102.73 29.976C102.654 29.892 102.55 29.828 102.418 29.784C102.286 29.736 102.132 29.702 101.956 29.682C101.78 29.658 101.592 29.642 101.392 29.634C101.196 29.622 100.994 29.612 100.786 29.604C100.582 29.592 100.384 29.572 100.192 29.544C99.9999 29.644 99.8419 29.764 99.7179 29.904C99.5979 30.044 99.5379 30.206 99.5379 30.39C99.5379 30.51 99.5679 30.622 99.6279 30.726C99.6919 30.83 99.7879 30.92 99.9159 30.996C100.048 31.072 100.214 31.132 100.414 31.176C100.618 31.22 100.862 31.242 101.146 31.242C101.714 31.242 102.14 31.154 102.424 30.978C102.708 30.802 102.85 30.576 102.85 30.3ZM104.146 24.102V24.582C104.146 24.742 104.05 24.84 103.858 24.876L103.246 24.978C103.35 25.21 103.402 25.468 103.402 25.752C103.402 26.052 103.342 26.324 103.222 26.568C103.106 26.812 102.944 27.02 102.736 27.192C102.528 27.364 102.28 27.496 101.992 27.588C101.704 27.68 101.392 27.726 101.056 27.726C100.928 27.726 100.802 27.72 100.678 27.708C100.558 27.692 100.44 27.672 100.324 27.648C100.208 27.716 100.122 27.788 100.066 27.864C100.01 27.94 99.9819 28.018 99.9819 28.098C99.9819 28.23 100.04 28.328 100.156 28.392C100.272 28.456 100.424 28.502 100.612 28.53C100.804 28.558 101.022 28.576 101.266 28.584C101.51 28.592 101.758 28.606 102.01 28.626C102.262 28.646 102.51 28.68 102.754 28.728C102.998 28.772 103.214 28.848 103.402 28.956C103.594 29.06 103.748 29.202 103.864 29.382C103.98 29.562 104.038 29.796 104.038 30.084C104.038 30.348 103.972 30.606 103.84 30.858C103.708 31.11 103.516 31.334 103.264 31.53C103.016 31.726 102.712 31.882 102.352 31.998C101.992 32.118 101.582 32.178 101.122 32.178C100.666 32.178 100.268 32.134 99.9279 32.046C99.5919 31.958 99.3099 31.838 99.0819 31.686C98.8579 31.538 98.6899 31.366 98.5779 31.17C98.4699 30.974 98.4159 30.77 98.4159 30.558C98.4159 30.27 98.5059 30.024 98.6859 29.82C98.8699 29.616 99.1179 29.456 99.4299 29.34C99.2619 29.26 99.1259 29.15 99.0219 29.01C98.9219 28.87 98.8719 28.686 98.8719 28.458C98.8719 28.278 98.9379 28.09 99.0699 27.894C99.2019 27.698 99.3999 27.532 99.6639 27.396C99.3599 27.228 99.1199 27.006 98.9439 26.73C98.7679 26.45 98.6799 26.124 98.6799 25.752C98.6799 25.448 98.7379 25.174 98.8539 24.93C98.9739 24.686 99.1399 24.478 99.3519 24.306C99.5639 24.134 99.8139 24.002 100.102 23.91C100.394 23.818 100.712 23.772 101.056 23.772C101.584 23.772 102.044 23.882 102.436 24.102H104.146Z" fill="black"/>
<path d="M25.17 59.89C25.486 59.89 25.752 59.854 25.968 59.782C26.188 59.706 26.366 59.604 26.502 59.476C26.642 59.348 26.742 59.198 26.802 59.026C26.866 58.85 26.898 58.662 26.898 58.462C26.898 58.054 26.758 57.734 26.478 57.502C26.202 57.266 25.764 57.148 25.164 57.148H23.43V59.89H25.17ZM23.43 53.458V56.158H24.834C25.434 56.158 25.882 56.042 26.178 55.81C26.474 55.578 26.622 55.244 26.622 54.808C26.622 54.332 26.482 53.988 26.202 53.776C25.926 53.564 25.492 53.458 24.9 53.458H23.43ZM24.9 52.36C25.452 52.36 25.924 52.414 26.316 52.522C26.708 52.626 27.03 52.776 27.282 52.972C27.534 53.168 27.718 53.408 27.834 53.692C27.954 53.972 28.014 54.288 28.014 54.64C28.014 54.844 27.982 55.042 27.918 55.234C27.858 55.422 27.762 55.6 27.63 55.768C27.502 55.932 27.34 56.08 27.144 56.212C26.948 56.344 26.716 56.454 26.448 56.542C27.672 56.802 28.284 57.452 28.284 58.492C28.284 58.86 28.214 59.198 28.074 59.506C27.938 59.81 27.738 60.074 27.474 60.298C27.214 60.518 26.892 60.69 26.508 60.814C26.124 60.938 25.686 61 25.194 61H22.026V52.36H24.9ZM32.8021 58.324C32.3421 58.34 31.9541 58.378 31.6381 58.438C31.3221 58.494 31.0661 58.568 30.8701 58.66C30.6741 58.748 30.5321 58.854 30.4441 58.978C30.3601 59.102 30.3181 59.238 30.3181 59.386C30.3181 59.53 30.3401 59.654 30.3841 59.758C30.4321 59.858 30.4961 59.942 30.5761 60.01C30.6601 60.074 30.7561 60.122 30.8641 60.154C30.9761 60.182 31.0981 60.196 31.2301 60.196C31.5661 60.196 31.8541 60.134 32.0941 60.01C32.3381 59.882 32.5741 59.698 32.8021 59.458V58.324ZM29.3821 55.732C30.0741 55.088 30.8981 54.766 31.8541 54.766C32.2061 54.766 32.5181 54.824 32.7901 54.94C33.0661 55.052 33.2961 55.212 33.4801 55.42C33.6681 55.628 33.8101 55.876 33.9061 56.164C34.0061 56.448 34.0561 56.764 34.0561 57.112V61H33.4801C33.3561 61 33.2621 60.982 33.1981 60.946C33.1341 60.906 33.0801 60.828 33.0361 60.712L32.9101 60.214C32.7541 60.354 32.6001 60.48 32.4481 60.592C32.2961 60.7 32.1381 60.792 31.9741 60.868C31.8141 60.944 31.6401 61 31.4521 61.036C31.2681 61.076 31.0641 61.096 30.8401 61.096C30.5921 61.096 30.3601 61.062 30.1441 60.994C29.9321 60.926 29.7481 60.824 29.5921 60.688C29.4361 60.548 29.3121 60.376 29.2201 60.172C29.1321 59.968 29.0881 59.728 29.0881 59.452C29.0881 59.216 29.1501 58.986 29.2741 58.762C29.4021 58.538 29.6101 58.338 29.8981 58.162C30.1901 57.982 30.5721 57.834 31.0441 57.718C31.5201 57.602 32.1061 57.536 32.8021 57.52V57.112C32.8021 56.672 32.7081 56.344 32.5201 56.128C32.3321 55.912 32.0561 55.804 31.6921 55.804C31.4441 55.804 31.2361 55.836 31.0681 55.9C30.9001 55.96 30.7541 56.026 30.6301 56.098C30.5061 56.17 30.3961 56.238 30.3001 56.302C30.2041 56.362 30.1021 56.392 29.9941 56.392C29.9061 56.392 29.8301 56.37 29.7661 56.326C29.7061 56.278 29.6561 56.22 29.6161 56.152L29.3821 55.732ZM36.8573 52.12V57.268H37.1333C37.2213 57.268 37.2933 57.256 37.3493 57.232C37.4053 57.208 37.4633 57.158 37.5233 57.082L39.2393 55.12C39.2993 55.04 39.3653 54.98 39.4373 54.94C39.5093 54.9 39.6013 54.88 39.7133 54.88H40.8833L38.8193 57.208C38.6993 57.364 38.5673 57.488 38.4233 57.58C38.5033 57.636 38.5733 57.7 38.6333 57.772C38.6933 57.84 38.7513 57.918 38.8073 58.006L41.0093 61H39.8573C39.7533 61 39.6633 60.984 39.5873 60.952C39.5153 60.916 39.4513 60.852 39.3953 60.76L37.6253 58.36C37.5653 58.268 37.5053 58.21 37.4453 58.186C37.3853 58.158 37.2953 58.144 37.1753 58.144H36.8573V61H35.5673V52.12H36.8573ZM43.1268 59.464C43.3068 59.696 43.5028 59.86 43.7148 59.956C43.9308 60.048 44.1688 60.094 44.4288 60.094C44.9328 60.094 45.3248 59.91 45.6048 59.542C45.8888 59.174 46.0308 58.626 46.0308 57.898C46.0308 57.522 45.9988 57.202 45.9348 56.938C45.8708 56.67 45.7788 56.452 45.6588 56.284C45.5388 56.116 45.3928 55.994 45.2208 55.918C45.0488 55.842 44.8548 55.804 44.6388 55.804C44.3108 55.804 44.0268 55.876 43.7868 56.02C43.5508 56.16 43.3308 56.362 43.1268 56.626V59.464ZM43.0608 55.768C43.3168 55.468 43.6068 55.226 43.9308 55.042C44.2588 54.858 44.6388 54.766 45.0708 54.766C45.4148 54.766 45.7268 54.836 46.0068 54.976C46.2868 55.112 46.5268 55.312 46.7268 55.576C46.9268 55.84 47.0808 56.168 47.1888 56.56C47.3008 56.948 47.3568 57.394 47.3568 57.898C47.3568 58.35 47.2948 58.772 47.1708 59.164C47.0508 59.552 46.8768 59.89 46.6488 60.178C46.4208 60.462 46.1448 60.686 45.8208 60.85C45.4968 61.01 45.1308 61.09 44.7228 61.09C44.3628 61.09 44.0568 61.032 43.8048 60.916C43.5568 60.8 43.3308 60.64 43.1268 60.436V63.034H41.8368V54.88H42.6168C42.7928 54.88 42.9048 54.962 42.9528 55.126L43.0608 55.768ZM49.9542 54.88V61H48.6642V54.88H49.9542ZM50.1702 53.032C50.1702 53.148 50.1462 53.258 50.0982 53.362C50.0542 53.466 49.9922 53.558 49.9122 53.638C49.8322 53.714 49.7382 53.776 49.6302 53.824C49.5262 53.868 49.4142 53.89 49.2942 53.89C49.1782 53.89 49.0682 53.868 48.9642 53.824C48.8642 53.776 48.7762 53.714 48.7002 53.638C48.6242 53.558 48.5622 53.466 48.5142 53.362C48.4702 53.258 48.4482 53.148 48.4482 53.032C48.4482 52.912 48.4702 52.8 48.5142 52.696C48.5622 52.592 48.6242 52.502 48.7002 52.426C48.7762 52.346 48.8642 52.284 48.9642 52.24C49.0682 52.192 49.1782 52.168 49.2942 52.168C49.4142 52.168 49.5262 52.192 49.6302 52.24C49.7382 52.284 49.8322 52.346 49.9122 52.426C49.9922 52.502 50.0542 52.592 50.0982 52.696C50.1462 52.8 50.1702 52.912 50.1702 53.032ZM54.8451 58.324C54.3851 58.34 53.9971 58.378 53.6811 58.438C53.3651 58.494 53.1091 58.568 52.9131 58.66C52.7171 58.748 52.5751 58.854 52.4871 58.978C52.4031 59.102 52.3611 59.238 52.3611 59.386C52.3611 59.53 52.3831 59.654 52.4271 59.758C52.4751 59.858 52.5391 59.942 52.6191 60.01C52.7031 60.074 52.7991 60.122 52.9071 60.154C53.0191 60.182 53.1411 60.196 53.2731 60.196C53.6091 60.196 53.8971 60.134 54.1371 60.01C54.3811 59.882 54.6171 59.698 54.8451 59.458V58.324ZM51.4251 55.732C52.1171 55.088 52.9411 54.766 53.8971 54.766C54.2491 54.766 54.5611 54.824 54.8331 54.94C55.1091 55.052 55.3391 55.212 55.5231 55.42C55.7111 55.628 55.8531 55.876 55.9491 56.164C56.0491 56.448 56.0991 56.764 56.0991 57.112V61H55.5231C55.3991 61 55.3051 60.982 55.2411 60.946C55.1771 60.906 55.1231 60.828 55.0791 60.712L54.9531 60.214C54.7971 60.354 54.6431 60.48 54.4911 60.592C54.3391 60.7 54.1811 60.792 54.0171 60.868C53.8571 60.944 53.6831 61 53.4951 61.036C53.3111 61.076 53.1071 61.096 52.8831 61.096C52.6351 61.096 52.4031 61.062 52.1871 60.994C51.9751 60.926 51.7911 60.824 51.6351 60.688C51.4791 60.548 51.3551 60.376 51.2631 60.172C51.1751 59.968 51.1311 59.728 51.1311 59.452C51.1311 59.216 51.1931 58.986 51.3171 58.762C51.4451 58.538 51.6531 58.338 51.9411 58.162C52.2331 57.982 52.6151 57.834 53.0871 57.718C53.5631 57.602 54.1491 57.536 54.8451 57.52V57.112C54.8451 56.672 54.7511 56.344 54.5631 56.128C54.3751 55.912 54.0991 55.804 53.7351 55.804C53.4871 55.804 53.2791 55.836 53.1111 55.9C52.9431 55.96 52.7971 56.026 52.6731 56.098C52.5491 56.17 52.4391 56.238 52.3431 56.302C52.2471 56.362 52.1451 56.392 52.0371 56.392C51.9491 56.392 51.8731 56.37 51.8091 56.326C51.7491 56.278 51.6991 56.22 51.6591 56.152L51.4251 55.732ZM63.85 57.616V61H62.452V57.616L59.296 52.36H60.526C60.65 52.36 60.748 52.39 60.82 52.45C60.892 52.51 60.952 52.586 61 52.678L62.77 55.774C62.85 55.93 62.922 56.078 62.986 56.218C63.054 56.358 63.114 56.496 63.166 56.632C63.21 56.492 63.264 56.354 63.328 56.218C63.392 56.078 63.464 55.93 63.544 55.774L65.302 52.678C65.342 52.598 65.4 52.526 65.476 52.462C65.552 52.394 65.65 52.36 65.77 52.36H67.006L63.85 57.616ZM69.0687 54.784C69.5207 54.784 69.9287 54.858 70.2927 55.006C70.6607 55.154 70.9727 55.364 71.2287 55.636C71.4887 55.908 71.6887 56.238 71.8287 56.626C71.9687 57.014 72.0387 57.45 72.0387 57.934C72.0387 58.418 71.9687 58.854 71.8287 59.242C71.6887 59.63 71.4887 59.962 71.2287 60.238C70.9727 60.51 70.6607 60.72 70.2927 60.868C69.9287 61.016 69.5207 61.09 69.0687 61.09C68.6127 61.09 68.2007 61.016 67.8327 60.868C67.4687 60.72 67.1567 60.51 66.8967 60.238C66.6367 59.962 66.4367 59.63 66.2967 59.242C66.1567 58.854 66.0867 58.418 66.0867 57.934C66.0867 57.45 66.1567 57.014 66.2967 56.626C66.4367 56.238 66.6367 55.908 66.8967 55.636C67.1567 55.364 67.4687 55.154 67.8327 55.006C68.2007 54.858 68.6127 54.784 69.0687 54.784ZM69.0687 60.082C69.6207 60.082 70.0307 59.898 70.2987 59.53C70.5707 59.158 70.7067 58.628 70.7067 57.94C70.7067 57.252 70.5707 56.722 70.2987 56.35C70.0307 55.974 69.6207 55.786 69.0687 55.786C68.5087 55.786 68.0927 55.974 67.8207 56.35C67.5487 56.722 67.4127 57.252 67.4127 57.94C67.4127 58.628 67.5487 59.158 67.8207 59.53C68.0927 59.898 68.5087 60.082 69.0687 60.082ZM75.4153 57.886C75.8153 57.886 76.1153 57.784 76.3153 57.58C76.5153 57.376 76.6153 57.11 76.6153 56.782C76.6153 56.446 76.5153 56.18 76.3153 55.984C76.1153 55.788 75.8153 55.69 75.4153 55.69C75.0193 55.69 74.7193 55.788 74.5153 55.984C74.3153 56.18 74.2153 56.446 74.2153 56.782C74.2153 56.942 74.2413 57.09 74.2933 57.226C74.3453 57.362 74.4213 57.48 74.5213 57.58C74.6213 57.676 74.7453 57.752 74.8933 57.808C75.0453 57.86 75.2193 57.886 75.4153 57.886ZM77.2093 61.3C77.2093 61.164 77.1693 61.056 77.0893 60.976C77.0133 60.892 76.9093 60.828 76.7773 60.784C76.6453 60.736 76.4913 60.702 76.3153 60.682C76.1393 60.658 75.9513 60.642 75.7513 60.634C75.5553 60.622 75.3533 60.612 75.1453 60.604C74.9413 60.592 74.7433 60.572 74.5513 60.544C74.3593 60.644 74.2013 60.764 74.0773 60.904C73.9573 61.044 73.8973 61.206 73.8973 61.39C73.8973 61.51 73.9273 61.622 73.9873 61.726C74.0513 61.83 74.1473 61.92 74.2753 61.996C74.4073 62.072 74.5733 62.132 74.7733 62.176C74.9773 62.22 75.2213 62.242 75.5053 62.242C76.0733 62.242 76.4993 62.154 76.7833 61.978C77.0673 61.802 77.2093 61.576 77.2093 61.3ZM78.5053 55.102V55.582C78.5053 55.742 78.4093 55.84 78.2173 55.876L77.6053 55.978C77.7093 56.21 77.7613 56.468 77.7613 56.752C77.7613 57.052 77.7013 57.324 77.5813 57.568C77.4653 57.812 77.3033 58.02 77.0953 58.192C76.8873 58.364 76.6393 58.496 76.3513 58.588C76.0633 58.68 75.7513 58.726 75.4153 58.726C75.2873 58.726 75.1613 58.72 75.0373 58.708C74.9173 58.692 74.7993 58.672 74.6833 58.648C74.5673 58.716 74.4813 58.788 74.4253 58.864C74.3693 58.94 74.3413 59.018 74.3413 59.098C74.3413 59.23 74.3993 59.328 74.5153 59.392C74.6313 59.456 74.7833 59.502 74.9713 59.53C75.1633 59.558 75.3813 59.576 75.6253 59.584C75.8693 59.592 76.1173 59.606 76.3693 59.626C76.6213 59.646 76.8693 59.68 77.1133 59.728C77.3573 59.772 77.5733 59.848 77.7613 59.956C77.9533 60.06 78.1073 60.202 78.2233 60.382C78.3393 60.562 78.3973 60.796 78.3973 61.084C78.3973 61.348 78.3313 61.606 78.1993 61.858C78.0673 62.11 77.8753 62.334 77.6233 62.53C77.3753 62.726 77.0713 62.882 76.7113 62.998C76.3513 63.118 75.9413 63.178 75.4813 63.178C75.0253 63.178 74.6273 63.134 74.2873 63.046C73.9513 62.958 73.6693 62.838 73.4413 62.686C73.2173 62.538 73.0493 62.366 72.9373 62.17C72.8293 61.974 72.7753 61.77 72.7753 61.558C72.7753 61.27 72.8653 61.024 73.0453 60.82C73.2293 60.616 73.4773 60.456 73.7893 60.34C73.6213 60.26 73.4853 60.15 73.3813 60.01C73.2813 59.87 73.2313 59.686 73.2313 59.458C73.2313 59.278 73.2973 59.09 73.4293 58.894C73.5613 58.698 73.7593 58.532 74.0233 58.396C73.7193 58.228 73.4793 58.006 73.3033 57.73C73.1273 57.45 73.0393 57.124 73.0393 56.752C73.0393 56.448 73.0973 56.174 73.2133 55.93C73.3333 55.686 73.4993 55.478 73.7113 55.306C73.9233 55.134 74.1733 55.002 74.4613 54.91C74.7533 54.818 75.0713 54.772 75.4153 54.772C75.9433 54.772 76.4033 54.882 76.7953 55.102H78.5053ZM84.9543 54.88L81.5823 62.74C81.5383 62.832 81.4843 62.904 81.4203 62.956C81.3603 63.008 81.2663 63.034 81.1383 63.034H80.1843L81.3123 60.586L78.8163 54.88H79.9383C80.0463 54.88 80.1283 54.906 80.1843 54.958C80.2443 55.006 80.2883 55.064 80.3163 55.132L81.7743 58.606C81.8103 58.706 81.8423 58.806 81.8703 58.906C81.9023 59.002 81.9323 59.102 81.9603 59.206C81.9923 59.102 82.0243 59 82.0563 58.9C82.0883 58.8 82.1243 58.7 82.1643 58.6L83.5623 55.132C83.5903 55.06 83.6363 55 83.7003 54.952C83.7683 54.904 83.8423 54.88 83.9223 54.88H84.9543ZM88.9349 58.324C88.4749 58.34 88.0869 58.378 87.7709 58.438C87.4549 58.494 87.1989 58.568 87.0029 58.66C86.8069 58.748 86.6649 58.854 86.5769 58.978C86.4929 59.102 86.4509 59.238 86.4509 59.386C86.4509 59.53 86.4729 59.654 86.5169 59.758C86.5649 59.858 86.6289 59.942 86.7089 60.01C86.7929 60.074 86.8889 60.122 86.9969 60.154C87.1089 60.182 87.2309 60.196 87.3629 60.196C87.6989 60.196 87.9869 60.134 88.2269 60.01C88.4709 59.882 88.7069 59.698 88.9349 59.458V58.324ZM85.5149 55.732C86.2069 55.088 87.0309 54.766 87.9869 54.766C88.3389 54.766 88.6509 54.824 88.9229 54.94C89.1989 55.052 89.4289 55.212 89.6129 55.42C89.8009 55.628 89.9429 55.876 90.0389 56.164C90.1389 56.448 90.1889 56.764 90.1889 57.112V61H89.6129C89.4889 61 89.3949 60.982 89.3309 60.946C89.2669 60.906 89.2129 60.828 89.1689 60.712L89.0429 60.214C88.8869 60.354 88.7329 60.48 88.5809 60.592C88.4289 60.7 88.2709 60.792 88.1069 60.868C87.9469 60.944 87.7729 61 87.5849 61.036C87.4009 61.076 87.1969 61.096 86.9729 61.096C86.7249 61.096 86.4929 61.062 86.2769 60.994C86.0649 60.926 85.8809 60.824 85.7249 60.688C85.5689 60.548 85.4449 60.376 85.3529 60.172C85.2649 59.968 85.2209 59.728 85.2209 59.452C85.2209 59.216 85.2829 58.986 85.4069 58.762C85.5349 58.538 85.7429 58.338 86.0309 58.162C86.3229 57.982 86.7049 57.834 87.1769 57.718C87.6529 57.602 88.2389 57.536 88.9349 57.52V57.112C88.9349 56.672 88.8409 56.344 88.6529 56.128C88.4649 55.912 88.1889 55.804 87.8249 55.804C87.5769 55.804 87.3689 55.836 87.2009 55.9C87.0329 55.96 86.8869 56.026 86.7629 56.098C86.6389 56.17 86.5289 56.238 86.4329 56.302C86.3369 56.362 86.2349 56.392 86.1269 56.392C86.0389 56.392 85.9629 56.37 85.8989 56.326C85.8389 56.278 85.7889 56.22 85.7489 56.152L85.5149 55.732ZM92.9901 52.12V57.268H93.2661C93.3541 57.268 93.4261 57.256 93.4821 57.232C93.5381 57.208 93.5961 57.158 93.6561 57.082L95.3721 55.12C95.4321 55.04 95.4981 54.98 95.5701 54.94C95.6421 54.9 95.7341 54.88 95.8461 54.88H97.0161L94.9521 57.208C94.8321 57.364 94.7001 57.488 94.5561 57.58C94.6361 57.636 94.7061 57.7 94.7661 57.772C94.8261 57.84 94.8841 57.918 94.9401 58.006L97.1421 61H95.9901C95.8861 61 95.7961 60.984 95.7201 60.952C95.6481 60.916 95.5841 60.852 95.5281 60.76L93.7581 58.36C93.6981 58.268 93.6381 58.21 93.5781 58.186C93.5181 58.158 93.4281 58.144 93.3081 58.144H92.9901V61H91.7001V52.12H92.9901ZM101.24 58.324C100.78 58.34 100.392 58.378 100.076 58.438C99.7596 58.494 99.5036 58.568 99.3076 58.66C99.1116 58.748 98.9696 58.854 98.8816 58.978C98.7976 59.102 98.7556 59.238 98.7556 59.386C98.7556 59.53 98.7776 59.654 98.8216 59.758C98.8696 59.858 98.9336 59.942 99.0136 60.01C99.0976 60.074 99.1936 60.122 99.3016 60.154C99.4136 60.182 99.5356 60.196 99.6676 60.196C100.004 60.196 100.292 60.134 100.532 60.01C100.776 59.882 101.012 59.698 101.24 59.458V58.324ZM97.8196 55.732C98.5116 55.088 99.3356 54.766 100.292 54.766C100.644 54.766 100.956 54.824 101.228 54.94C101.504 55.052 101.734 55.212 101.918 55.42C102.106 55.628 102.248 55.876 102.344 56.164C102.444 56.448 102.494 56.764 102.494 57.112V61H101.918C101.794 61 101.7 60.982 101.636 60.946C101.572 60.906 101.518 60.828 101.474 60.712L101.348 60.214C101.192 60.354 101.038 60.48 100.886 60.592C100.734 60.7 100.576 60.792 100.412 60.868C100.252 60.944 100.078 61 99.8896 61.036C99.7056 61.076 99.5016 61.096 99.2776 61.096C99.0296 61.096 98.7976 61.062 98.5816 60.994C98.3696 60.926 98.1856 60.824 98.0296 60.688C97.8736 60.548 97.7496 60.376 97.6576 60.172C97.5696 59.968 97.5256 59.728 97.5256 59.452C97.5256 59.216 97.5876 58.986 97.7116 58.762C97.8396 58.538 98.0476 58.338 98.3356 58.162C98.6276 57.982 99.0096 57.834 99.4816 57.718C99.9576 57.602 100.544 57.536 101.24 57.52V57.112C101.24 56.672 101.146 56.344 100.958 56.128C100.77 55.912 100.494 55.804 100.13 55.804C99.8816 55.804 99.6736 55.836 99.5056 55.9C99.3376 55.96 99.1916 56.026 99.0676 56.098C98.9436 56.17 98.8336 56.238 98.7376 56.302C98.6416 56.362 98.5396 56.392 98.4316 56.392C98.3436 56.392 98.2676 56.37 98.2036 56.326C98.1436 56.278 98.0936 56.22 98.0536 56.152L97.8196 55.732ZM105.223 56.014C105.415 55.626 105.647 55.322 105.919 55.102C106.191 54.878 106.517 54.766 106.897 54.766C107.029 54.766 107.153 54.782 107.269 54.814C107.385 54.842 107.489 54.886 107.581 54.946L107.491 55.918C107.475 55.986 107.449 56.034 107.413 56.062C107.381 56.086 107.337 56.098 107.281 56.098C107.221 56.098 107.135 56.088 107.023 56.068C106.911 56.044 106.793 56.032 106.669 56.032C106.489 56.032 106.329 56.058 106.189 56.11C106.053 56.162 105.929 56.238 105.817 56.338C105.709 56.438 105.613 56.56 105.529 56.704C105.445 56.848 105.367 57.012 105.295 57.196V61H104.005V54.88H104.755C104.891 54.88 104.985 54.906 105.037 54.958C105.089 55.006 105.125 55.092 105.145 55.216L105.223 56.014ZM110.396 61.096C109.888 61.096 109.496 60.954 109.22 60.67C108.948 60.382 108.812 59.978 108.812 59.458V55.894H108.14C108.068 55.894 108.006 55.872 107.954 55.828C107.902 55.78 107.876 55.71 107.876 55.618V55.096L108.866 54.952L109.148 53.182C109.168 53.114 109.202 53.06 109.25 53.02C109.298 52.976 109.362 52.954 109.442 52.954H110.102V54.964H111.8V55.894H110.102V59.368C110.102 59.588 110.156 59.756 110.264 59.872C110.372 59.988 110.516 60.046 110.696 60.046C110.796 60.046 110.882 60.034 110.954 60.01C111.026 59.982 111.088 59.954 111.14 59.926C111.192 59.894 111.236 59.866 111.272 59.842C111.312 59.814 111.35 59.8 111.386 59.8C111.458 59.8 111.516 59.84 111.56 59.92L111.944 60.55C111.744 60.726 111.508 60.862 111.236 60.958C110.964 61.05 110.684 61.096 110.396 61.096ZM116.087 58.324C115.627 58.34 115.239 58.378 114.923 58.438C114.607 58.494 114.351 58.568 114.155 58.66C113.959 58.748 113.817 58.854 113.729 58.978C113.645 59.102 113.603 59.238 113.603 59.386C113.603 59.53 113.625 59.654 113.669 59.758C113.717 59.858 113.781 59.942 113.861 60.01C113.945 60.074 114.041 60.122 114.149 60.154C114.261 60.182 114.383 60.196 114.515 60.196C114.851 60.196 115.139 60.134 115.379 60.01C115.623 59.882 115.859 59.698 116.087 59.458V58.324ZM112.667 55.732C113.359 55.088 114.183 54.766 115.139 54.766C115.491 54.766 115.803 54.824 116.075 54.94C116.351 55.052 116.581 55.212 116.765 55.42C116.953 55.628 117.095 55.876 117.191 56.164C117.291 56.448 117.341 56.764 117.341 57.112V61H116.765C116.641 61 116.547 60.982 116.483 60.946C116.419 60.906 116.365 60.828 116.321 60.712L116.195 60.214C116.039 60.354 115.885 60.48 115.733 60.592C115.581 60.7 115.423 60.792 115.259 60.868C115.099 60.944 114.925 61 114.737 61.036C114.553 61.076 114.349 61.096 114.125 61.096C113.877 61.096 113.645 61.062 113.429 60.994C113.217 60.926 113.033 60.824 112.877 60.688C112.721 60.548 112.597 60.376 112.505 60.172C112.417 59.968 112.373 59.728 112.373 59.452C112.373 59.216 112.435 58.986 112.559 58.762C112.687 58.538 112.895 58.338 113.183 58.162C113.475 57.982 113.857 57.834 114.329 57.718C114.805 57.602 115.391 57.536 116.087 57.52V57.112C116.087 56.672 115.993 56.344 115.805 56.128C115.617 55.912 115.341 55.804 114.977 55.804C114.729 55.804 114.521 55.836 114.353 55.9C114.185 55.96 114.039 56.026 113.915 56.098C113.791 56.17 113.681 56.238 113.585 56.302C113.489 56.362 113.387 56.392 113.279 56.392C113.191 56.392 113.115 56.37 113.051 56.326C112.991 56.278 112.941 56.22 112.901 56.152L112.667 55.732Z" fill="black"/>
<path d="M21.588 91.256C21.588 91.14 21.608 91.032 21.648 90.932C21.692 90.828 21.75 90.738 21.822 90.662C21.898 90.586 21.986 90.526 22.086 90.482C22.19 90.438 22.3 90.416 22.416 90.416C22.532 90.416 22.64 90.438 22.74 90.482C22.844 90.526 22.934 90.586 23.01 90.662C23.086 90.738 23.146 90.828 23.19 90.932C23.234 91.032 23.256 91.14 23.256 91.256C23.256 91.376 23.234 91.486 23.19 91.586C23.146 91.686 23.086 91.774 23.01 91.85C22.934 91.926 22.844 91.984 22.74 92.024C22.64 92.068 22.532 92.09 22.416 92.09C22.3 92.09 22.19 92.068 22.086 92.024C21.986 91.984 21.898 91.926 21.822 91.85C21.75 91.774 21.692 91.686 21.648 91.586C21.608 91.486 21.588 91.376 21.588 91.256ZM24.4239 91.256C24.4239 91.14 24.4439 91.032 24.4839 90.932C24.5279 90.828 24.5859 90.738 24.6579 90.662C24.7339 90.586 24.8219 90.526 24.9219 90.482C25.0259 90.438 25.1359 90.416 25.2519 90.416C25.3679 90.416 25.4759 90.438 25.5759 90.482C25.6799 90.526 25.7699 90.586 25.8459 90.662C25.9219 90.738 25.9819 90.828 26.0259 90.932C26.0699 91.032 26.0919 91.14 26.0919 91.256C26.0919 91.376 26.0699 91.486 26.0259 91.586C25.9819 91.686 25.9219 91.774 25.8459 91.85C25.7699 91.926 25.6799 91.984 25.5759 92.024C25.4759 92.068 25.3679 92.09 25.2519 92.09C25.1359 92.09 25.0259 92.068 24.9219 92.024C24.8219 91.984 24.7339 91.926 24.6579 91.85C24.5859 91.774 24.5279 91.686 24.4839 91.586C24.4439 91.486 24.4239 91.376 24.4239 91.256ZM27.2599 91.256C27.2599 91.14 27.2799 91.032 27.3199 90.932C27.3639 90.828 27.4219 90.738 27.4939 90.662C27.5699 90.586 27.6579 90.526 27.7579 90.482C27.8619 90.438 27.9719 90.416 28.0879 90.416C28.2039 90.416 28.3119 90.438 28.4119 90.482C28.5159 90.526 28.6059 90.586 28.6819 90.662C28.7579 90.738 28.8179 90.828 28.8619 90.932C28.9059 91.032 28.9279 91.14 28.9279 91.256C28.9279 91.376 28.9059 91.486 28.8619 91.586C28.8179 91.686 28.7579 91.774 28.6819 91.85C28.6059 91.926 28.5159 91.984 28.4119 92.024C28.3119 92.068 28.2039 92.09 28.0879 92.09C27.9719 92.09 27.8619 92.068 27.7579 92.024C27.6579 91.984 27.5699 91.926 27.4939 91.85C27.4219 91.774 27.3639 91.686 27.3199 91.586C27.2799 91.486 27.2599 91.376 27.2599 91.256Z" fill="black"/>
<path d="M25.17 121.89C25.486 121.89 25.752 121.854 25.968 121.782C26.188 121.706 26.366 121.604 26.502 121.476C26.642 121.348 26.742 121.198 26.802 121.026C26.866 120.85 26.898 120.662 26.898 120.462C26.898 120.054 26.758 119.734 26.478 119.502C26.202 119.266 25.764 119.148 25.164 119.148H23.43V121.89H25.17ZM23.43 115.458V118.158H24.834C25.434 118.158 25.882 118.042 26.178 117.81C26.474 117.578 26.622 117.244 26.622 116.808C26.622 116.332 26.482 115.988 26.202 115.776C25.926 115.564 25.492 115.458 24.9 115.458H23.43ZM24.9 114.36C25.452 114.36 25.924 114.414 26.316 114.522C26.708 114.626 27.03 114.776 27.282 114.972C27.534 115.168 27.718 115.408 27.834 115.692C27.954 115.972 28.014 116.288 28.014 116.64C28.014 116.844 27.982 117.042 27.918 117.234C27.858 117.422 27.762 117.6 27.63 117.768C27.502 117.932 27.34 118.08 27.144 118.212C26.948 118.344 26.716 118.454 26.448 118.542C27.672 118.802 28.284 119.452 28.284 120.492C28.284 120.86 28.214 121.198 28.074 121.506C27.938 121.81 27.738 122.074 27.474 122.298C27.214 122.518 26.892 122.69 26.508 122.814C26.124 122.938 25.686 123 25.194 123H22.026V114.36H24.9ZM30.8527 116.88V123H29.5627V116.88H30.8527ZM31.0687 115.032C31.0687 115.148 31.0447 115.258 30.9967 115.362C30.9527 115.466 30.8907 115.558 30.8107 115.638C30.7307 115.714 30.6367 115.776 30.5287 115.824C30.4247 115.868 30.3127 115.89 30.1927 115.89C30.0767 115.89 29.9667 115.868 29.8627 115.824C29.7627 115.776 29.6747 115.714 29.5987 115.638C29.5227 115.558 29.4607 115.466 29.4127 115.362C29.3687 115.258 29.3467 115.148 29.3467 115.032C29.3467 114.912 29.3687 114.8 29.4127 114.696C29.4607 114.592 29.5227 114.502 29.5987 114.426C29.6747 114.346 29.7627 114.284 29.8627 114.24C29.9667 114.192 30.0767 114.168 30.1927 114.168C30.3127 114.168 30.4247 114.192 30.5287 114.24C30.6367 114.284 30.7307 114.346 30.8107 114.426C30.8907 114.502 30.9527 114.592 30.9967 114.696C31.0447 114.8 31.0687 114.912 31.0687 115.032ZM33.7635 114.12V119.268H34.0395C34.1275 119.268 34.1995 119.256 34.2555 119.232C34.3115 119.208 34.3695 119.158 34.4295 119.082L36.1455 117.12C36.2055 117.04 36.2715 116.98 36.3435 116.94C36.4155 116.9 36.5075 116.88 36.6195 116.88H37.7895L35.7255 119.208C35.6055 119.364 35.4735 119.488 35.3295 119.58C35.4095 119.636 35.4795 119.7 35.5395 119.772C35.5995 119.84 35.6575 119.918 35.7135 120.006L37.9155 123H36.7635C36.6595 123 36.5695 122.984 36.4935 122.952C36.4215 122.916 36.3575 122.852 36.3015 122.76L34.5315 120.36C34.4715 120.268 34.4115 120.21 34.3515 120.186C34.2915 120.158 34.2015 120.144 34.0815 120.144H33.7635V123H32.4735V114.12H33.7635ZM42.013 120.324C41.553 120.34 41.165 120.378 40.849 120.438C40.533 120.494 40.277 120.568 40.081 120.66C39.885 120.748 39.743 120.854 39.655 120.978C39.571 121.102 39.529 121.238 39.529 121.386C39.529 121.53 39.551 121.654 39.595 121.758C39.643 121.858 39.707 121.942 39.787 122.01C39.871 122.074 39.967 122.122 40.075 122.154C40.187 122.182 40.309 122.196 40.441 122.196C40.777 122.196 41.065 122.134 41.305 122.01C41.549 121.882 41.785 121.698 42.013 121.458V120.324ZM38.593 117.732C39.285 117.088 40.109 116.766 41.065 116.766C41.417 116.766 41.729 116.824 42.001 116.94C42.277 117.052 42.507 117.212 42.691 117.42C42.879 117.628 43.021 117.876 43.117 118.164C43.217 118.448 43.267 118.764 43.267 119.112V123H42.691C42.567 123 42.473 122.982 42.409 122.946C42.345 122.906 42.291 122.828 42.247 122.712L42.121 122.214C41.965 122.354 41.811 122.48 41.659 122.592C41.507 122.7 41.349 122.792 41.185 122.868C41.025 122.944 40.851 123 40.663 123.036C40.479 123.076 40.275 123.096 40.051 123.096C39.803 123.096 39.571 123.062 39.355 122.994C39.143 122.926 38.959 122.824 38.803 122.688C38.647 122.548 38.523 122.376 38.431 122.172C38.343 121.968 38.299 121.728 38.299 121.452C38.299 121.216 38.361 120.986 38.485 120.762C38.613 120.538 38.821 120.338 39.109 120.162C39.401 119.982 39.783 119.834 40.255 119.718C40.731 119.602 41.317 119.536 42.013 119.52V119.112C42.013 118.672 41.919 118.344 41.731 118.128C41.543 117.912 41.267 117.804 40.903 117.804C40.655 117.804 40.447 117.836 40.279 117.9C40.111 117.96 39.965 118.026 39.841 118.098C39.717 118.17 39.607 118.238 39.511 118.302C39.415 118.362 39.313 118.392 39.205 118.392C39.117 118.392 39.041 118.37 38.977 118.326C38.917 118.278 38.867 118.22 38.827 118.152L38.593 117.732ZM52.18 119.76L50.992 116.604C50.896 116.36 50.798 116.05 50.698 115.674C50.654 115.862 50.606 116.036 50.554 116.196C50.502 116.352 50.454 116.49 50.41 116.61L49.222 119.76H52.18ZM54.838 123H53.752C53.628 123 53.528 122.97 53.452 122.91C53.376 122.846 53.318 122.768 53.278 122.676L52.558 120.768H48.838L48.118 122.676C48.086 122.756 48.03 122.83 47.95 122.898C47.87 122.966 47.77 123 47.65 123H46.564L49.99 114.36H51.412L54.838 123ZM55.5829 123V116.88H56.3629C56.5389 116.88 56.6509 116.962 56.6989 117.126L56.7829 117.66C56.8949 117.532 57.0109 117.416 57.1309 117.312C57.2509 117.204 57.3789 117.112 57.5149 117.036C57.6549 116.956 57.8029 116.894 57.9589 116.85C58.1189 116.806 58.2909 116.784 58.4749 116.784C58.6709 116.784 58.8509 116.812 59.0149 116.868C59.1789 116.924 59.3229 117.004 59.4469 117.108C59.5749 117.212 59.6849 117.338 59.7769 117.486C59.8689 117.634 59.9449 117.8 60.0049 117.984C60.0969 117.772 60.2129 117.59 60.3529 117.438C60.4929 117.286 60.6489 117.162 60.8209 117.066C60.9929 116.97 61.1749 116.9 61.3669 116.856C61.5629 116.808 61.7609 116.784 61.9609 116.784C62.2889 116.784 62.5809 116.836 62.8369 116.94C63.0969 117.044 63.3149 117.196 63.4909 117.396C63.6709 117.592 63.8069 117.834 63.8989 118.122C63.9909 118.41 64.0369 118.738 64.0369 119.106V123H62.7469V119.106C62.7469 118.674 62.6529 118.35 62.4649 118.134C62.2809 117.914 62.0069 117.804 61.6429 117.804C61.4789 117.804 61.3249 117.832 61.1809 117.888C61.0369 117.944 60.9109 118.026 60.8029 118.134C60.6949 118.242 60.6089 118.378 60.5449 118.542C60.4849 118.702 60.4549 118.89 60.4549 119.106V123H59.1649V119.106C59.1649 118.658 59.0749 118.33 58.8949 118.122C58.7149 117.91 58.4509 117.804 58.1029 117.804C57.8629 117.804 57.6409 117.866 57.4369 117.99C57.2329 118.11 57.0449 118.276 56.8729 118.488V123H55.5829ZM66.8338 121.464C67.0138 121.696 67.2098 121.86 67.4218 121.956C67.6378 122.048 67.8718 122.094 68.1238 122.094C68.6318 122.094 69.0278 121.91 69.3118 121.542C69.5958 121.174 69.7378 120.604 69.7378 119.832C69.7378 119.128 69.6138 118.614 69.3658 118.29C69.1218 117.966 68.7718 117.804 68.3158 117.804C67.9998 117.804 67.7238 117.876 67.4878 118.02C67.2558 118.16 67.0378 118.362 66.8338 118.626V121.464ZM66.8338 117.69C67.0858 117.414 67.3678 117.194 67.6798 117.03C67.9918 116.866 68.3478 116.784 68.7478 116.784C69.1038 116.784 69.4238 116.854 69.7078 116.994C69.9958 117.13 70.2398 117.328 70.4398 117.588C70.6398 117.848 70.7938 118.164 70.9018 118.536C71.0098 118.904 71.0638 119.32 71.0638 119.784C71.0638 120.28 71.0018 120.732 70.8778 121.14C70.7578 121.544 70.5838 121.892 70.3558 122.184C70.1278 122.472 69.8518 122.696 69.5278 122.856C69.2038 123.012 68.8418 123.09 68.4418 123.09C68.2458 123.09 68.0678 123.07 67.9078 123.03C67.7478 122.994 67.5998 122.94 67.4638 122.868C67.3278 122.796 67.2018 122.71 67.0858 122.61C66.9738 122.51 66.8658 122.396 66.7618 122.268L66.7078 122.742C66.6878 122.834 66.6518 122.9 66.5998 122.94C66.5478 122.98 66.4758 123 66.3838 123H65.5438V114.12H66.8338V117.69ZM74.9633 116.784C75.4153 116.784 75.8233 116.858 76.1873 117.006C76.5553 117.154 76.8673 117.364 77.1233 117.636C77.3833 117.908 77.5833 118.238 77.7233 118.626C77.8633 119.014 77.9333 119.45 77.9333 119.934C77.9333 120.418 77.8633 120.854 77.7233 121.242C77.5833 121.63 77.3833 121.962 77.1233 122.238C76.8673 122.51 76.5553 122.72 76.1873 122.868C75.8233 123.016 75.4153 123.09 74.9633 123.09C74.5073 123.09 74.0953 123.016 73.7273 122.868C73.3633 122.72 73.0513 122.51 72.7913 122.238C72.5313 121.962 72.3313 121.63 72.1913 121.242C72.0513 120.854 71.9813 120.418 71.9813 119.934C71.9813 119.45 72.0513 119.014 72.1913 118.626C72.3313 118.238 72.5313 117.908 72.7913 117.636C73.0513 117.364 73.3633 117.154 73.7273 117.006C74.0953 116.858 74.5073 116.784 74.9633 116.784ZM74.9633 122.082C75.5153 122.082 75.9253 121.898 76.1933 121.53C76.4653 121.158 76.6013 120.628 76.6013 119.94C76.6013 119.252 76.4653 118.722 76.1933 118.35C75.9253 117.974 75.5153 117.786 74.9633 117.786C74.4033 117.786 73.9873 117.974 73.7153 118.35C73.4433 118.722 73.3073 119.252 73.3073 119.94C73.3073 120.628 73.4433 121.158 73.7153 121.53C73.9873 121.898 74.4033 122.082 74.9633 122.082ZM80.3787 117.69C80.5107 117.554 80.6467 117.432 80.7867 117.324C80.9307 117.212 81.0827 117.116 81.2427 117.036C81.4027 116.956 81.5727 116.894 81.7527 116.85C81.9327 116.806 82.1287 116.784 82.3407 116.784C82.6767 116.784 82.9707 116.84 83.2227 116.952C83.4787 117.064 83.6927 117.222 83.8647 117.426C84.0407 117.63 84.1727 117.876 84.2607 118.164C84.3487 118.448 84.3927 118.762 84.3927 119.106V123H83.1087V119.106C83.1087 118.694 83.0127 118.374 82.8207 118.146C82.6327 117.918 82.3447 117.804 81.9567 117.804C81.6687 117.804 81.4007 117.87 81.1527 118.002C80.9087 118.134 80.6787 118.314 80.4627 118.542V123H79.1727V116.88H79.9527C80.1287 116.88 80.2407 116.962 80.2887 117.126L80.3787 117.69ZM98.3196 114.36V123H97.0836V117.078C97.0836 116.982 97.0856 116.878 97.0896 116.766C97.0976 116.65 97.1076 116.534 97.1196 116.418L94.3416 121.548C94.2336 121.76 94.0676 121.866 93.8436 121.866H93.6456C93.4176 121.866 93.2516 121.76 93.1476 121.548L90.3276 116.406C90.3396 116.522 90.3476 116.638 90.3516 116.754C90.3596 116.87 90.3636 116.978 90.3636 117.078V123H89.1276V114.36H90.1776C90.3016 114.36 90.3976 114.372 90.4656 114.396C90.5336 114.416 90.5956 114.482 90.6516 114.594L93.4236 119.616C93.4836 119.732 93.5396 119.852 93.5916 119.976C93.6476 120.096 93.6976 120.22 93.7416 120.348C93.7896 120.22 93.8396 120.094 93.8916 119.97C93.9476 119.842 94.0056 119.72 94.0656 119.604L96.7956 114.594C96.8516 114.482 96.9136 114.416 96.9816 114.396C97.0496 114.372 97.1456 114.36 97.2696 114.36H98.3196ZM103.952 119.25C103.952 119.034 103.92 118.834 103.856 118.65C103.796 118.462 103.706 118.3 103.586 118.164C103.466 118.024 103.316 117.916 103.136 117.84C102.96 117.76 102.756 117.72 102.524 117.72C102.056 117.72 101.688 117.854 101.42 118.122C101.152 118.39 100.982 118.766 100.91 119.25H103.952ZM100.874 120.042C100.89 120.39 100.944 120.692 101.036 120.948C101.128 121.2 101.25 121.41 101.402 121.578C101.558 121.746 101.742 121.872 101.954 121.956C102.17 122.036 102.41 122.076 102.674 122.076C102.926 122.076 103.144 122.048 103.328 121.992C103.512 121.932 103.672 121.868 103.808 121.8C103.944 121.728 104.06 121.664 104.156 121.608C104.252 121.548 104.34 121.518 104.42 121.518C104.524 121.518 104.604 121.558 104.66 121.638L105.026 122.112C104.874 122.292 104.702 122.444 104.51 122.568C104.318 122.692 104.114 122.794 103.898 122.874C103.682 122.95 103.46 123.004 103.232 123.036C103.004 123.072 102.782 123.09 102.566 123.09C102.142 123.09 101.748 123.02 101.384 122.88C101.024 122.736 100.71 122.526 100.442 122.25C100.178 121.974 99.9703 121.632 99.8183 121.224C99.6703 120.816 99.5963 120.346 99.5963 119.814C99.5963 119.39 99.6623 118.994 99.7943 118.626C99.9303 118.258 100.122 117.938 100.37 117.666C100.622 117.394 100.926 117.18 101.282 117.024C101.642 116.864 102.048 116.784 102.5 116.784C102.876 116.784 103.224 116.846 103.544 116.97C103.864 117.09 104.14 117.268 104.372 117.504C104.604 117.74 104.784 118.03 104.912 118.374C105.044 118.714 105.11 119.102 105.11 119.538C105.11 119.738 105.088 119.872 105.044 119.94C105 120.008 104.92 120.042 104.804 120.042H100.874ZM110.219 118.386C110.039 118.154 109.841 117.992 109.625 117.9C109.409 117.808 109.175 117.762 108.923 117.762C108.419 117.762 108.025 117.948 107.741 118.32C107.457 118.688 107.315 119.234 107.315 119.958C107.315 120.334 107.347 120.656 107.411 120.924C107.475 121.188 107.567 121.404 107.687 121.572C107.807 121.74 107.953 121.862 108.125 121.938C108.297 122.014 108.491 122.052 108.707 122.052C109.035 122.052 109.317 121.982 109.553 121.842C109.793 121.698 110.015 121.496 110.219 121.236V118.386ZM111.509 114.12V123H110.729C110.557 123 110.447 122.918 110.399 122.754L110.285 122.088C110.029 122.388 109.737 122.63 109.409 122.814C109.085 122.998 108.707 123.09 108.275 123.09C107.931 123.09 107.619 123.022 107.339 122.886C107.059 122.746 106.819 122.544 106.619 122.28C106.419 122.016 106.263 121.69 106.151 121.302C106.043 120.91 105.989 120.462 105.989 119.958C105.989 119.502 106.049 119.08 106.169 118.692C106.293 118.304 106.469 117.968 106.697 117.684C106.925 117.396 107.201 117.172 107.525 117.012C107.853 116.848 108.219 116.766 108.623 116.766C108.983 116.766 109.289 116.824 109.541 116.94C109.793 117.052 110.019 117.21 110.219 117.414V114.12H111.509ZM116.357 120.324C115.897 120.34 115.509 120.378 115.193 120.438C114.877 120.494 114.621 120.568 114.425 120.66C114.229 120.748 114.087 120.854 113.999 120.978C113.915 121.102 113.873 121.238 113.873 121.386C113.873 121.53 113.895 121.654 113.939 121.758C113.987 121.858 114.051 121.942 114.131 122.01C114.215 122.074 114.311 122.122 114.419 122.154C114.531 122.182 114.653 122.196 114.785 122.196C115.121 122.196 115.409 122.134 115.649 122.01C115.893 121.882 116.129 121.698 116.357 121.458V120.324ZM112.937 117.732C113.629 117.088 114.453 116.766 115.409 116.766C115.761 116.766 116.073 116.824 116.345 116.94C116.621 117.052 116.851 117.212 117.035 117.42C117.223 117.628 117.365 117.876 117.461 118.164C117.561 118.448 117.611 118.764 117.611 119.112V123H117.035C116.911 123 116.817 122.982 116.753 122.946C116.689 122.906 116.635 122.828 116.591 122.712L116.465 122.214C116.309 122.354 116.155 122.48 116.003 122.592C115.851 122.7 115.693 122.792 115.529 122.868C115.369 122.944 115.195 123 115.007 123.036C114.823 123.076 114.619 123.096 114.395 123.096C114.147 123.096 113.915 123.062 113.699 122.994C113.487 122.926 113.303 122.824 113.147 122.688C112.991 122.548 112.867 122.376 112.775 122.172C112.687 121.968 112.643 121.728 112.643 121.452C112.643 121.216 112.705 120.986 112.829 120.762C112.957 120.538 113.165 120.338 113.453 120.162C113.745 119.982 114.127 119.834 114.599 119.718C115.075 119.602 115.661 119.536 116.357 119.52V119.112C116.357 118.672 116.263 118.344 116.075 118.128C115.887 117.912 115.611 117.804 115.247 117.804C114.999 117.804 114.791 117.836 114.623 117.9C114.455 117.96 114.309 118.026 114.185 118.098C114.061 118.17 113.951 118.238 113.855 118.302C113.759 118.362 113.657 118.392 113.549 118.392C113.461 118.392 113.385 118.37 113.321 118.326C113.261 118.278 113.211 118.22 113.171 118.152L112.937 117.732ZM120.328 117.69C120.46 117.554 120.596 117.432 120.736 117.324C120.88 117.212 121.032 117.116 121.192 117.036C121.352 116.956 121.522 116.894 121.702 116.85C121.882 116.806 122.078 116.784 122.29 116.784C122.626 116.784 122.92 116.84 123.172 116.952C123.428 117.064 123.642 117.222 123.814 117.426C123.99 117.63 124.122 117.876 124.21 118.164C124.298 118.448 124.342 118.762 124.342 119.106V123H123.058V119.106C123.058 118.694 122.962 118.374 122.77 118.146C122.582 117.918 122.294 117.804 121.906 117.804C121.618 117.804 121.35 117.87 121.102 118.002C120.858 118.134 120.628 118.314 120.412 118.542V123H119.122V116.88H119.902C120.078 116.88 120.19 116.962 120.238 117.126L120.328 117.69Z" fill="black"/>
</g>
<defs>
<linearGradient id="paint0_linear" x1="289.788" y1="195.36" x2="289.788" y2="0" gradientUnits="userSpaceOnUse">
<stop stop-color="#808080" stop-opacity="0.25"/>
<stop offset="0.53514" stop-color="#808080" stop-opacity="0.12"/>
<stop offset="1" stop-color="#808080" stop-opacity="0.1"/>
</linearGradient>
<clipPath id="clip0">
<rect width="341.872" height="200" fill="white"/>
</clipPath>
</defs>
</svg>
