<svg width="250" height="200" viewBox="0 0 250 200" fill="none" xmlns="http://www.w3.org/2000/svg">
<g clip-path="url(#clip0)">
<path d="M126.061 200C194.048 200 249.162 195.71 249.162 190.418C249.162 185.127 194.048 180.837 126.061 180.837C58.0736 180.837 2.95923 185.127 2.95923 190.418C2.95923 195.71 58.0736 200 126.061 200Z" fill="#3F3D56"/>
<path d="M230.628 172.618L231.782 181.048L223.706 181.814L224.859 171.469L230.628 172.618Z" fill="#FFB8B8"/>
<path d="M192.554 56.9006C192.554 56.9006 193.323 67.2462 193.323 67.6294C193.323 68.0126 187.939 94.4513 187.939 94.4513C187.939 94.4513 180.247 109.012 187.939 108.629C195.631 108.245 193.323 94.8345 193.323 94.8345L201.399 72.6106L197.938 56.9006L192.554 56.9006Z" fill="#A0616A"/>
<path d="M205.245 172.618L204.091 181.048L212.168 181.814L211.014 171.469L205.245 172.618Z" fill="#FFB8B8"/>
<path d="M196.4 93.6849L194.477 96.3671C194.477 96.3671 193.323 107.862 194.477 111.694C195.63 115.526 197.938 133.151 197.938 134.301C197.938 135.45 198.323 136.217 197.938 136.6C197.553 136.983 196.4 136.983 197.169 137.75C197.938 138.516 197.938 140.815 197.938 140.815V142.731L202.938 171.085C202.938 171.085 199.861 174.534 202.169 174.534C204.476 174.534 212.937 174.534 212.553 170.702L211.783 170.319C211.783 170.319 210.63 145.03 211.014 143.88C211.399 142.731 211.014 140.432 211.014 140.432C211.014 140.432 210.245 139.282 211.014 138.899C211.783 138.516 211.783 135.45 211.783 135.45L215.245 112.077C215.245 112.077 218.321 127.787 220.244 129.32C222.167 130.852 221.783 134.684 221.783 134.684L223.321 168.403C223.321 168.403 221.783 172.235 223.321 173.001C224.86 173.767 231.398 176.45 231.782 172.618C232.167 168.786 234.09 135.45 234.09 133.918C234.09 132.385 233.705 131.619 234.09 130.469C234.474 129.32 233.705 129.32 234.09 129.32C234.474 129.32 233.321 128.17 233.321 127.404V108.629C233.321 108.629 233.705 104.797 234.09 104.031C234.474 103.264 233.705 102.498 234.09 101.348C234.474 100.199 233.321 96.3671 233.321 96.3671L216.014 91.7691L196.4 93.6849Z" fill="#2F2E41"/>
<path d="M209.86 179.515C209.86 179.515 211.783 177.599 209.091 177.599C207.363 177.634 205.661 178.026 204.091 178.749L202.169 185.646C202.169 185.646 194.284 191.968 203.13 191.202C211.976 190.435 210.63 191.01 210.63 191.01C210.63 191.01 213.322 190.244 213.706 189.477C214.091 188.711 212.937 177.599 212.937 177.599C212.937 177.599 211.783 180.664 209.86 179.515Z" fill="#2F2E41"/>
<path d="M226.398 179.515C226.398 179.515 224.475 177.599 227.167 177.599C228.896 177.634 230.598 178.026 232.167 178.749L234.09 185.646C234.09 185.646 241.974 191.968 233.128 191.202C224.283 190.435 224.475 191.01 224.475 191.01C224.475 191.01 221.783 190.244 221.398 189.478C221.014 188.711 223.321 177.599 223.321 177.599C223.321 177.599 224.475 180.665 226.398 179.515Z" fill="#2F2E41"/>
<path d="M201.399 26.6304C206.922 26.6304 211.399 22.1701 211.399 16.668C211.399 11.1659 206.922 6.70557 201.399 6.70557C195.877 6.70557 191.4 11.1659 191.4 16.668C191.4 22.1701 195.877 26.6304 201.399 26.6304Z" fill="#FFB8B8"/>
<path d="M197.938 23.9484C197.938 23.9484 199.476 31.6118 199.476 32.7613C199.476 33.9108 206.014 37.3593 206.014 37.3593L213.321 28.1633C213.321 28.1633 208.706 21.6494 208.706 20.1167L197.938 23.9484Z" fill="#FFB8B8"/>
<path d="M203.707 33.9106C203.707 33.9106 200.355 33.0217 199.339 31.5503C199.339 31.5503 188.708 41.9572 188.708 43.8731L197.169 58.8167C197.169 58.8167 197.169 64.1811 197.938 64.5642C198.707 64.9474 197.938 64.5642 197.938 66.0969C197.938 67.6296 195.63 77.592 196.399 79.1247C197.169 80.6574 197.938 79.5079 197.169 81.8069C196.399 84.1059 194.476 96.3674 194.476 96.3674C194.476 96.3674 201.399 94.0683 211.399 97.9C221.398 101.732 233.32 96.3674 233.32 96.3674C233.32 96.3674 230.244 89.4703 231.013 87.1713C231.782 84.8723 229.09 80.6574 229.09 80.6574L227.167 45.4057C227.167 45.4057 229.859 29.6958 227.936 28.9294L224.09 27.3967L211.774 25.8886C211.774 25.8886 208.706 33.5275 203.707 33.9106Z" fill="#D0CDE1"/>
<path d="M192.554 41.1909L188.708 43.873C188.708 43.873 186.785 49.6206 188.708 52.3028C190.631 54.985 191.4 58.8167 191.4 58.8167L199.092 58.0504L192.554 41.1909Z" fill="#D0CDE1"/>
<path d="M193.765 6.13932L192.03 5.44749C192.03 5.44749 195.657 1.46946 200.703 1.81538L199.284 0.258738C199.284 0.258738 202.753 -1.12491 205.906 2.50719C207.564 4.41651 209.482 6.66082 210.678 9.189H212.536L211.76 10.8898L214.474 12.5905L211.689 12.285C211.952 13.7533 211.862 15.2631 211.425 16.6898L211.5 18.034C211.5 18.034 208.272 13.0576 208.272 12.3658V14.0954C208.272 14.0954 206.537 12.5388 206.537 11.501L205.591 12.7117L205.118 10.8092L199.284 12.7117L200.23 11.1551L196.603 11.674L198.022 9.77144C198.022 9.77144 193.922 12.0199 193.765 13.9225C193.607 15.825 191.557 18.2464 191.557 18.2464L190.611 16.5168C190.611 16.5168 189.192 8.73368 193.765 6.13932Z" fill="#2F2E41"/>
<path d="M196.084 83.3851H43.2539V190.346H196.084V83.3851Z" fill="#F2F2F2"/>
<path d="M94.493 124.195H56.1191V190.935H94.493V124.195Z" fill="#3F3D56"/>
<path d="M73.5539 128.199H63.217V137.8H73.5539V128.199Z" fill="#F2F2F2"/>
<path d="M87.395 128.199H77.0581V137.8H87.395V128.199Z" fill="#F2F2F2"/>
<path d="M73.5539 141.291H63.217V151.24H73.5539V141.291Z" fill="#F2F2F2"/>
<path d="M87.395 141.291H77.0581V151.24H87.395V141.291Z" fill="#F2F2F2"/>
<path d="M89.6131 164.489C90.9606 164.489 92.053 163.401 92.053 162.058C92.053 160.716 90.9606 159.628 89.6131 159.628C88.2655 159.628 87.1731 160.716 87.1731 162.058C87.1731 163.401 88.2655 164.489 89.6131 164.489Z" fill="#80D8FF"/>
<path d="M183.219 117.86H107.358V181.285H183.219V117.86Z" fill="#3F3D56"/>
<path d="M117.845 146.361C114.818 146.361 112.363 148.81 112.363 151.831C112.363 154.851 114.818 157.3 117.845 157.3V151.831H123.327C123.327 148.81 120.873 146.361 117.845 146.361Z" fill="#F2F2F2"/>
<path d="M117.845 146.361C117.693 146.361 117.542 146.367 117.393 146.379C120.209 146.609 122.423 148.962 122.423 151.831L123.327 151.831C123.327 148.81 120.873 146.361 117.845 146.361Z" fill="#F2F2F2"/>
<path d="M124.363 151.831L123.327 151.831C123.327 148.81 120.873 146.361 117.845 146.361C114.818 146.361 112.363 148.81 112.363 151.831C112.363 154.851 114.818 157.3 117.845 157.3L117.846 158.332C117.846 158.515 117.694 158.662 117.512 158.653C113.886 158.479 111 155.491 111 151.831C111 148.058 114.065 145 117.846 145C121.514 145 124.509 147.879 124.684 151.496C124.692 151.678 124.546 151.831 124.363 151.831Z" fill="#F2F2F2"/>
<path d="M124.363 151.831L123.327 151.831C123.327 148.81 120.873 146.361 117.845 146.361C114.818 146.361 112.363 148.81 112.363 151.831C112.363 154.851 114.818 157.3 117.845 157.3L117.846 158.332C117.846 158.515 117.694 158.662 117.512 158.653C113.886 158.479 111 155.491 111 151.831C111 148.058 114.065 145 117.846 145C121.514 145 124.509 147.879 124.684 151.496C124.692 151.678 124.546 151.831 124.363 151.831Z" fill="#F2F2F2"/>
<path d="M124.363 151.831L123.327 151.831C123.327 148.81 120.873 146.361 117.845 146.361C114.818 146.361 112.363 148.81 112.363 151.831C112.363 154.851 114.818 157.3 117.845 157.3L117.846 158.332C117.846 158.515 117.694 158.662 117.512 158.653C113.886 158.479 111 155.491 111 151.831C111 148.058 114.065 145 117.846 145C121.514 145 124.509 147.879 124.684 151.496C124.692 151.678 124.546 151.831 124.363 151.831Z" fill="#F2F2F2"/>
<path d="M117.846 145C117.694 145 117.543 145.005 117.394 145.015C120.853 145.24 123.611 148.029 123.779 151.496C123.788 151.678 123.641 151.831 123.458 151.831H124.363C124.546 151.831 124.692 151.678 124.684 151.496C124.509 147.879 121.514 145 117.846 145Z" fill="#F2F2F2"/>
<path d="M118.071 146.366C117.996 146.363 117.921 146.361 117.845 146.361C117.769 146.361 117.694 146.363 117.619 146.366V151.831L117.845 151.831L118.071 151.831V146.366Z" fill="#F2F2F2"/>
<path d="M118.071 145.004C117.996 145.002 117.921 145 117.846 145C117.77 145 117.694 145.002 117.619 145.004L117.619 146.366C117.694 146.363 117.769 146.361 117.845 146.361C117.921 146.361 117.996 146.363 118.071 146.366L118.071 145.004Z" fill="#F2F2F2"/>
<path d="M121.396 150.931C121.679 150.931 121.909 150.701 121.909 150.417C121.909 150.133 121.679 149.903 121.396 149.903C121.113 149.903 120.883 150.133 120.883 150.417C120.883 150.701 121.113 150.931 121.396 150.931Z" fill="#F2F2F2"/>
<path d="M116.288 150.865C116.571 150.865 116.801 150.635 116.801 150.351C116.801 150.067 116.571 149.837 116.288 149.837C116.005 149.837 115.775 150.067 115.775 150.351C115.775 150.635 116.005 150.865 116.288 150.865Z" fill="#F2F2F2"/>
<path d="M116.037 153.79C116.321 153.79 116.55 153.56 116.55 153.276C116.55 152.992 116.321 152.762 116.037 152.762C115.754 152.762 115.525 152.992 115.525 153.276C115.525 153.56 115.754 153.79 116.037 153.79Z" fill="#F2F2F2"/>
<path d="M116.502 155.92C116.785 155.92 117.015 155.69 117.015 155.406C117.015 155.122 116.785 154.892 116.502 154.892C116.218 154.892 115.989 155.122 115.989 155.406C115.989 155.69 116.218 155.92 116.502 155.92Z" fill="#F2F2F2"/>
<path d="M113.483 148.567C113.47 148.567 113.457 148.567 113.445 148.568C113.142 148.973 112.895 149.422 112.713 149.904C112.867 150.17 113.154 150.349 113.483 150.349C113.975 150.349 114.373 149.95 114.373 149.458C114.373 148.966 113.975 148.567 113.483 148.567Z" fill="#F2F2F2"/>
<path d="M113.483 148.567C113.47 148.567 113.457 148.567 113.445 148.568C113.393 148.636 113.345 148.707 113.297 148.778C113.489 148.941 113.612 149.185 113.612 149.458C113.612 149.814 113.404 150.12 113.103 150.263C113.219 150.318 113.347 150.349 113.483 150.349C113.975 150.349 114.373 149.95 114.373 149.458C114.373 148.966 113.975 148.567 113.483 148.567Z" fill="#F2F2F2"/>
<path d="M116.288 148.663C116.571 148.663 116.801 148.433 116.801 148.149C116.801 147.865 116.571 147.635 116.288 147.635C116.004 147.635 115.775 147.865 115.775 148.149C115.775 148.433 116.004 148.663 116.288 148.663Z" fill="#F2F2F2"/>
<path d="M119.221 150.864C119.504 150.864 119.734 150.634 119.734 150.351C119.734 150.067 119.504 149.837 119.221 149.837C118.938 149.837 118.708 150.067 118.708 150.351C118.708 150.634 118.938 150.864 119.221 150.864Z" fill="#F2F2F2"/>
<path d="M120.302 148.275C120.756 148.275 121.126 147.91 121.135 147.456C120.743 147.162 120.311 146.92 119.849 146.739C119.62 146.888 119.468 147.146 119.468 147.44C119.468 147.901 119.841 148.275 120.302 148.275Z" fill="#F2F2F2"/>
<path d="M120.886 148.034C121.036 147.886 121.13 147.682 121.135 147.456C121.135 147.456 121.135 147.456 121.135 147.456C120.934 147.305 120.722 147.169 120.503 147.047C120.292 146.93 120.073 146.827 119.849 146.739C119.735 146.813 119.64 146.914 119.573 147.033C120.061 147.3 120.503 147.638 120.886 148.034Z" fill="#F2F2F2"/>
<path d="M113.543 153.551C113.236 153.551 112.96 153.68 112.764 153.887C113.031 154.544 113.423 155.138 113.91 155.639C114.322 155.488 114.617 155.092 114.617 154.627C114.617 154.033 114.136 153.551 113.543 153.551Z" fill="#F2F2F2"/>
<path d="M113.543 153.551C113.386 153.551 113.238 153.585 113.104 153.646C113.478 153.814 113.738 154.19 113.738 154.627C113.738 154.852 113.669 155.06 113.552 155.232C113.665 155.374 113.784 155.509 113.91 155.639C114.322 155.488 114.617 155.092 114.617 154.627C114.617 154.033 114.136 153.551 113.543 153.551Z" fill="#F2F2F2"/>
<path d="M125.975 153.404C125.856 156.994 122.961 159.882 119.363 160C119.237 160.004 119.133 159.902 119.133 159.775V158.646L119.585 153.947C119.585 153.769 119.728 153.625 119.905 153.625L124.617 153.173H125.751C125.877 153.173 125.979 153.278 125.975 153.404Z" fill="#F2F2F2"/>
<path d="M125.751 153.173L124.846 153.173C124.973 153.173 125.075 153.277 125.071 153.403C124.96 156.743 122.446 159.475 119.199 159.935C119.241 159.977 119.299 160.002 119.363 160C122.961 159.882 125.856 156.994 125.975 153.404C125.979 153.278 125.877 153.173 125.751 153.173Z" fill="#F2F2F2"/>
<path d="M124.617 153.173C124.617 156.196 122.162 158.646 119.133 158.646V153.495C119.133 153.317 119.276 153.173 119.453 153.173H124.617Z" fill="#F2F2F2"/>
<path d="M124.009 153.173C123.773 155.768 121.722 157.839 119.133 158.113V158.646C122.162 158.646 124.617 156.196 124.617 153.173L124.009 153.173Z" fill="#F2F2F2"/>
<path d="M122.876 155.278C123.159 155.278 123.389 155.048 123.389 154.764C123.389 154.48 123.159 154.25 122.876 154.25C122.593 154.25 122.363 154.48 122.363 154.764C122.363 155.048 122.593 155.278 122.876 155.278Z" fill="#F2F2F2"/>
<path d="M120.661 155.194C120.944 155.194 121.174 154.964 121.174 154.68C121.174 154.396 120.944 154.166 120.661 154.166C120.378 154.166 120.148 154.396 120.148 154.68C120.148 154.964 120.378 155.194 120.661 155.194Z" fill="#F2F2F2"/>
<path d="M121.373 156.589C120.821 156.589 120.374 157.038 120.374 157.591C120.374 157.921 120.533 158.213 120.778 158.395C121.357 158.214 121.894 157.939 122.373 157.589C122.372 157.037 121.925 156.589 121.373 156.589Z" fill="#F2F2F2"/>
<path d="M121.373 156.589C121.215 156.589 121.066 156.625 120.934 156.691C120.937 156.692 120.94 156.694 120.944 156.696C121.439 156.946 121.452 157.654 120.969 157.929C120.831 158.008 120.688 158.081 120.543 158.148C120.607 158.243 120.686 158.327 120.778 158.395C121.357 158.214 121.894 157.939 122.373 157.589C122.372 157.037 121.925 156.589 121.373 156.589Z" fill="#F2F2F2"/>
<path d="M112.368 151.605C112.365 151.68 112.363 151.755 112.363 151.831C112.363 151.906 112.365 151.982 112.368 152.057H117.845L117.845 151.831L117.845 151.605H112.368Z" fill="#F2F2F2"/>
<path d="M111.003 152.057L112.368 152.057C112.365 151.982 112.363 151.906 112.363 151.831C112.363 151.755 112.365 151.68 112.368 151.605H111.003C111.001 151.68 111 151.755 111 151.831C111 151.906 111.001 151.982 111.003 152.057Z" fill="#F2F2F2"/>
<path d="M142.378 151.375H128.615V157.977H142.378V151.375Z" fill="#F2F2F2"/>
<path d="M142.377 151.991H128.63V152.881H142.377V151.991Z" fill="#F2F2F2"/>
<path d="M142.377 155.288H128.63V156.178H142.377V155.288Z" fill="#F2F2F2"/>
<path d="M138.311 146.828C137.755 146.67 137.16 146.722 136.637 146.969C136.637 146.969 128.895 150.587 128.375 150.807C128.15 150.903 127.993 151.129 128 151.391C128.008 151.727 128.294 151.99 128.63 151.99H141.44C141.702 151.99 141.915 152.203 141.915 152.465V153.585C141.915 153.847 141.702 154.06 141.44 154.06H128.615C128.275 154.06 127.999 154.336 127.999 154.676C127.999 155.016 128.275 155.291 128.615 155.291H141.44C141.702 155.291 141.915 155.504 141.915 155.766V156.886C141.915 157.148 141.702 157.361 141.44 157.361H128.615C128.275 157.361 127.999 157.637 127.999 157.977C127.999 158.317 128.275 158.592 128.615 158.592H142.092C142.593 158.592 142.999 158.186 142.999 157.685V151.99C142.999 148.594 139.908 147.28 138.311 146.828Z" fill="#F2F2F2"/>
<path d="M138.311 146.828C138 146.74 137.676 146.718 137.359 146.758C137.476 146.773 137.593 146.796 137.708 146.829C139.305 147.281 142.396 148.595 142.396 151.991V157.686C142.396 158.187 141.989 158.593 141.488 158.593L142.092 158.592C142.593 158.592 142.999 158.186 142.999 157.685V151.99C142.999 148.594 139.908 147.28 138.311 146.828Z" fill="#F2F2F2"/>
<path d="M136.335 149.482C136.321 149.482 136.307 149.481 136.293 149.478C136.17 149.455 136.09 149.336 136.113 149.214C136.114 149.204 136.207 148.695 136.119 148.145C136.008 147.452 135.672 147.017 135.119 146.851C134.999 146.816 134.931 146.689 134.967 146.57C135.003 146.45 135.129 146.382 135.249 146.418C135.976 146.636 136.432 147.213 136.568 148.086C136.666 148.714 136.562 149.274 136.558 149.298C136.537 149.406 136.442 149.482 136.335 149.482Z" fill="#F2F2F2"/>
<path d="M136.335 150.392C136.962 150.392 137.471 149.883 137.471 149.256C137.471 148.628 136.962 148.12 136.335 148.12C135.707 148.12 135.199 148.628 135.199 149.256C135.199 149.883 135.707 150.392 136.335 150.392Z" fill="#F2F2F2"/>
<path d="M158.976 150.825L153.57 151.162L147.25 150.825C146.591 150.825 146.057 150.396 146.057 149.866C146.057 146.626 149.322 144 153.35 144C157.377 144 160.168 146.626 160.168 149.866C160.168 150.396 159.635 150.825 158.976 150.825Z" fill="#F2F2F2"/>
<path d="M153.35 144C153.11 144 152.873 144.01 152.639 144.028C156.333 144.315 159.22 146.819 159.22 149.866C159.22 150.396 158.686 150.825 158.028 150.825L158.976 151.162L159.45 150.825C160.109 150.825 160.642 150.396 160.642 149.866C160.642 146.626 157.377 144 153.35 144Z" fill="#F2F2F2"/>
<path d="M157.362 159H149.338C147.526 159 146.057 157.532 146.057 155.72C146.057 155.333 146.37 155.02 146.757 155.02L153.302 154.684L159.469 155.02C159.855 155.02 160.168 155.333 160.168 155.72C160.168 157.532 159.174 159 157.362 159Z" fill="#F2F2F2"/>
<path d="M159.943 155.02L159.469 154.684L158.521 155.02C158.907 155.02 159.22 155.333 159.22 155.72C159.22 157.532 157.751 159 155.94 159H157.362C159.174 159 160.642 157.532 160.642 155.72C160.642 155.333 160.329 155.02 159.943 155.02Z" fill="#F2F2F2"/>
<path d="M159.684 155.02H146.561C145.709 155.02 145.019 154.329 145.019 153.478C145.019 152.626 145.709 151.936 146.561 151.936H159.684C160.536 151.936 161.226 152.626 161.226 153.478C161.226 154.329 160.536 155.02 159.684 155.02Z" fill="#F2F2F2"/>
<path d="M159.778 151.936L153.903 156.825C153.583 157.072 153.137 157.072 152.816 156.825L146.467 151.936H159.778Z" fill="#F2F2F2"/>
<path d="M160.158 151.936H158.736C159.588 151.936 160.278 152.626 160.278 153.478C160.278 154.329 159.588 155.02 158.736 155.02H160.158C161.01 155.02 161.7 154.329 161.7 153.478C161.7 152.626 161.01 151.936 160.158 151.936Z" fill="#F2F2F2"/>
<path d="M158.83 151.936L152.648 156.696L152.816 156.825C153.137 157.072 153.583 157.072 153.903 156.825L160.252 151.936H158.83Z" fill="#F2F2F2"/>
<path d="M160.046 151.223C160.046 152.795 159.107 154.036 157.535 154.036C157.338 154.036 157.147 154.05 156.961 154.012C155.664 153.747 154.688 152.599 154.688 151.223H160.046Z" fill="#F2F2F2"/>
<path d="M159.206 151.223C159.206 152.594 158.237 153.738 156.947 154.009C157.137 154.049 157.333 154.07 157.535 154.07C159.107 154.07 160.382 152.795 160.382 151.223H159.206Z" fill="#F2F2F2"/>
<path d="M151.676 151.223C151.676 152.795 150.737 154.036 149.164 154.036C148.968 154.036 148.776 154.05 148.591 154.012C147.293 153.747 146.317 152.599 146.317 151.223H151.676Z" fill="#F2F2F2"/>
<path d="M150.836 151.223C150.836 152.594 149.867 153.738 148.576 154.009C148.766 154.049 148.963 154.07 149.165 154.07C150.737 154.07 152.012 152.795 152.012 151.223H150.836Z" fill="#F2F2F2"/>
<path d="M161.605 151.747C161.605 152.151 161.342 152.506 160.956 152.626C160.488 152.772 160.379 153.046 159.612 153.046C158.568 153.046 158.568 152.538 157.525 152.538C156.481 152.538 156.481 153.046 155.437 153.046C154.393 153.046 154.393 152.538 153.349 152.538C152.306 152.538 152.306 153.046 151.262 153.046C150.218 153.046 150.218 152.538 149.174 152.538C148.131 152.538 148.131 153.046 147.087 153.046C146.32 153.046 146.116 152.772 145.649 152.626C145.263 152.506 144.999 152.151 144.999 151.747C144.999 151.238 145.412 150.826 145.92 150.826H160.684C161.193 150.826 161.605 151.238 161.605 151.747Z" fill="#F2F2F2"/>
<path d="M160.779 150.826H159.357C159.866 150.826 160.278 151.238 160.278 151.747C160.278 152.151 160.014 152.506 159.629 152.626C159.351 152.713 159.166 152.845 158.902 152.937C159.083 153.001 159.301 153.046 159.612 153.046C160.379 153.046 160.583 152.772 161.051 152.626C161.437 152.506 161.7 152.151 161.7 151.747C161.7 151.238 161.288 150.826 160.779 150.826Z" fill="#F2F2F2"/>
<path d="M171.338 144.324C175.39 144.324 178.676 147.609 178.676 151.662C178.676 155.715 175.39 159 171.338 159C167.285 159 163.999 155.715 163.999 151.662C163.999 147.609 167.285 144.324 171.338 144.324ZM171.338 154.22C172.75 154.22 173.895 153.075 173.895 151.662C173.895 150.249 172.75 149.104 171.338 149.104C169.925 149.104 168.78 150.249 168.78 151.662C168.78 153.075 169.925 154.22 171.338 154.22Z" fill="#F2F2F2"/>
<path d="M177.771 151.663C177.771 147.762 174.727 144.573 170.885 144.339C171.035 144.33 171.186 144.325 171.338 144.325C175.39 144.325 178.676 147.609 178.676 151.662C178.676 155.715 175.39 159 171.338 159C171.186 159 171.035 158.996 170.885 158.987C174.727 158.753 177.771 155.564 177.771 151.663Z" fill="#F2F2F2"/>
<path d="M176.946 150.353C177.013 150.353 177.078 150.324 177.123 150.268L177.511 149.783C177.589 149.686 177.573 149.543 177.476 149.465C177.378 149.387 177.236 149.403 177.158 149.5L176.77 149.985C176.692 150.083 176.707 150.225 176.805 150.303C176.847 150.337 176.897 150.353 176.946 150.353Z" fill="#F2F2F2"/>
<path d="M168.216 156.09C168.282 156.09 168.348 156.061 168.393 156.005L168.781 155.52C168.859 155.422 168.843 155.28 168.745 155.202C168.648 155.123 168.505 155.139 168.427 155.237L168.039 155.722C167.961 155.819 167.977 155.962 168.075 156.04C168.116 156.073 168.166 156.09 168.216 156.09Z" fill="#F2F2F2"/>
<path d="M165.195 151.904C165.262 151.904 165.327 151.875 165.372 151.819L165.76 151.334C165.838 151.237 165.822 151.094 165.725 151.016C165.627 150.938 165.485 150.954 165.407 151.052L165.019 151.537C164.941 151.634 164.956 151.777 165.054 151.855C165.096 151.888 165.146 151.904 165.195 151.904Z" fill="#F2F2F2"/>
<path d="M166.151 155.56C166.174 155.56 166.197 155.556 166.22 155.549C166.339 155.511 166.405 155.384 166.367 155.265L166.179 154.673C166.141 154.554 166.014 154.488 165.895 154.526C165.776 154.564 165.71 154.691 165.747 154.81L165.935 155.402C165.966 155.498 166.055 155.56 166.151 155.56Z" fill="#F2F2F2"/>
<path d="M176.063 152.267C176.12 152.267 176.178 152.245 176.222 152.201C176.311 152.113 176.311 151.97 176.223 151.881L175.785 151.441C175.697 151.352 175.554 151.352 175.465 151.44C175.377 151.528 175.376 151.671 175.464 151.76L175.902 152.2C175.946 152.245 176.005 152.267 176.063 152.267Z" fill="#F2F2F2"/>
<path d="M170.429 157.722C170.487 157.722 170.545 157.7 170.589 157.657C170.678 157.568 170.678 157.425 170.59 157.336L170.152 156.896C170.064 156.807 169.921 156.807 169.832 156.895C169.743 156.983 169.743 157.127 169.831 157.215L170.269 157.656C170.313 157.7 170.371 157.722 170.429 157.722Z" fill="#F2F2F2"/>
<path d="M167.191 153.367C167.274 153.367 167.354 153.321 167.394 153.242C167.45 153.13 167.405 152.994 167.293 152.938L166.738 152.66C166.626 152.604 166.49 152.649 166.434 152.761C166.378 152.873 166.423 153.009 166.535 153.065L167.09 153.343C167.123 153.359 167.157 153.367 167.191 153.367Z" fill="#F2F2F2"/>
<path d="M167.407 150.516C167.447 150.516 167.487 150.506 167.523 150.484C167.63 150.42 167.666 150.281 167.601 150.174L167.283 149.64C167.219 149.533 167.08 149.498 166.973 149.562C166.866 149.626 166.83 149.765 166.895 149.872L167.213 150.406C167.255 150.477 167.33 150.516 167.407 150.516Z" fill="#F2F2F2"/>
<path d="M176.387 154.124C176.415 154.124 176.443 154.119 176.47 154.108L177.048 153.88C177.164 153.834 177.221 153.702 177.175 153.586C177.129 153.47 176.998 153.413 176.882 153.459L176.304 153.687C176.188 153.733 176.131 153.864 176.177 153.98C176.212 154.069 176.297 154.124 176.387 154.124Z" fill="#F2F2F2"/>
<path d="M172.381 156.788C172.436 156.788 172.492 156.768 172.536 156.727L172.988 156.302C173.08 156.216 173.084 156.073 172.998 155.982C172.913 155.891 172.77 155.886 172.679 155.972L172.226 156.397C172.135 156.482 172.13 156.626 172.216 156.717C172.26 156.764 172.32 156.788 172.381 156.788Z" fill="#F2F2F2"/>
<path d="M174.978 155.268C175.101 155.268 175.202 155.169 175.204 155.045C175.206 154.92 175.106 154.817 174.981 154.815L174.36 154.806C174.237 154.805 174.132 154.904 174.131 155.029C174.129 155.154 174.229 155.257 174.354 155.259L174.974 155.268C174.976 155.268 174.977 155.268 174.978 155.268Z" fill="#F2F2F2"/>
<path d="M171.351 144C169.3 143.996 167.37 144.794 165.92 146.244C165.605 146.559 165.217 147.096 164.911 147.547C164.669 147.905 165.076 148.351 165.451 148.137C165.454 148.135 165.457 148.133 165.46 148.131C165.979 147.829 166.621 147.829 167.14 148.131C167.658 148.433 168.3 148.433 168.819 148.131C169.338 147.829 169.979 147.829 170.498 148.131C170.757 148.282 171.048 148.358 171.338 148.358C171.628 148.358 171.918 148.282 172.177 148.131C172.696 147.829 173.338 147.829 173.857 148.131C174.375 148.433 175.017 148.433 175.536 148.131C176.055 147.829 176.696 147.829 177.215 148.131C177.218 148.133 177.221 148.135 177.225 148.137C177.6 148.351 178.007 147.905 177.765 147.547C177.459 147.095 177.071 146.559 176.755 146.244C175.305 144.794 173.376 143.997 171.324 144H171.351Z" fill="#F2F2F2"/>
<path d="M171.351 144.001C171.347 144.001 171.342 144.001 171.338 144.001C171.333 144.001 171.329 144.001 171.324 144.001C171.324 144.001 171.351 144.001 171.351 144.001Z" fill="#F2F2F2"/>
<path d="M177.215 148.133C177.152 148.096 177.087 148.064 177.021 148.036C176.68 147.541 176.276 146.996 175.941 146.661C174.451 145.171 172.535 144.263 170.468 144.051C170.755 144.018 171.045 144.001 171.338 144.001C173.384 144.001 175.308 144.799 176.755 146.246C177.071 146.561 177.459 147.097 177.764 147.549C178.007 147.907 177.6 148.353 177.224 148.138C177.221 148.136 177.218 148.135 177.215 148.133Z" fill="#F2F2F2"/>
<path d="M173.831 146.811C173.956 146.811 174.057 146.71 174.057 146.585V146.134C174.057 146.009 173.956 145.907 173.831 145.907C173.706 145.907 173.604 146.009 173.604 146.134V146.585C173.604 146.71 173.706 146.811 173.831 146.811Z" fill="#F2F2F2"/>
<path d="M168.845 146.811C168.97 146.811 169.071 146.71 169.071 146.585V146.134C169.071 146.009 168.97 145.907 168.845 145.907C168.72 145.907 168.618 146.009 168.618 146.134V146.585C168.618 146.71 168.72 146.811 168.845 146.811Z" fill="#F2F2F2"/>
<path d="M171.338 147.052C171.643 147.052 171.929 146.925 172.123 146.702C172.206 146.608 172.196 146.465 172.102 146.383C172.008 146.301 171.865 146.31 171.783 146.405C171.674 146.528 171.512 146.599 171.338 146.599C171.163 146.599 171.001 146.528 170.893 146.405C170.811 146.31 170.668 146.301 170.573 146.383C170.479 146.465 170.47 146.608 170.552 146.702C170.746 146.925 171.032 147.052 171.338 147.052Z" fill="#F2F2F2"/>
<path d="M212.055 103.522H27.2832L39.6028 77.8601L42.3599 72.1143L45.9668 64.6005L48.7239 58.8547L51.9201 52.1985H197.497L199.385 58.8547L201.015 64.6005L203.147 72.1143L204.777 77.8601L212.055 103.522Z" fill="#3F3D56"/>
<path d="M183.219 160.511H107.358V162.058H183.219V160.511Z" fill="#F2F2F2"/>
<path d="M145.954 117.86H144.623V132.003H145.954V117.86Z" fill="#F2F2F2"/>
<path d="M145.288 134.214C146.513 134.214 147.507 133.224 147.507 132.004C147.507 130.783 146.513 129.794 145.288 129.794C144.063 129.794 143.07 130.783 143.07 132.004C143.07 133.224 144.063 134.214 145.288 134.214Z" fill="#F2F2F2"/>
<path d="M201.015 64.6003H45.9668L48.7239 58.8545H199.385L201.015 64.6003Z" fill="#80D8FF"/>
<path d="M204.777 77.8604H39.6028L42.3598 72.1146H203.147L204.777 77.8604Z" fill="#80D8FF"/>
<path d="M221.013 44.6393C221.013 44.6393 218.786 50.345 219.251 55.9903C219.336 57.001 219.678 57.9736 220.244 58.8166L192.959 71.7222C192.959 71.7222 180.631 72.9939 183.708 78.3583C186.784 83.7227 197.938 75.6761 197.938 75.6761C197.938 75.6761 227.167 71.4612 229.474 67.2464C231.782 63.0315 233.32 45.4057 233.32 45.4057L221.013 44.6393Z" fill="#FFB8B8"/>
<path d="M222.167 28.9291H227.936C227.936 28.9291 232.167 29.6955 233.32 37.3589C234.474 45.0223 235.628 46.9381 234.474 46.9381C233.32 46.9381 219.475 46.555 219.475 46.1718C219.475 45.7886 222.167 28.9291 222.167 28.9291Z" fill="#D0CDE1"/>
<path d="M29.5917 143.394C45.9347 143.394 59.1834 130.194 59.1834 113.912C59.1834 97.6293 45.9347 84.4297 29.5917 84.4297C13.2486 84.4297 0 97.6293 0 113.912C0 130.194 13.2486 143.394 29.5917 143.394Z" fill="#80D8FF"/>
<path opacity="0.1" d="M29.5917 139.267C43.6467 139.267 55.0405 127.915 55.0405 113.912C55.0405 99.909 43.6467 88.5574 29.5917 88.5574C15.5367 88.5574 4.14282 99.909 4.14282 113.912C4.14282 127.915 15.5367 139.267 29.5917 139.267Z" fill="black"/>
<path d="M23.008 114.072C23.664 114.072 24.24 113.992 24.736 113.832C25.24 113.672 25.66 113.448 25.996 113.16C26.332 112.864 26.584 112.516 26.752 112.116C26.92 111.708 27.004 111.26 27.004 110.772C27.004 109.78 26.676 109.032 26.02 108.528C25.372 108.024 24.396 107.772 23.092 107.772H20.68V114.072H23.008ZM31.048 123H28.768C28.312 123 27.98 122.82 27.772 122.46L23.512 116.484C23.376 116.284 23.228 116.144 23.068 116.064C22.908 115.976 22.668 115.932 22.348 115.932H20.68V123H18.124V105.768H23.092C24.204 105.768 25.16 105.884 25.96 106.116C26.768 106.34 27.432 106.664 27.952 107.088C28.48 107.504 28.868 108.008 29.116 108.6C29.372 109.192 29.5 109.856 29.5 110.592C29.5 111.192 29.408 111.756 29.224 112.284C29.04 112.812 28.768 113.288 28.408 113.712C28.056 114.128 27.624 114.488 27.112 114.792C26.6 115.096 26.02 115.328 25.372 115.488C25.692 115.68 25.968 115.948 26.2 116.292L31.048 123ZM34.9606 120C35.3446 120.504 35.7566 120.856 36.1966 121.056C36.6446 121.256 37.1446 121.356 37.6966 121.356C38.7686 121.356 39.5966 120.972 40.1806 120.204C40.7726 119.428 41.0686 118.3 41.0686 116.82C41.0686 116.044 41.0006 115.384 40.8646 114.84C40.7366 114.288 40.5446 113.84 40.2886 113.496C40.0406 113.144 39.7326 112.888 39.3646 112.728C38.9966 112.56 38.5806 112.476 38.1166 112.476C37.4366 112.476 36.8446 112.628 36.3406 112.932C35.8446 113.236 35.3846 113.668 34.9606 114.228V120ZM34.8406 112.632C35.0966 112.328 35.3686 112.052 35.6566 111.804C35.9526 111.548 36.2686 111.332 36.6046 111.156C36.9406 110.972 37.2966 110.832 37.6726 110.736C38.0566 110.632 38.4646 110.58 38.8966 110.58C39.5926 110.58 40.2206 110.716 40.7806 110.988C41.3486 111.26 41.8326 111.66 42.2326 112.188C42.6326 112.716 42.9406 113.368 43.1566 114.144C43.3806 114.92 43.4926 115.812 43.4926 116.82C43.4926 117.724 43.3686 118.564 43.1206 119.34C42.8806 120.108 42.5326 120.776 42.0766 121.344C41.6286 121.912 41.0766 122.36 40.4206 122.688C39.7726 123.008 39.0406 123.168 38.2246 123.168C37.4966 123.168 36.8726 123.048 36.3526 122.808C35.8326 122.568 35.3686 122.232 34.9606 121.8V127.092H32.6206V110.808H34.0246C34.3526 110.808 34.5566 110.964 34.6366 111.276L34.8406 112.632Z" fill="white"/>
</g>
<defs>
<clipPath id="clip0">
<rect width="249.162" height="200" fill="white"/>
</clipPath>
</defs>
</svg>
