<svg width="53" height="45" viewBox="0 0 53 45" fill="none" xmlns="http://www.w3.org/2000/svg">
<path fill-rule="evenodd" clip-rule="evenodd" d="M46.0417 39.25L6.95832 39.25C5.42291 39.25 4.16666 40.5062 4.16666 42.0416C4.16666 43.5771 5.4229 44.8333 6.95832 44.8333L46.0417 44.8333C47.5771 44.8333 48.8333 43.5771 48.8333 42.0416C48.8333 40.5062 47.5771 39.25 46.0417 39.25ZM3.71985 34.225C3.9711 35.5091 5.11569 36.4583 6.45569 36.4583L46.544 36.4583C47.884 36.4583 49.0286 35.5091 49.2799 34.225L52.0715 20.2666C52.4065 18.5358 51.0944 16.9166 49.3357 16.9166L48.8332 16.9166L48.8332 2.95832C48.8332 1.4229 47.5769 0.166648 46.0415 0.166648L23.7082 0.166646C22.1728 0.166646 20.9165 1.42289 20.9165 2.95831L20.9165 16.9166L9.74986 16.9166L9.74986 2.95831C9.74986 1.42289 8.49361 0.166645 6.95819 0.166645C5.42277 0.166645 4.16652 1.42289 4.16652 2.95831L4.16652 16.9166L3.66403 16.9166C1.90528 16.9166 0.593188 18.5358 0.928187 20.2666L3.71985 34.225ZM43.25 5.74998L26.5 5.74998L26.5 16.9166L43.25 16.9166L43.25 5.74998Z" fill="#01579B"/>
</svg>
